<svg width="25" height="25" viewBox="0 0 25 25" fill="none" xmlns="http://www.w3.org/2000/svg">
<path d="M0 12.6876C0 5.96438 5.46532 0.5 12.1896 0.5C18.9139 0.5 24.3792 5.96438 24.3792 12.6876C24.3792 19.4108 18.9139 24.8752 12.1896 24.8752C5.46532 24.8752 0 19.4108 0 12.6876C0 19.4108 0 5.96438 0 12.6876ZM21.5178 12.6876C21.5178 7.5379 17.3402 3.36094 12.1896 3.36094C7.03909 3.36094 2.86141 7.5379 2.86141 12.6876C2.86141 17.8373 7.03909 22.0143 12.1896 22.0143C17.3402 22.0143 21.5178 17.8373 21.5178 12.6876C21.5178 17.8373 21.5178 7.5379 21.5178 12.6876Z" fill="#007BA6"/>
</svg>
