<svg width="1072" height="953" viewBox="0 0 1072 953" fill="none" xmlns="http://www.w3.org/2000/svg">
<g opacity="0.5">
<path d="M926.125 106.168V286.104L780.575 368.133L637.672 286.104V122.044" stroke="#007BA6" stroke-width="2" stroke-linecap="round" stroke-linejoin="round"/>
<path d="M617.777 122.044C617.777 111.063 626.695 102.146 637.677 102.146C648.66 102.146 657.578 111.063 657.578 122.044C657.578 133.026 648.66 141.943 637.677 141.943C626.695 141.943 617.777 133.026 617.777 122.044Z" fill="white"/>
<path d="M615.125 122.044C615.125 134.481 625.234 144.589 637.672 144.589C650.11 144.589 660.219 134.481 660.219 122.044C660.219 109.608 650.11 99.4995 637.672 99.4995C625.234 99.4995 615.125 109.608 615.125 122.044C615.125 134.481 615.125 109.608 615.125 122.044ZM654.926 122.044C654.926 131.57 647.199 139.297 637.672 139.297C628.145 139.297 620.417 131.57 620.417 122.044C620.417 112.518 628.145 104.792 637.672 104.792C647.199 104.792 654.926 112.518 654.926 122.044C654.926 131.57 654.926 112.518 654.926 122.044Z" fill="#007BA6"/>
<path d="M752.789 173.644L990.961 311.242" stroke="#007BA6" stroke-width="2" stroke-linecap="round" stroke-linejoin="round"/>
<path d="M995.939 302.615C1000.7 305.367 1002.32 311.453 999.564 316.216C996.812 320.98 990.726 322.594 985.962 319.842C981.199 317.09 979.584 311.004 982.337 306.241C985.089 301.478 991.175 299.864 995.939 302.615Z" fill="white"/>
<path d="M996.6 301.477C991.228 298.382 984.321 300.207 981.199 305.605C978.076 310.977 979.928 317.883 985.327 321.006C990.699 324.102 997.606 322.276 1000.73 316.878C1003.82 311.506 1002 304.6 996.6 301.477C991.228 298.382 1001.97 304.573 996.6 301.477ZM986.65 318.704C982.522 316.322 981.119 311.03 983.501 306.928C985.883 302.827 991.175 301.398 995.277 303.78C999.405 306.161 1000.81 311.453 998.426 315.555C996.045 319.656 990.752 321.085 986.65 318.704C982.522 316.322 990.778 321.085 986.65 318.704Z" fill="#007BA6"/>
<path d="M731.623 250.381L848.062 319.18V456.778L726.33 528.223L607.244 459.424" stroke="#2AC5F4" stroke-width="2" stroke-linecap="round" stroke-linejoin="round"/>
<path d="M602.267 468.05C597.503 465.298 595.889 459.212 598.641 454.449C601.393 449.686 607.48 448.072 612.244 450.824C617.007 453.576 618.621 459.662 615.869 464.425C613.117 469.188 607.03 470.802 602.267 468.05Z" fill="white"/>
<path d="M601.6 469.188C606.972 472.284 613.879 470.459 617.002 465.061C620.098 459.689 618.272 452.783 612.874 449.66C607.502 446.564 600.595 448.39 597.472 453.788C594.376 459.16 596.202 466.066 601.6 469.188C596.228 466.092 606.999 472.311 601.6 469.188ZM611.551 451.962C615.679 454.344 617.082 459.636 614.7 463.737C612.318 467.839 607.025 469.268 602.923 466.886C598.795 464.505 597.393 459.213 599.774 455.111C602.156 450.983 607.449 449.581 611.551 451.962C607.422 449.581 615.679 454.344 611.551 451.962Z" fill="#2AC5F4"/>
<path d="M1070.35 393.271L1025.36 366.81L911.57 432.963" stroke="#007BA6" stroke-width="2" stroke-linecap="round" stroke-linejoin="round"/>
<path d="M916.574 441.563C911.837 444.315 905.724 442.701 902.971 437.964C900.219 433.228 901.833 427.115 906.57 424.363C911.307 421.611 917.421 423.225 920.173 427.962C922.925 432.699 921.311 438.811 916.574 441.563Z" fill="white"/>
<path d="M917.235 442.701C922.607 439.578 924.433 432.672 921.311 427.3C918.188 421.929 911.281 420.103 905.909 423.225C900.537 426.348 898.711 433.254 901.834 438.626C904.956 443.997 911.863 445.823 917.235 442.701C911.863 445.823 922.607 439.578 917.235 442.701ZM907.232 425.501C911.334 423.119 916.627 424.522 919.035 428.623C921.443 432.725 920.014 438.017 915.912 440.425C911.81 442.806 906.518 441.404 904.109 437.303C901.701 433.201 903.13 427.909 907.232 425.501C903.13 427.882 911.334 423.119 907.232 425.501Z" fill="#007BA6"/>
<path d="M990.961 525.577V419.732L893.046 364.164L795.13 419.732V528.223" stroke="#39C6F4" stroke-width="2" stroke-linecap="round" stroke-linejoin="round"/>
<path d="M795.136 538.173C789.64 538.173 785.185 533.718 785.185 528.223C785.185 522.728 789.64 518.274 795.136 518.274C800.631 518.274 805.086 522.728 805.086 528.223C805.086 533.718 800.631 538.173 795.136 538.173Z" fill="white"/>
<path d="M806.406 528.223C806.406 522.005 801.352 516.951 795.133 516.951C788.914 516.951 783.859 522.005 783.859 528.223C783.859 534.441 788.914 539.496 795.133 539.496C801.352 539.496 806.406 534.441 806.406 528.223C806.406 534.441 806.406 522.005 806.406 528.223ZM786.506 528.223C786.506 523.46 790.369 519.597 795.133 519.597C799.896 519.597 803.76 523.46 803.76 528.223C803.76 532.986 799.896 536.849 795.133 536.849C790.369 536.849 786.506 532.986 786.506 528.223C786.506 532.986 786.506 523.46 786.506 528.223Z" fill="#39C6F4"/>
<path d="M988.32 594.376L750.148 731.974L509.329 591.73" stroke="#007BA6" stroke-width="2" stroke-linecap="round" stroke-linejoin="round"/>
<path d="M504.32 600.33C499.583 597.578 497.969 591.465 500.721 586.729C503.474 581.992 509.587 580.378 514.324 583.13C519.061 585.882 520.675 591.995 517.923 596.731C515.171 601.468 509.057 603.082 504.32 600.33Z" fill="white"/>
<path d="M503.659 601.468C509.031 604.59 515.938 602.764 519.061 597.393C522.183 592.021 520.358 585.115 514.985 581.992C509.613 578.87 502.706 580.696 499.584 586.067C496.461 591.439 498.287 598.345 503.659 601.468C498.287 598.345 509.031 604.59 503.659 601.468ZM513.662 584.268C517.764 586.649 519.167 591.942 516.785 596.07C514.403 600.171 509.11 601.574 504.982 599.192C500.88 596.811 499.478 591.518 501.859 587.39C504.241 583.289 509.534 581.886 513.662 584.268C509.56 581.886 517.764 586.649 513.662 584.268Z" fill="#007BA6"/>
<path d="M803.07 567.915L686.631 631.422V763.728" stroke="#007BA6" stroke-width="2" stroke-linecap="round" stroke-linejoin="round"/>
<path d="M686.628 773.677C681.132 773.677 676.678 769.222 676.678 763.727C676.678 758.233 681.132 753.778 686.628 753.778C692.123 753.778 696.578 758.233 696.578 763.727C696.578 769.222 692.123 773.677 686.628 773.677Z" fill="white"/>
<path d="M697.906 763.728C697.906 757.509 692.852 752.455 686.633 752.455C680.414 752.455 675.359 757.509 675.359 763.728C675.359 769.946 680.414 775 686.633 775C692.852 775 697.906 769.946 697.906 763.728C697.906 769.946 697.906 757.509 697.906 763.728ZM678.006 763.728C678.006 758.965 681.869 755.101 686.633 755.101C691.396 755.101 695.26 758.965 695.26 763.728C695.26 768.491 691.396 772.354 686.633 772.354C681.869 772.354 678.006 768.491 678.006 763.728C678.006 768.491 678.006 758.965 678.006 763.728Z" fill="#007BA6"/>
<path d="M755.438 567.915L699.864 602.315L636.351 565.269V499.116" stroke="#007BA6" stroke-width="2" stroke-linecap="round" stroke-linejoin="round"/>
<path d="M626.404 499.116C626.404 493.612 630.85 489.167 636.354 489.167C641.859 489.167 646.305 493.612 646.305 499.116C646.305 504.62 641.859 509.065 636.354 509.065C630.85 509.065 626.404 504.62 626.404 499.116Z" fill="white"/>
<path d="M625.078 499.116C625.078 505.334 630.133 510.388 636.352 510.388C642.57 510.388 647.625 505.334 647.625 499.116C647.625 492.898 642.57 487.844 636.352 487.844C630.133 487.844 625.078 492.898 625.078 499.116C625.078 505.334 625.078 492.898 625.078 499.116ZM644.979 499.116C644.979 503.879 641.115 507.742 636.352 507.742C631.588 507.742 627.724 503.879 627.724 499.116C627.724 494.353 631.588 490.49 636.352 490.49C641.115 490.49 644.979 494.353 644.979 499.116C644.979 503.879 644.979 494.353 644.979 499.116Z" fill="#007BA6"/>
<path d="M705.156 493.824L604.595 554.684L498.74 496.47V374.749" stroke="#007BA6" stroke-width="2" stroke-linecap="round" stroke-linejoin="round"/>
<path d="M488.787 374.748C488.787 369.245 493.233 364.799 498.737 364.799C504.242 364.799 508.688 369.245 508.688 374.748C508.688 380.252 504.242 384.698 498.737 384.698C493.233 384.698 488.787 380.252 488.787 374.748Z" fill="white"/>
<path d="M487.469 374.749C487.469 380.967 492.523 386.021 498.742 386.021C504.961 386.021 510.016 380.967 510.016 374.749C510.016 368.53 504.961 363.476 498.742 363.476C492.523 363.476 487.469 368.53 487.469 374.749C487.469 380.967 487.469 368.53 487.469 374.749ZM507.369 374.749C507.369 379.512 503.506 383.375 498.742 383.375C493.979 383.375 490.115 379.512 490.115 374.749C490.115 369.986 493.979 366.122 498.742 366.122C503.506 366.122 507.369 369.986 507.369 374.749C507.369 379.512 507.369 369.986 507.369 374.749Z" fill="#007BA6"/>
<path d="M355.837 237.15C361.13 231.858 472.277 170.998 472.277 170.998L586.07 239.797V372.102" stroke="#007BA6" stroke-width="2" stroke-linecap="round" stroke-linejoin="round"/>
<path d="M586.073 382.052C580.578 382.052 576.123 377.597 576.123 372.102C576.123 366.607 580.578 362.153 586.073 362.153C591.569 362.153 596.023 366.607 596.023 372.102C596.023 377.597 591.569 382.052 586.073 382.052Z" fill="white"/>
<path d="M597.344 372.102C597.344 365.884 592.289 360.83 586.07 360.83C579.851 360.83 574.797 365.884 574.797 372.102C574.797 378.321 579.851 383.375 586.07 383.375C592.289 383.375 597.344 378.321 597.344 372.102C597.344 378.321 597.344 365.884 597.344 372.102ZM577.443 372.102C577.443 367.339 581.307 363.476 586.07 363.476C590.834 363.476 594.697 367.339 594.697 372.102C594.697 376.865 590.834 380.729 586.07 380.729C581.307 380.729 577.443 376.865 577.443 372.102C577.443 376.865 577.443 367.339 577.443 372.102Z" fill="#007BA6"/>
<path d="M824.242 372.102L726.327 425.025L636.351 372.102" stroke="#007BA6" stroke-width="2" stroke-linecap="round" stroke-linejoin="round"/>
<path d="M631.297 380.676C626.56 377.897 624.972 371.785 627.777 367.048C630.556 362.312 636.669 360.724 641.406 363.529C646.143 366.334 647.731 372.42 644.926 377.156C642.147 381.893 636.034 383.481 631.297 380.676Z" fill="white"/>
<path d="M630.637 381.813C635.983 384.962 642.916 383.163 646.066 377.818C649.215 372.473 647.415 365.54 642.07 362.391C636.724 359.242 629.791 361.041 626.641 366.387C623.492 371.732 625.292 378.665 630.637 381.813C625.292 378.665 635.983 384.962 630.637 381.813ZM640.72 364.667C644.822 367.075 646.198 372.367 643.79 376.468C641.382 380.57 636.089 381.946 631.987 379.538C627.885 377.13 626.509 371.838 628.917 367.736C631.325 363.635 636.618 362.259 640.72 364.667C636.618 362.259 644.822 367.075 640.72 364.667Z" fill="#007BA6"/>
<path d="M927.452 454.132V522.931L985.672 557.33" stroke="#007BA6" stroke-width="2" stroke-linecap="round" stroke-linejoin="round"/>
<path d="M990.722 548.757C995.459 551.562 997.021 557.648 994.215 562.385C991.41 567.121 985.324 568.682 980.587 565.877C975.85 563.073 974.288 556.986 977.094 552.25C979.899 547.513 985.985 545.952 990.722 548.757Z" fill="white"/>
<path d="M991.409 547.619C986.064 544.47 979.13 546.243 975.981 551.588C972.832 556.934 974.605 563.866 979.951 567.015C985.296 570.164 992.23 568.391 995.379 563.046C998.528 557.701 996.755 550.768 991.409 547.619C986.064 544.47 996.755 550.768 991.409 547.619ZM981.274 564.74C977.172 562.332 975.822 557.013 978.231 552.938C980.639 548.836 985.958 547.487 990.033 549.895C994.135 552.303 995.485 557.622 993.077 561.697C990.669 565.798 985.349 567.148 981.274 564.74C977.172 562.332 985.376 567.148 981.274 564.74Z" fill="#007BA6"/>
<path d="M686.628 446.194L750.141 480.593" stroke="#007BA6" stroke-width="2" stroke-linecap="round" stroke-linejoin="round"/>
<path d="M754.88 471.834C759.722 474.454 761.495 480.487 758.902 485.33C756.282 490.172 750.248 491.945 745.406 489.352C740.563 486.732 738.79 480.699 741.383 475.857C743.977 471.014 750.037 469.241 754.88 471.834Z" fill="white"/>
<path d="M755.513 470.67C750.062 467.707 743.181 469.744 740.244 475.222C737.306 480.699 739.317 487.552 744.795 490.49C750.273 493.453 757.127 491.416 760.065 485.938C763.002 480.461 760.991 473.607 755.513 470.67C750.062 467.707 760.991 473.634 755.513 470.67ZM746.039 488.161C741.858 485.885 740.296 480.646 742.572 476.465C744.848 472.284 750.088 470.723 754.269 472.999C758.45 475.274 760.012 480.514 757.736 484.695C755.46 488.876 750.22 490.437 746.039 488.161C741.858 485.885 750.22 490.437 746.039 488.161Z" fill="#007BA6"/>
<path d="M432.578 655.237V472.655L271.15 377.395L112.369 470.009V657.883" stroke="#007BA6" stroke-width="2" stroke-linecap="round" stroke-linejoin="round"/>
<path d="M112.37 667.832C106.875 667.832 102.42 663.378 102.42 657.883C102.42 652.388 106.875 647.933 112.37 647.933C117.865 647.933 122.32 652.388 122.32 657.883C122.32 663.378 117.865 667.832 112.37 667.832Z" fill="white"/>
<path d="M123.648 657.883C123.648 651.664 118.594 646.61 112.375 646.61C106.156 646.61 101.101 651.664 101.101 657.883C101.101 664.101 106.156 669.155 112.375 669.155C118.594 669.155 123.648 664.101 123.648 657.883C123.648 664.101 123.648 651.664 123.648 657.883ZM103.748 657.883C103.748 653.12 107.611 649.256 112.375 649.256C117.138 649.256 121.002 653.12 121.002 657.883C121.002 662.646 117.138 666.509 112.375 666.509C107.611 666.509 103.748 662.646 103.748 657.883C103.748 662.646 103.748 653.12 103.748 657.883Z" fill="#007BA6"/>
<path d="M305.555 594.376L38.2724 446.194" stroke="#007BA6" stroke-width="2" stroke-linecap="round" stroke-linejoin="round"/>
<path d="M33.4604 454.899C28.644 452.227 26.9239 446.167 29.5967 441.378C32.2695 436.562 38.3297 434.842 43.1196 437.488C47.9359 440.16 49.6561 446.22 46.9833 451.009C44.3105 455.825 38.2503 457.545 33.4604 454.899Z" fill="white"/>
<path d="M32.7979 456.064C38.2229 459.08 45.1035 457.096 48.1203 451.671C51.1372 446.247 49.1524 439.367 43.7273 436.35C38.3023 433.333 31.4218 435.318 28.4049 440.743C25.3881 446.167 27.3728 453.047 32.7979 456.064C27.3728 453.047 38.2229 459.08 32.7979 456.064ZM42.4571 438.652C46.6118 440.954 48.1203 446.22 45.818 450.374C43.5157 454.529 38.2494 456.037 34.0946 453.735C29.9399 451.433 28.4314 446.167 30.7337 442.013C33.036 437.858 38.3023 436.35 42.4571 438.652C38.3023 436.35 46.6118 440.954 42.4571 438.652Z" fill="#007BA6"/>
<path d="M461.688 276.842L332.016 202.751L199.698 279.488L197.052 432.963L329.37 512.347" stroke="#007BA6" stroke-width="2" stroke-linecap="round" stroke-linejoin="round"/>
<path d="M454.97 288.591C461.454 292.296 469.737 290.046 473.442 283.563C477.147 277.08 474.897 268.798 468.414 265.094C461.93 261.389 453.647 263.638 449.942 270.121C446.237 276.604 448.487 284.886 454.97 288.591Z" fill="white"/>
<path d="M454.095 290.152C446.765 285.971 444.198 276.578 448.379 269.248C452.56 261.918 461.955 259.351 469.285 263.532C476.616 267.713 479.183 277.107 475.001 284.437C470.82 291.766 461.425 294.333 454.095 290.152C446.765 285.971 461.425 294.333 454.095 290.152ZM467.512 266.655C461.902 263.453 454.704 265.411 451.502 271.021C448.3 276.63 450.258 283.828 455.868 287.03C461.478 290.232 468.677 288.273 471.879 282.664C475.081 277.054 473.122 269.856 467.512 266.655C461.902 263.453 473.122 269.856 467.512 266.655Z" fill="#007BA6"/>
<path d="M255.273 210.689V321.826L146.773 385.333L43.5647 327.118V202.751" stroke="#FED61A" stroke-width="2" stroke-linecap="round" stroke-linejoin="round"/>
<path d="M33.615 202.751C33.615 197.247 38.0609 192.802 43.5653 192.802C49.0697 192.802 53.5156 197.247 53.5156 202.751C53.5156 208.255 49.0697 212.7 43.5653 212.7C38.0609 212.7 33.615 208.255 33.615 202.751Z" fill="white"/>
<path d="M32.2889 202.751C32.2889 208.969 37.3435 214.023 43.5624 214.023C49.7814 214.023 54.8359 208.969 54.8359 202.751C54.8359 196.533 49.7814 191.479 43.5624 191.479C37.3435 191.479 32.2889 196.533 32.2889 202.751C32.2889 208.969 32.2889 196.533 32.2889 202.751ZM52.1896 202.751C52.1896 207.514 48.3259 211.377 43.5624 211.377C38.799 211.377 34.9353 207.514 34.9353 202.751C34.9353 197.988 38.799 194.125 43.5624 194.125C48.3259 194.125 52.1896 197.988 52.1896 202.751C52.1896 207.514 52.1896 197.988 52.1896 202.751Z" fill="#FED61A"/>
<path d="M220.871 374.748L329.372 311.242L435.227 374.748" stroke="#FFCF60" stroke-width="2" stroke-linecap="round" stroke-linejoin="round"/>
<path d="M440.337 366.228C445.048 369.059 446.583 375.172 443.751 379.882C440.92 384.592 434.806 386.127 430.096 383.295C425.385 380.464 423.851 374.352 426.682 369.641C429.514 364.931 435.627 363.397 440.337 366.228Z" fill="white"/>
<path d="M441.025 365.09C435.705 361.888 428.745 363.635 425.57 368.954C422.368 374.272 424.114 381.231 429.433 384.407C434.753 387.582 441.713 385.862 444.888 380.544C448.09 375.225 446.344 368.266 441.025 365.09C435.705 361.888 446.344 368.292 441.025 365.09ZM430.783 382.158C426.708 379.723 425.385 374.405 427.819 370.33C430.28 366.254 435.573 364.931 439.648 367.366C443.724 369.8 445.047 375.119 442.612 379.194C440.178 383.269 434.858 384.592 430.783 382.158C426.708 379.723 434.858 384.592 430.783 382.158Z" fill="#FFCF60"/>
<path d="M292.321 157.767L363.773 118.075L432.578 157.767V231.858" stroke="#007BA6" stroke-width="2" stroke-linecap="round" stroke-linejoin="round"/>
<path d="M432.581 241.807C427.086 241.807 422.631 237.353 422.631 231.858C422.631 226.363 427.086 221.909 432.581 221.909C438.076 221.909 442.531 226.363 442.531 231.858C442.531 237.353 438.076 241.807 432.581 241.807Z" fill="white"/>
<path d="M443.852 231.858C443.852 225.64 438.797 220.586 432.578 220.586C426.359 220.586 421.305 225.64 421.305 231.858C421.305 238.077 426.359 243.131 432.578 243.131C438.797 243.131 443.852 238.077 443.852 231.858C443.852 238.077 443.852 225.64 443.852 231.858ZM423.951 231.858C423.951 227.095 427.815 223.232 432.578 223.232C437.342 223.232 441.205 227.095 441.205 231.858C441.205 236.621 437.342 240.484 432.578 240.484C427.815 240.484 423.951 236.621 423.951 231.858C423.951 236.621 423.951 227.095 423.951 231.858Z" fill="#007BA6"/>
<path d="M109.727 284.78V210.689L43.5676 168.351" stroke="#007BA6" stroke-width="2" stroke-linecap="round" stroke-linejoin="round"/>
<path d="M38.1933 176.74C33.5622 173.776 32.2125 167.637 35.1764 163.006C38.1403 158.376 44.2799 157.026 48.911 159.99C53.5422 162.953 54.8918 169.092 51.9279 173.723C48.964 178.354 42.8244 179.703 38.1933 176.74Z" fill="white"/>
<path d="M37.4818 177.851C42.7216 181.212 49.7079 179.677 53.0423 174.438C56.3768 169.198 54.8684 162.212 49.6286 158.878C44.3888 155.518 37.4024 157.053 34.068 162.292C30.7336 167.531 32.242 174.517 37.4818 177.851C32.242 174.49 42.7216 181.212 37.4818 177.851ZM48.1995 161.101C52.1955 163.668 53.3864 169.013 50.8194 173.009C48.2524 177.004 42.9068 178.195 38.9108 175.628C34.9148 173.062 33.724 167.716 36.2909 163.721C38.8579 159.725 44.2035 158.534 48.1995 161.101C44.2035 158.534 52.1955 163.668 48.1995 161.101Z" fill="#007BA6"/>
<path d="M374.359 295.365L308.2 255.673" stroke="#007BA6" stroke-width="2" stroke-linecap="round" stroke-linejoin="round"/>
<path d="M303.096 264.194C298.385 261.362 296.85 255.25 299.682 250.54C302.514 245.83 308.627 244.295 313.337 247.126C318.048 249.958 319.583 256.07 316.751 260.78C313.92 265.49 307.806 267.025 303.096 264.194Z" fill="white"/>
<path d="M302.41 265.332C307.729 268.533 314.689 266.787 317.865 261.468C321.067 256.15 319.32 249.19 314.001 246.015C308.682 242.84 301.722 244.56 298.546 249.878C295.344 255.197 297.091 262.156 302.41 265.332C297.091 262.13 307.729 268.533 302.41 265.332ZM312.651 248.264C316.727 250.699 318.05 256.017 315.615 260.092C313.154 264.167 307.861 265.49 303.786 263.056C299.711 260.595 298.388 255.303 300.822 251.228C303.257 247.153 308.576 245.83 312.651 248.264C308.576 245.803 316.727 250.699 312.651 248.264Z" fill="#007BA6"/>
<path d="M578.133 131.306L347.9 1.646" stroke="#007BA6" stroke-width="2" stroke-linecap="round" stroke-linejoin="round"/>
<path d="M571.492 143.107C578.002 146.786 586.258 144.457 589.91 137.947C593.589 131.438 591.26 123.182 584.75 119.531C578.24 115.852 569.983 118.181 566.331 124.69C562.653 131.2 564.982 139.456 571.492 143.107Z" fill="white"/>
<path d="M570.615 144.669C563.258 140.514 560.638 131.147 564.793 123.791C568.948 116.435 578.316 113.815 585.672 117.969C593.029 122.124 595.649 131.491 591.494 138.847C587.34 146.204 577.972 148.823 570.615 144.669C563.258 140.514 577.972 148.823 570.615 144.669ZM583.899 121.092C578.263 117.917 571.091 119.928 567.915 125.564C564.74 131.2 566.751 138.371 572.388 141.546C578.025 144.722 585.196 142.711 588.372 137.074C591.547 131.438 589.536 124.267 583.899 121.092C578.263 117.917 589.536 124.267 583.899 121.092Z" fill="#007BA6"/>
<path fill-rule="evenodd" clip-rule="evenodd" d="M637.195 415.155L601.734 435.609V476.624L637.195 456.17V415.155Z" fill="#33BFF0" stroke="#007BA6" stroke-width="0.19" stroke-miterlimit="2.61"/>
<path fill-rule="evenodd" clip-rule="evenodd" d="M566.247 415.155L601.734 435.609V476.624L566.247 456.17V415.155Z" fill="#33BFF0" stroke="#007BA6" stroke-width="0.19" stroke-miterlimit="2.61"/>
<path fill-rule="evenodd" clip-rule="evenodd" d="M566.22 415.287L601.628 394.727L637.195 415.181L601.787 435.741L566.22 415.287Z" fill="#33BFF0" stroke="#007BA6" stroke-width="0.19" stroke-miterlimit="2.61"/>
<path fill-rule="evenodd" clip-rule="evenodd" d="M290.523 169.066L255.062 189.52V230.535L290.523 210.081V169.066Z" fill="#FFCC00" stroke="#007BA6" stroke-width="0.19" stroke-miterlimit="2.61"/>
<path fill-rule="evenodd" clip-rule="evenodd" d="M219.575 169.066L255.062 189.52V230.535L219.575 210.081V169.066Z" fill="#FFCC00" stroke="#007BA6" stroke-width="0.19" stroke-miterlimit="2.61"/>
<path fill-rule="evenodd" clip-rule="evenodd" d="M219.548 169.198L254.956 148.638L290.523 169.092L255.115 189.653L219.548 169.198Z" fill="#FFCC00" stroke="#007BA6" stroke-width="0.19" stroke-miterlimit="2.61"/>
</g>
<g clip-path="url(#clip0_2286_6)">
<path d="M287.055 784.431L368.633 826.724L449.049 786.487L387.402 673.757H346.356L287.055 784.431Z" fill="url(#paint0_linear_2286_6)"/>
<path d="M368.633 826.724V745.468L346.356 673.757L287.055 784.431L368.633 826.724Z" fill="#EDDECB"/>
<path d="M387.398 673.757L368.629 745.468L346.352 673.757H387.398Z" fill="#F5E8D6"/>
<path d="M113.891 681.536L164.768 656.769V619.505L113.891 644.295V681.536Z" fill="#CE7A4A"/>
<path d="M1.92549 675.009C3.91411 676.753 105.155 726.847 105.155 726.847L239.42 659.295L241.119 649.593L142 604.707L0.5625 664.972L1.90314 675.009H1.92549Z" fill="#676767"/>
<path d="M1.92188 665.107C3.9105 666.85 105.151 716.945 105.151 716.945L239.417 649.392L141.997 594.804L1.92188 665.107Z" fill="#818181" stroke="#818181" stroke-width="0.96" stroke-miterlimit="10"/>
<path d="M111.226 696.312V639.422L101.752 624.646L54.3829 600.862L36.7981 609.2L35.5469 658.557L111.226 696.312Z" fill="#FBB03C"/>
<path d="M188.944 658.467V601.577L179.47 586.801L132.101 563.017L114.493 571.355L113.242 620.712L188.944 658.467Z" fill="#FBB03C"/>
<path d="M111.227 696.312L188.939 658.467V601.577L111.227 639.422V696.312Z" fill="#CE7A4A"/>
<path d="M132.031 671.276L179.468 648.945V615.75L132.031 638.081V671.276Z" fill="#333333"/>
<path d="M101.758 624.646L179.47 586.801L188.944 601.577L111.232 639.422L101.758 624.646Z" fill="#EEA26E"/>
<path d="M54.3828 600.862L132.095 563.017L179.465 586.801L101.752 624.646L54.3828 600.862Z" fill="#DF8E55"/>
<path d="M157.366 593.239C157.366 593.239 157.366 593.172 157.366 593.128V591.093C157.366 591.093 156.695 591.227 155.623 591.451L118.621 572.115C117.169 571.355 114.822 571.355 113.37 572.115L76.2789 591.496L74.1562 590.959V593.441C74.1562 593.932 74.5361 594.402 75.2288 594.782L112.901 614.475C114.353 615.235 116.699 615.235 118.152 614.475L156.271 594.558C156.718 594.312 157.03 594.022 157.187 593.731C157.276 593.686 157.343 593.642 157.343 593.642V593.239H157.366Z" fill="#BF892C"/>
<path d="M156.294 592.345L118.175 612.262C116.723 613.022 114.377 613.022 112.924 612.262L75.2523 592.569C74.4703 592.166 74.1128 591.607 74.1798 591.093C74.2245 590.646 74.582 590.199 75.2523 589.842L113.371 569.924C114.824 569.164 117.17 569.164 118.622 569.924L156.294 589.618C157.747 590.378 157.747 591.607 156.294 592.368V592.345Z" fill="#E2AD4C"/>
<path d="M115.321 600.169C124.835 600.169 132.548 596.156 132.548 591.205C132.548 586.255 124.835 582.241 115.321 582.241C105.807 582.241 98.0938 586.255 98.0938 591.205C98.0938 596.156 105.807 600.169 115.321 600.169Z" fill="#99805C"/>
<path d="M115.321 597.732C124.835 597.732 132.548 593.719 132.548 588.769C132.548 583.818 124.835 579.805 115.321 579.805C105.807 579.805 98.0938 583.818 98.0938 588.769C98.0938 593.719 105.807 597.732 115.321 597.732Z" fill="#FFD28B"/>
<path d="M114.561 598.537C129.209 598.537 141.084 592.352 141.084 584.723C141.084 577.093 129.209 570.908 114.561 570.908C99.9135 570.908 88.0391 577.093 88.0391 584.723C88.0391 592.352 99.9135 598.537 114.561 598.537Z" fill="#99805C"/>
<path d="M114.561 594.759C129.209 594.759 141.084 588.574 141.084 580.945C141.084 573.315 129.209 567.13 114.561 567.13C99.9135 567.13 88.0391 573.315 88.0391 580.945C88.0391 588.574 99.9135 594.759 114.561 594.759Z" fill="#FFD28B"/>
<path d="M88.6641 564.939V580.721C88.7758 581.749 90.541 582.554 92.753 582.554C94.9651 582.554 96.7303 581.749 96.842 580.721V564.939H88.6641Z" fill="#B15933"/>
<path d="M94.3125 572.093V587.874C94.4242 588.903 96.1894 589.707 98.4015 589.707C100.614 589.707 102.379 588.903 102.49 587.874V572.093H94.3125Z" fill="#B15933"/>
<path d="M104.367 575.96V591.742C104.479 592.77 106.244 593.575 108.456 593.575C110.668 593.575 112.433 592.77 112.545 591.742V575.96H104.367Z" fill="#B15933"/>
<path d="M117.578 575.96V591.742C117.69 592.77 119.455 593.575 121.667 593.575C123.879 593.575 125.644 592.77 125.756 591.742V575.96H117.578Z" fill="#B15933"/>
<path d="M128.273 570.997V586.779C128.385 587.807 130.15 588.612 132.362 588.612C134.574 588.612 136.34 587.807 136.451 586.779V570.997H128.273Z" fill="#B15933"/>
<path d="M132.68 562.749V578.531C132.791 579.559 134.557 580.364 136.769 580.364C138.981 580.364 140.746 579.559 140.858 578.531V562.749H132.68Z" fill="#B15933"/>
<path d="M114.6 579.447C129.346 579.447 141.301 573.232 141.301 565.565C141.301 557.899 129.346 551.684 114.6 551.684C99.8529 551.684 87.8984 557.899 87.8984 565.565C87.8984 573.232 99.8529 579.447 114.6 579.447Z" fill="#99805C"/>
<path d="M114.6 575.647C129.346 575.647 141.301 569.432 141.301 561.765C141.301 554.099 129.346 547.884 114.6 547.884C99.8529 547.884 87.8984 554.099 87.8984 561.765C87.8984 569.432 99.8529 575.647 114.6 575.647Z" fill="#FFD28B"/>
<path d="M132.189 547.302H98.0469V560.67H132.189V547.302Z" fill="#99805C"/>
<path d="M115.069 569.634C124.521 569.634 132.184 565.651 132.184 560.737C132.184 555.823 124.521 551.84 115.069 551.84C105.616 551.84 97.9531 555.823 97.9531 560.737C97.9531 565.651 105.616 569.634 115.069 569.634Z" fill="#99805C"/>
<path d="M115.002 556.266C124.417 556.266 132.05 552.293 132.05 547.392C132.05 542.491 124.417 538.517 115.002 538.517C105.586 538.517 97.9531 542.491 97.9531 547.392C97.9531 552.293 105.586 556.266 115.002 556.266Z" fill="#FFD28B"/>
<path d="M79.1627 592.166C80.2363 592.166 81.1066 591.716 81.1066 591.16C81.1066 590.605 80.2363 590.155 79.1627 590.155C78.0891 590.155 77.2188 590.605 77.2188 591.16C77.2188 591.716 78.0891 592.166 79.1627 592.166Z" fill="#3E3E3E"/>
<path d="M115.631 610.876C116.705 610.876 117.575 610.426 117.575 609.87C117.575 609.315 116.705 608.865 115.631 608.865C114.558 608.865 113.688 609.315 113.688 609.87C113.688 610.426 114.558 610.876 115.631 610.876Z" fill="#3E3E3E"/>
<path d="M152.741 592.166C153.814 592.166 154.685 591.716 154.685 591.16C154.685 590.605 153.814 590.155 152.741 590.155C151.667 590.155 150.797 590.605 150.797 591.16C150.797 591.716 151.667 592.166 152.741 592.166Z" fill="#3E3E3E"/>
<path d="M149.014 542.005C149.014 542.005 149.014 541.937 149.014 541.915V540.283C149.014 540.283 148.477 540.395 147.606 540.574L117.62 524.904C116.458 524.3 114.537 524.3 113.375 524.904L83.3221 540.619L81.6016 540.172V542.183C81.6016 542.586 81.892 542.966 82.473 543.279L112.995 559.239C114.157 559.843 116.078 559.843 117.24 559.239L148.12 543.1C148.5 542.899 148.723 542.675 148.857 542.429C148.947 542.385 148.991 542.362 148.991 542.362V542.027L149.014 542.005Z" fill="#BF892C"/>
<path d="M148.14 541.289L117.26 557.429C116.099 558.032 114.177 558.032 113.015 557.429L82.4931 541.468C81.8674 541.133 81.577 540.686 81.6217 540.261C81.6663 539.881 81.9568 539.523 82.4931 539.255L113.373 523.116C114.534 522.512 116.456 522.512 117.618 523.116L148.14 539.076C149.302 539.68 149.302 540.686 148.14 541.289Z" fill="#E2AD4C"/>
<path d="M115.629 544.486C121.577 544.486 126.399 541.974 126.399 538.875C126.399 535.776 121.577 533.264 115.629 533.264C109.681 533.264 104.859 535.776 104.859 538.875C104.859 541.974 109.681 544.486 115.629 544.486Z" fill="#BF892C"/>
<path d="M115.629 546.006C121.577 546.006 126.399 543.494 126.399 540.395C126.399 537.296 121.577 534.784 115.629 534.784C109.681 534.784 104.859 537.296 104.859 540.395C104.859 543.494 109.681 546.006 115.629 546.006Z" fill="#282828"/>
<path d="M81.625 542.161L87.9037 565.565" stroke="#C59C6D" stroke-width="0.66" stroke-miterlimit="10"/>
<path d="M115.32 559.15V575.647" stroke="#C59C6D" stroke-width="0.66" stroke-miterlimit="10"/>
<path d="M148.144 541.289L140.078 565.923" stroke="#C59C6D" stroke-width="0.66" stroke-miterlimit="10"/>
<path d="M391.422 791.092L557.729 914.373L580.676 902.391L423.888 776.741L391.422 791.092Z" fill="#544842"/>
<mask id="mask0_2286_6" style="mask-type:luminance" maskUnits="userSpaceOnUse" x="398" y="774" width="190" height="138">
<path d="M398.172 788.365L564.479 911.646L587.426 899.664L428.537 774.64L398.172 788.365Z" fill="white"/>
</mask>
<g mask="url(#mask0_2286_6)">
<path d="M526.266 808.26L532.567 817.38L434.543 869.263L428.242 860.143L526.266 808.26Z" stroke="#333333" stroke-width="0.45" stroke-miterlimit="10"/>
<path d="M531.516 815.86L433.492 867.743" stroke="#333333" stroke-width="0.45" stroke-miterlimit="10"/>
<path d="M530.469 814.34L432.445 866.223" stroke="#333333" stroke-width="0.45" stroke-miterlimit="10"/>
<path d="M529.422 812.82L431.398 864.703" stroke="#333333" stroke-width="0.45" stroke-miterlimit="10"/>
<path d="M528.367 811.3L430.344 863.183" stroke="#333333" stroke-width="0.45" stroke-miterlimit="10"/>
<path d="M527.32 809.78L429.297 861.663" stroke="#333333" stroke-width="0.45" stroke-miterlimit="10"/>
<path d="M533.617 818.922L539.918 828.02L441.895 879.903L435.594 870.783L533.617 818.922Z" stroke="#333333" stroke-width="0.45" stroke-miterlimit="10"/>
<path d="M538.867 826.5L440.844 878.383" stroke="#333333" stroke-width="0.45" stroke-miterlimit="10"/>
<path d="M537.82 824.98L439.797 876.863" stroke="#333333" stroke-width="0.45" stroke-miterlimit="10"/>
<path d="M536.773 823.483L438.75 875.343" stroke="#333333" stroke-width="0.45" stroke-miterlimit="10"/>
<path d="M535.719 821.963L437.695 873.823" stroke="#333333" stroke-width="0.45" stroke-miterlimit="10"/>
<path d="M534.672 820.442L436.648 872.303" stroke="#333333" stroke-width="0.45" stroke-miterlimit="10"/>
<path d="M540.991 829.563L547.27 838.683L449.246 890.566L442.945 881.446L540.991 829.563Z" stroke="#333333" stroke-width="0.45" stroke-miterlimit="10"/>
<path d="M546.219 837.163L448.195 889.046" stroke="#333333" stroke-width="0.45" stroke-miterlimit="10"/>
<path d="M545.194 835.643L447.148 887.526" stroke="#333333" stroke-width="0.45" stroke-miterlimit="10"/>
<path d="M544.139 834.123L446.094 886.006" stroke="#333333" stroke-width="0.45" stroke-miterlimit="10"/>
<path d="M543.093 832.603L445.047 884.486" stroke="#333333" stroke-width="0.45" stroke-miterlimit="10"/>
<path d="M542.046 831.083L444 882.966" stroke="#333333" stroke-width="0.45" stroke-miterlimit="10"/>
<path d="M548.344 840.225L554.645 849.323L456.621 901.206L450.32 892.086L548.344 840.225Z" stroke="#333333" stroke-width="0.45" stroke-miterlimit="10"/>
<path d="M553.594 847.826L455.57 899.686" stroke="#333333" stroke-width="0.45" stroke-miterlimit="10"/>
<path d="M552.547 846.306L454.523 898.166" stroke="#333333" stroke-width="0.45" stroke-miterlimit="10"/>
<path d="M551.492 844.786L453.469 896.646" stroke="#333333" stroke-width="0.45" stroke-miterlimit="10"/>
<path d="M550.445 843.266L452.422 895.126" stroke="#333333" stroke-width="0.45" stroke-miterlimit="10"/>
<path d="M549.391 841.746L451.367 893.606" stroke="#333333" stroke-width="0.45" stroke-miterlimit="10"/>
<path d="M555.648 850.799L561.949 859.919L463.926 911.802L457.625 902.682L555.648 850.799Z" stroke="#333333" stroke-width="0.45" stroke-miterlimit="10"/>
<path d="M560.898 858.399L462.875 910.282" stroke="#333333" stroke-width="0.45" stroke-miterlimit="10"/>
<path d="M559.851 856.879L461.828 908.762" stroke="#333333" stroke-width="0.45" stroke-miterlimit="10"/>
<path d="M558.805 855.359L460.781 907.242" stroke="#333333" stroke-width="0.45" stroke-miterlimit="10"/>
<path d="M557.75 853.839L459.727 905.722" stroke="#333333" stroke-width="0.45" stroke-miterlimit="10"/>
<path d="M556.703 852.319L458.68 904.202" stroke="#333333" stroke-width="0.45" stroke-miterlimit="10"/>
<path d="M563.023 861.462L569.324 870.582L471.301 922.465L465 913.345L563.023 861.462Z" stroke="#333333" stroke-width="0.45" stroke-miterlimit="10"/>
<path d="M568.273 869.062L470.25 920.945" stroke="#333333" stroke-width="0.45" stroke-miterlimit="10"/>
<path d="M567.226 867.542L469.203 919.425" stroke="#333333" stroke-width="0.45" stroke-miterlimit="10"/>
<path d="M566.172 866.022L468.148 917.905" stroke="#333333" stroke-width="0.45" stroke-miterlimit="10"/>
<path d="M565.125 864.502L467.102 916.385" stroke="#333333" stroke-width="0.45" stroke-miterlimit="10"/>
<path d="M564.078 862.982L466.055 914.865" stroke="#333333" stroke-width="0.45" stroke-miterlimit="10"/>
<path d="M570.375 872.102L576.676 881.222L478.653 933.105L472.352 923.985L570.375 872.102Z" stroke="#333333" stroke-width="0.45" stroke-miterlimit="10"/>
<path d="M575.625 879.702L477.602 931.585" stroke="#333333" stroke-width="0.45" stroke-miterlimit="10"/>
<path d="M574.578 878.182L476.555 930.065" stroke="#333333" stroke-width="0.45" stroke-miterlimit="10"/>
<path d="M573.523 876.662L475.5 928.545" stroke="#333333" stroke-width="0.45" stroke-miterlimit="10"/>
<path d="M572.476 875.142L474.453 927.025" stroke="#333333" stroke-width="0.45" stroke-miterlimit="10"/>
<path d="M571.422 873.622L473.398 925.505" stroke="#333333" stroke-width="0.45" stroke-miterlimit="10"/>
<path d="M577.749 882.765L584.028 891.885L486.004 943.768L479.703 934.648L577.749 882.765Z" stroke="#333333" stroke-width="0.45" stroke-miterlimit="10"/>
<path d="M582.977 890.365L484.953 942.248" stroke="#333333" stroke-width="0.45" stroke-miterlimit="10"/>
<path d="M581.93 888.845L483.906 940.728" stroke="#333333" stroke-width="0.45" stroke-miterlimit="10"/>
<path d="M580.875 887.325L482.852 939.208" stroke="#333333" stroke-width="0.45" stroke-miterlimit="10"/>
<path d="M579.828 885.805L481.805 937.688" stroke="#333333" stroke-width="0.45" stroke-miterlimit="10"/>
<path d="M578.773 884.285L480.75 936.168" stroke="#333333" stroke-width="0.45" stroke-miterlimit="10"/>
<path d="M467.57 723.316L473.871 732.436L375.848 784.319L369.547 775.199L467.57 723.316Z" stroke="#333333" stroke-width="0.45" stroke-miterlimit="10"/>
<path d="M472.82 730.916L374.797 782.799" stroke="#333333" stroke-width="0.45" stroke-miterlimit="10"/>
<path d="M471.773 729.396L373.75 781.279" stroke="#333333" stroke-width="0.45" stroke-miterlimit="10"/>
<path d="M470.719 727.876L372.695 779.759" stroke="#333333" stroke-width="0.45" stroke-miterlimit="10"/>
<path d="M469.672 726.356L371.648 778.239" stroke="#333333" stroke-width="0.45" stroke-miterlimit="10"/>
<path d="M468.617 724.836L370.594 776.719" stroke="#333333" stroke-width="0.45" stroke-miterlimit="10"/>
<path d="M474.945 733.978L481.246 743.076L383.201 794.959L376.922 785.839L474.945 733.978Z" stroke="#333333" stroke-width="0.45" stroke-miterlimit="10"/>
<path d="M480.194 741.556L382.148 793.439" stroke="#333333" stroke-width="0.45" stroke-miterlimit="10"/>
<path d="M479.147 740.036L381.102 791.919" stroke="#333333" stroke-width="0.45" stroke-miterlimit="10"/>
<path d="M478.094 738.516L380.07 790.399" stroke="#333333" stroke-width="0.45" stroke-miterlimit="10"/>
<path d="M477.047 736.996L379.023 788.879" stroke="#333333" stroke-width="0.45" stroke-miterlimit="10"/>
<path d="M475.992 735.476L377.969 787.359" stroke="#333333" stroke-width="0.45" stroke-miterlimit="10"/>
<path d="M482.297 744.619L488.598 753.739L390.574 805.622L384.273 796.502L482.297 744.619Z" stroke="#333333" stroke-width="0.45" stroke-miterlimit="10"/>
<path d="M487.547 752.219L389.523 804.102" stroke="#333333" stroke-width="0.45" stroke-miterlimit="10"/>
<path d="M486.492 750.699L388.469 802.582" stroke="#333333" stroke-width="0.45" stroke-miterlimit="10"/>
<path d="M485.445 749.179L387.422 801.062" stroke="#333333" stroke-width="0.45" stroke-miterlimit="10"/>
<path d="M484.398 747.659L386.375 799.542" stroke="#333333" stroke-width="0.45" stroke-miterlimit="10"/>
<path d="M483.344 746.139L385.32 798.022" stroke="#333333" stroke-width="0.45" stroke-miterlimit="10"/>
<path d="M489.648 755.281L495.949 764.379L397.926 816.262L391.625 807.142L489.648 755.281Z" stroke="#333333" stroke-width="0.45" stroke-miterlimit="10"/>
<path d="M494.898 762.859L396.875 814.742" stroke="#333333" stroke-width="0.45" stroke-miterlimit="10"/>
<path d="M493.844 761.339L395.82 813.222" stroke="#333333" stroke-width="0.45" stroke-miterlimit="10"/>
<path d="M492.797 759.819L394.773 811.702" stroke="#333333" stroke-width="0.45" stroke-miterlimit="10"/>
<path d="M491.75 758.299L393.727 810.182" stroke="#333333" stroke-width="0.45" stroke-miterlimit="10"/>
<path d="M490.695 756.801L392.672 808.662" stroke="#333333" stroke-width="0.45" stroke-miterlimit="10"/>
<path d="M496.976 765.855L503.278 774.975L405.254 826.858L398.953 817.738L496.976 765.855Z" stroke="#333333" stroke-width="0.45" stroke-miterlimit="10"/>
<path d="M502.227 773.455L404.203 825.338" stroke="#333333" stroke-width="0.45" stroke-miterlimit="10"/>
<path d="M501.172 771.935L403.148 823.818" stroke="#333333" stroke-width="0.45" stroke-miterlimit="10"/>
<path d="M500.125 770.415L402.102 822.298" stroke="#333333" stroke-width="0.45" stroke-miterlimit="10"/>
<path d="M499.078 768.895L401.055 820.778" stroke="#333333" stroke-width="0.45" stroke-miterlimit="10"/>
<path d="M498.023 767.375L400 819.258" stroke="#333333" stroke-width="0.45" stroke-miterlimit="10"/>
<path d="M504.328 776.517L510.629 785.638L412.606 837.521L406.305 828.4L504.328 776.517Z" stroke="#333333" stroke-width="0.45" stroke-miterlimit="10"/>
<path d="M509.578 784.118L411.555 836.001" stroke="#333333" stroke-width="0.45" stroke-miterlimit="10"/>
<path d="M508.523 782.598L410.5 834.481" stroke="#333333" stroke-width="0.45" stroke-miterlimit="10"/>
<path d="M507.476 781.078L409.453 832.96" stroke="#333333" stroke-width="0.45" stroke-miterlimit="10"/>
<path d="M506.43 779.557L408.406 831.44" stroke="#333333" stroke-width="0.45" stroke-miterlimit="10"/>
<path d="M505.375 778.037L407.352 829.92" stroke="#333333" stroke-width="0.45" stroke-miterlimit="10"/>
<path d="M511.702 787.158L517.981 796.278L419.957 848.161L413.656 839.041L511.702 787.158Z" stroke="#333333" stroke-width="0.45" stroke-miterlimit="10"/>
<path d="M516.952 794.758L418.906 846.641" stroke="#333333" stroke-width="0.45" stroke-miterlimit="10"/>
<path d="M515.897 793.238L417.852 845.121" stroke="#333333" stroke-width="0.45" stroke-miterlimit="10"/>
<path d="M514.85 791.718L416.805 843.601" stroke="#333333" stroke-width="0.45" stroke-miterlimit="10"/>
<path d="M513.804 790.198L415.758 842.081" stroke="#333333" stroke-width="0.45" stroke-miterlimit="10"/>
<path d="M512.749 788.678L414.703 840.561" stroke="#333333" stroke-width="0.45" stroke-miterlimit="10"/>
<path d="M519.055 797.82L525.356 806.941L427.332 858.824L421.031 849.703L519.055 797.82Z" stroke="#333333" stroke-width="0.45" stroke-miterlimit="10"/>
<path d="M524.305 805.421L426.281 857.304" stroke="#333333" stroke-width="0.45" stroke-miterlimit="10"/>
<path d="M523.25 803.901L425.227 855.784" stroke="#333333" stroke-width="0.45" stroke-miterlimit="10"/>
<path d="M522.203 802.381L424.18 854.264" stroke="#333333" stroke-width="0.45" stroke-miterlimit="10"/>
<path d="M521.148 800.861L423.125 852.744" stroke="#333333" stroke-width="0.45" stroke-miterlimit="10"/>
<path d="M520.102 799.341L422.078 851.224" stroke="#333333" stroke-width="0.45" stroke-miterlimit="10"/>
</g>
<path d="M408.141 798.793C408.372 797.96 407.7 797.048 406.642 796.754C405.584 796.461 404.539 796.898 404.308 797.731C404.078 798.564 404.749 799.477 405.807 799.77C406.866 800.064 407.911 799.626 408.141 798.793Z" fill="#6E5D59"/>
<path d="M423.047 809.78C423.278 808.948 422.607 808.035 421.548 807.741C420.49 807.448 419.445 807.886 419.214 808.718C418.984 809.551 419.655 810.464 420.713 810.757C421.772 811.051 422.817 810.613 423.047 809.78Z" fill="#6E5D59"/>
<path d="M436.657 819.81C436.887 818.977 436.216 818.064 435.158 817.771C434.099 817.478 433.054 817.915 432.824 818.748C432.593 819.581 433.264 820.494 434.323 820.787C435.381 821.08 436.426 820.643 436.657 819.81Z" fill="#6E5D59"/>
<path d="M450.954 830.428C451.184 829.595 450.513 828.682 449.455 828.389C448.396 828.095 447.351 828.533 447.121 829.366C446.89 830.199 447.561 831.111 448.62 831.405C449.678 831.698 450.723 831.261 450.954 830.428Z" fill="#6E5D59"/>
<path d="M465.883 841.598C466.114 840.765 465.443 839.852 464.384 839.559C463.326 839.266 462.281 839.703 462.05 840.536C461.82 841.369 462.491 842.282 463.549 842.575C464.608 842.868 465.653 842.431 465.883 841.598Z" fill="#6E5D59"/>
<path d="M482.438 853.88C482.668 853.047 481.997 852.134 480.939 851.841C479.88 851.547 478.836 851.985 478.605 852.818C478.374 853.651 479.046 854.563 480.104 854.857C481.162 855.15 482.207 854.712 482.438 853.88Z" fill="#6E5D59"/>
<path d="M496.735 864.498C496.965 863.665 496.294 862.752 495.236 862.459C494.177 862.165 493.132 862.603 492.902 863.436C492.671 864.268 493.342 865.181 494.401 865.475C495.459 865.768 496.504 865.33 496.735 864.498Z" fill="#6E5D59"/>
<path d="M511.711 875.674C511.942 874.841 511.271 873.928 510.212 873.635C509.154 873.342 508.109 873.779 507.878 874.612C507.648 875.445 508.319 876.358 509.377 876.651C510.436 876.944 511.481 876.507 511.711 875.674Z" fill="#6E5D59"/>
<path d="M530 889.385C530.231 888.552 529.56 887.639 528.501 887.346C527.443 887.053 526.398 887.49 526.167 888.323C525.937 889.156 526.608 890.069 527.666 890.362C528.725 890.655 529.77 890.218 530 889.385Z" fill="#6E5D59"/>
<path d="M130.086 656.433L338.779 674.808L379.468 655.986L178.528 635.845L130.086 656.433Z" fill="#544842"/>
<mask id="mask1_2286_6" style="mask-type:luminance" maskUnits="userSpaceOnUse" x="131" y="634" width="254" height="36">
<path d="M131.828 650.666L351.537 669.063L384.316 652.968L177.209 634.124L131.828 650.666Z" fill="white"/>
</mask>
<g mask="url(#mask1_2286_6)">
<path d="M282.566 606.383L293.648 610.765L246.458 702.124L235.375 697.743L282.566 606.383Z" stroke="#333333" stroke-width="0.45" stroke-miterlimit="10"/>
<path d="M291.793 610.027L244.625 701.386" stroke="#333333" stroke-width="0.45" stroke-miterlimit="10"/>
<path d="M289.934 609.289L242.766 700.671" stroke="#333333" stroke-width="0.45" stroke-miterlimit="10"/>
<path d="M288.105 608.574L240.914 699.933" stroke="#333333" stroke-width="0.45" stroke-miterlimit="10"/>
<path d="M286.245 607.836L239.055 699.196" stroke="#333333" stroke-width="0.45" stroke-miterlimit="10"/>
<path d="M284.395 607.099L237.227 698.458" stroke="#333333" stroke-width="0.45" stroke-miterlimit="10"/>
<path d="M295.519 611.502L306.601 615.884L259.411 707.243L248.328 702.862L295.519 611.502Z" stroke="#333333" stroke-width="0.45" stroke-miterlimit="10"/>
<path d="M304.746 615.168L257.578 706.528" stroke="#333333" stroke-width="0.45" stroke-miterlimit="10"/>
<path d="M302.917 614.431L255.727 705.79" stroke="#333333" stroke-width="0.45" stroke-miterlimit="10"/>
<path d="M301.066 613.693L253.875 705.053" stroke="#333333" stroke-width="0.45" stroke-miterlimit="10"/>
<path d="M299.207 612.955L252.039 704.315" stroke="#333333" stroke-width="0.45" stroke-miterlimit="10"/>
<path d="M297.356 612.24L250.188 703.6" stroke="#333333" stroke-width="0.45" stroke-miterlimit="10"/>
<path d="M308.48 616.621L319.562 621.025L272.394 712.385L261.289 707.981L308.48 616.621Z" stroke="#333333" stroke-width="0.45" stroke-miterlimit="10"/>
<path d="M317.707 620.287L270.539 711.647" stroke="#333333" stroke-width="0.45" stroke-miterlimit="10"/>
<path d="M315.878 619.55L268.688 710.909" stroke="#333333" stroke-width="0.45" stroke-miterlimit="10"/>
<path d="M314.019 618.812L266.828 710.194" stroke="#333333" stroke-width="0.45" stroke-miterlimit="10"/>
<path d="M312.168 618.097L265 709.456" stroke="#333333" stroke-width="0.45" stroke-miterlimit="10"/>
<path d="M310.317 617.359L263.148 708.719" stroke="#333333" stroke-width="0.45" stroke-miterlimit="10"/>
<path d="M321.441 621.763L332.523 626.144L285.355 717.504L274.25 713.122L321.441 621.763Z" stroke="#333333" stroke-width="0.45" stroke-miterlimit="10"/>
<path d="M330.668 625.406L283.5 716.766" stroke="#333333" stroke-width="0.45" stroke-miterlimit="10"/>
<path d="M328.839 624.691L281.648 716.051" stroke="#333333" stroke-width="0.45" stroke-miterlimit="10"/>
<path d="M326.98 623.953L279.789 715.313" stroke="#333333" stroke-width="0.45" stroke-miterlimit="10"/>
<path d="M325.129 623.216L277.961 714.575" stroke="#333333" stroke-width="0.45" stroke-miterlimit="10"/>
<path d="M323.27 622.478L276.102 713.838" stroke="#333333" stroke-width="0.45" stroke-miterlimit="10"/>
<path d="M334.309 626.859L345.414 631.241L298.223 722.6L287.141 718.219L334.309 626.859Z" stroke="#333333" stroke-width="0.45" stroke-miterlimit="10"/>
<path d="M343.559 630.503L296.391 721.863" stroke="#333333" stroke-width="0.45" stroke-miterlimit="10"/>
<path d="M341.707 629.788L294.539 721.147" stroke="#333333" stroke-width="0.45" stroke-miterlimit="10"/>
<path d="M339.878 629.05L292.688 720.41" stroke="#333333" stroke-width="0.45" stroke-miterlimit="10"/>
<path d="M338.019 628.312L290.828 719.672" stroke="#333333" stroke-width="0.45" stroke-miterlimit="10"/>
<path d="M336.168 627.575L289 718.957" stroke="#333333" stroke-width="0.45" stroke-miterlimit="10"/>
<path d="M347.27 631.978L358.375 636.36L311.184 727.719L300.102 723.338L347.27 631.978Z" stroke="#333333" stroke-width="0.45" stroke-miterlimit="10"/>
<path d="M356.52 635.644L309.352 727.004" stroke="#333333" stroke-width="0.45" stroke-miterlimit="10"/>
<path d="M354.668 634.907L307.5 726.266" stroke="#333333" stroke-width="0.45" stroke-miterlimit="10"/>
<path d="M352.831 634.169L305.641 725.529" stroke="#333333" stroke-width="0.45" stroke-miterlimit="10"/>
<path d="M350.98 633.431L303.789 724.813" stroke="#333333" stroke-width="0.45" stroke-miterlimit="10"/>
<path d="M349.121 632.716L301.953 724.076" stroke="#333333" stroke-width="0.45" stroke-miterlimit="10"/>
<path d="M360.231 637.097L371.336 641.501L324.145 732.861L313.062 728.457L360.231 637.097Z" stroke="#333333" stroke-width="0.45" stroke-miterlimit="10"/>
<path d="M369.481 640.763L322.312 732.123" stroke="#333333" stroke-width="0.45" stroke-miterlimit="10"/>
<path d="M367.629 640.026L320.461 731.385" stroke="#333333" stroke-width="0.45" stroke-miterlimit="10"/>
<path d="M365.792 639.31L318.602 730.67" stroke="#333333" stroke-width="0.45" stroke-miterlimit="10"/>
<path d="M363.941 638.573L316.75 729.932" stroke="#333333" stroke-width="0.45" stroke-miterlimit="10"/>
<path d="M362.082 637.835L314.914 729.195" stroke="#333333" stroke-width="0.45" stroke-miterlimit="10"/>
<path d="M373.192 642.239L384.297 646.62L337.106 737.98L326.023 733.598L373.192 642.239Z" stroke="#333333" stroke-width="0.45" stroke-miterlimit="10"/>
<path d="M382.442 645.882L335.273 737.242" stroke="#333333" stroke-width="0.45" stroke-miterlimit="10"/>
<path d="M380.582 645.167L333.414 736.527" stroke="#333333" stroke-width="0.45" stroke-miterlimit="10"/>
<path d="M378.753 644.429L331.562 735.789" stroke="#333333" stroke-width="0.45" stroke-miterlimit="10"/>
<path d="M376.902 643.692L329.711 735.051" stroke="#333333" stroke-width="0.45" stroke-miterlimit="10"/>
<path d="M375.043 642.954L327.875 734.336" stroke="#333333" stroke-width="0.45" stroke-miterlimit="10"/>
<path d="M179.198 565.498L190.281 569.88L143.113 661.239L132.008 656.858L179.198 565.498Z" stroke="#333333" stroke-width="0.45" stroke-miterlimit="10"/>
<path d="M188.448 569.142L141.258 660.502" stroke="#333333" stroke-width="0.45" stroke-miterlimit="10"/>
<path d="M186.597 568.427L139.406 659.786" stroke="#333333" stroke-width="0.45" stroke-miterlimit="10"/>
<path d="M184.739 567.689L137.57 659.049" stroke="#333333" stroke-width="0.45" stroke-miterlimit="10"/>
<path d="M182.887 566.951L135.719 658.311" stroke="#333333" stroke-width="0.45" stroke-miterlimit="10"/>
<path d="M181.05 566.214L133.859 657.573" stroke="#333333" stroke-width="0.45" stroke-miterlimit="10"/>
<path d="M192.159 570.617L203.242 574.999L156.074 666.358L144.969 661.977L192.159 570.617Z" stroke="#333333" stroke-width="0.45" stroke-miterlimit="10"/>
<path d="M201.409 574.283L154.219 665.643" stroke="#333333" stroke-width="0.45" stroke-miterlimit="10"/>
<path d="M199.55 573.546L152.359 664.905" stroke="#333333" stroke-width="0.45" stroke-miterlimit="10"/>
<path d="M197.7 572.808L150.531 664.168" stroke="#333333" stroke-width="0.45" stroke-miterlimit="10"/>
<path d="M195.848 572.07L148.68 663.452" stroke="#333333" stroke-width="0.45" stroke-miterlimit="10"/>
<path d="M194.011 571.355L146.82 662.715" stroke="#333333" stroke-width="0.45" stroke-miterlimit="10"/>
<path d="M205.12 575.736L216.203 580.14L169.035 671.5L157.93 667.096L205.12 575.736Z" stroke="#333333" stroke-width="0.45" stroke-miterlimit="10"/>
<path d="M214.37 579.402L167.18 670.762" stroke="#333333" stroke-width="0.45" stroke-miterlimit="10"/>
<path d="M212.511 578.665L165.32 670.024" stroke="#333333" stroke-width="0.45" stroke-miterlimit="10"/>
<path d="M210.66 577.927L163.492 669.309" stroke="#333333" stroke-width="0.45" stroke-miterlimit="10"/>
<path d="M208.801 577.212L161.633 668.571" stroke="#333333" stroke-width="0.45" stroke-miterlimit="10"/>
<path d="M206.972 576.474L159.781 667.834" stroke="#333333" stroke-width="0.45" stroke-miterlimit="10"/>
<path d="M218.075 580.878L229.157 585.259L181.989 676.619L170.906 672.237L218.075 580.878Z" stroke="#333333" stroke-width="0.45" stroke-miterlimit="10"/>
<path d="M227.331 584.521L180.141 675.881" stroke="#333333" stroke-width="0.45" stroke-miterlimit="10"/>
<path d="M225.473 583.806L178.305 675.166" stroke="#333333" stroke-width="0.45" stroke-miterlimit="10"/>
<path d="M223.621 583.068L176.453 674.428" stroke="#333333" stroke-width="0.45" stroke-miterlimit="10"/>
<path d="M221.784 582.331L174.594 673.69" stroke="#333333" stroke-width="0.45" stroke-miterlimit="10"/>
<path d="M219.933 581.593L172.742 672.953" stroke="#333333" stroke-width="0.45" stroke-miterlimit="10"/>
<path d="M230.972 585.974L242.055 590.356L194.886 681.715L183.781 677.334L230.972 585.974Z" stroke="#333333" stroke-width="0.45" stroke-miterlimit="10"/>
<path d="M240.2 589.618L193.031 680.978" stroke="#333333" stroke-width="0.45" stroke-miterlimit="10"/>
<path d="M238.363 588.903L191.172 680.262" stroke="#333333" stroke-width="0.45" stroke-miterlimit="10"/>
<path d="M236.512 588.165L189.344 679.525" stroke="#333333" stroke-width="0.45" stroke-miterlimit="10"/>
<path d="M234.653 587.427L187.484 678.787" stroke="#333333" stroke-width="0.45" stroke-miterlimit="10"/>
<path d="M232.823 586.69L185.633 678.072" stroke="#333333" stroke-width="0.45" stroke-miterlimit="10"/>
<path d="M243.933 591.093L255.015 595.475L207.847 686.834L196.742 682.453L243.933 591.093Z" stroke="#333333" stroke-width="0.45" stroke-miterlimit="10"/>
<path d="M253.183 594.759L205.992 686.119" stroke="#333333" stroke-width="0.45" stroke-miterlimit="10"/>
<path d="M251.323 594.022L204.133 685.381" stroke="#333333" stroke-width="0.45" stroke-miterlimit="10"/>
<path d="M249.473 593.284L202.305 684.644" stroke="#333333" stroke-width="0.45" stroke-miterlimit="10"/>
<path d="M247.614 592.569L200.445 683.928" stroke="#333333" stroke-width="0.45" stroke-miterlimit="10"/>
<path d="M245.784 591.831L198.594 683.191" stroke="#333333" stroke-width="0.45" stroke-miterlimit="10"/>
<path d="M256.886 596.212L267.969 600.616L220.8 691.976L209.695 687.594L256.886 596.212Z" stroke="#333333" stroke-width="0.45" stroke-miterlimit="10"/>
<path d="M266.136 599.878L218.945 691.238" stroke="#333333" stroke-width="0.45" stroke-miterlimit="10"/>
<path d="M264.284 599.141L217.094 690.5" stroke="#333333" stroke-width="0.45" stroke-miterlimit="10"/>
<path d="M262.434 598.425L215.266 689.785" stroke="#333333" stroke-width="0.45" stroke-miterlimit="10"/>
<path d="M260.575 597.688L213.406 689.047" stroke="#333333" stroke-width="0.45" stroke-miterlimit="10"/>
<path d="M258.745 596.95L211.555 688.31" stroke="#333333" stroke-width="0.45" stroke-miterlimit="10"/>
<path d="M269.847 601.354L280.93 605.735L233.761 697.095L222.656 692.713L269.847 601.354Z" stroke="#333333" stroke-width="0.45" stroke-miterlimit="10"/>
<path d="M279.097 604.997L231.906 696.357" stroke="#333333" stroke-width="0.45" stroke-miterlimit="10"/>
<path d="M277.245 604.282L230.055 695.642" stroke="#333333" stroke-width="0.45" stroke-miterlimit="10"/>
<path d="M275.387 603.544L228.219 694.904" stroke="#333333" stroke-width="0.45" stroke-miterlimit="10"/>
<path d="M273.535 602.807L226.367 694.166" stroke="#333333" stroke-width="0.45" stroke-miterlimit="10"/>
<path d="M271.706 602.069L224.516 693.451" stroke="#333333" stroke-width="0.45" stroke-miterlimit="10"/>
</g>
<path d="M177.275 659.217C178.384 659.172 179.256 658.445 179.222 657.594C179.187 656.743 178.26 656.089 177.15 656.134C176.04 656.179 175.169 656.906 175.203 657.757C175.238 658.608 176.165 659.262 177.275 659.217Z" fill="#6E5D59"/>
<path d="M196.658 660.912C197.767 660.867 198.639 660.141 198.604 659.289C198.57 658.438 197.642 657.785 196.533 657.83C195.423 657.875 194.551 658.601 194.586 659.452C194.62 660.303 195.548 660.957 196.658 660.912Z" fill="#6E5D59"/>
<path d="M214.376 662.406C215.486 662.361 216.358 661.635 216.323 660.784C216.289 659.932 215.361 659.279 214.252 659.324C213.142 659.369 212.27 660.095 212.305 660.946C212.339 661.798 213.267 662.451 214.376 662.406Z" fill="#6E5D59"/>
<path d="M233.017 664.063C234.127 664.018 234.998 663.292 234.964 662.441C234.929 661.59 234.002 660.936 232.892 660.981C231.782 661.026 230.911 661.753 230.945 662.604C230.98 663.455 231.907 664.108 233.017 664.063Z" fill="#6E5D59"/>
<path d="M252.579 665.863C253.689 665.818 254.561 665.092 254.526 664.241C254.492 663.389 253.564 662.736 252.455 662.781C251.345 662.826 250.473 663.552 250.508 664.403C250.542 665.255 251.47 665.908 252.579 665.863Z" fill="#6E5D59"/>
<path d="M274.158 667.737C275.267 667.692 276.139 666.966 276.104 666.114C276.07 665.263 275.142 664.61 274.033 664.655C272.923 664.7 272.051 665.426 272.086 666.277C272.12 667.129 273.048 667.782 274.158 667.737Z" fill="#6E5D59"/>
<path d="M292.822 669.417C293.931 669.372 294.803 668.645 294.769 667.794C294.734 666.943 293.807 666.289 292.697 666.334C291.587 666.379 290.715 667.106 290.75 667.957C290.784 668.808 291.712 669.462 292.822 669.417Z" fill="#6E5D59"/>
<path d="M312.361 671.216C313.47 671.171 314.342 670.445 314.308 669.594C314.273 668.743 313.346 668.089 312.236 668.134C311.126 668.179 310.255 668.906 310.289 669.757C310.323 670.608 311.251 671.261 312.361 671.216Z" fill="#6E5D59"/>
<path d="M336.337 673.418C337.447 673.373 338.319 672.646 338.284 671.795C338.25 670.944 337.322 670.291 336.212 670.336C335.103 670.381 334.231 671.107 334.266 671.958C334.3 672.809 335.228 673.463 336.337 673.418Z" fill="#6E5D59"/>
<path d="M408.183 901.162C410.172 902.905 511.413 953 511.413 953L645.678 885.447L647.376 875.746L548.258 830.859L406.82 891.103L408.161 901.139L408.183 901.162Z" fill="#676767"/>
<path d="M408.18 891.259C410.168 893.003 511.409 943.097 511.409 943.097L645.675 875.544L548.255 820.957L408.18 891.237V891.259Z" fill="#818181" stroke="#818181" stroke-width="0.96" stroke-miterlimit="10"/>
<path d="M517.514 922.465V865.575L508.04 850.799L460.671 827.014L443.064 835.352L441.812 884.709L517.514 922.465Z" fill="#FBB03C"/>
<path d="M595.202 884.62V827.73L585.728 812.954L538.358 789.17L520.774 797.508L519.5 846.865L595.202 884.62Z" fill="#FBB03C"/>
<path d="M517.508 922.465L595.198 884.62V827.73L517.508 865.575V922.465Z" fill="#CE7A4A"/>
<path d="M508.039 850.799L585.729 812.954L595.203 827.73L517.513 865.575L508.039 850.799Z" fill="#EEA26E"/>
<path d="M460.664 827.014L538.354 789.17L585.724 812.954L508.033 850.799L460.664 827.014Z" fill="#DF8E55"/>
</g>
<defs>
<linearGradient id="paint0_linear_2286_6" x1="287.055" y1="750.252" x2="449.049" y2="750.252" gradientUnits="userSpaceOnUse">
<stop stop-color="#B89880"/>
<stop offset="1" stop-color="#A68B77"/>
</linearGradient>
<clipPath id="clip0_2286_6">
<rect width="648" height="442" fill="white" transform="translate(0 511)"/>
</clipPath>
</defs>
</svg>
