<svg width="361" height="582" viewBox="0 0 361 582" fill="none" xmlns="http://www.w3.org/2000/svg">
<path d="M348.196 579.514C354.138 579.514 358.955 574.698 358.955 568.757C358.955 562.816 354.138 558 348.196 558C342.254 558 337.438 562.816 337.438 568.757C337.438 574.698 342.254 579.514 348.196 579.514Z" fill="white"/>
<path d="M1.5 301.399V103.994L176.046 1L347.73 101.133V557.885" stroke="#007BA6" stroke-width="2" stroke-linecap="round" stroke-linejoin="round"/>
<path d="M336 569.188C336 562.464 341.465 557 348.19 557C354.914 557 360.379 562.464 360.379 569.188C360.379 575.911 354.914 581.375 348.19 581.375C341.465 581.375 336 575.911 336 569.188C336 575.911 336 562.464 336 569.188ZM357.518 569.188C357.518 564.038 353.34 559.861 348.19 559.861C343.039 559.861 338.861 564.038 338.861 569.188C338.861 574.337 343.039 578.514 348.19 578.514C353.34 578.514 357.518 574.337 357.518 569.188C357.518 574.337 357.518 564.038 357.518 569.188Z" fill="#007BA6"/>
</svg>
