<svg width="1130" height="550" viewBox="0 0 1130 550" fill="none" xmlns="http://www.w3.org/2000/svg">
<path d="M157.805 -173.132V21.4123L315.182 110.101L469.698 21.4123V-155.966" stroke="#007BA6" stroke-width="2" stroke-linecap="round" stroke-linejoin="round"/>
<path d="M345.23 -100.178L87.7031 48.5913" stroke="#007BA6" stroke-width="2" stroke-linecap="round" stroke-linejoin="round"/>
<path d="M82.3242 39.2647C77.1737 42.2401 75.4282 48.8202 78.4041 53.9699C81.3799 59.1196 87.9612 60.8648 93.1117 57.8894C98.2622 54.914 100.008 48.3339 97.0318 43.1842C94.056 38.0345 87.4747 36.2893 82.3242 39.2647Z" fill="white"/>
<path d="M81.6075 38.0345C87.4161 34.6872 94.8844 36.6613 98.2609 42.4976C101.637 48.3053 99.6343 55.7724 93.7971 59.1483C87.9884 62.4956 80.5201 60.5215 77.1437 54.6852C73.7958 48.8775 75.7702 41.4104 81.6075 38.0345C87.4161 34.6872 75.7988 41.3818 81.6075 38.0345ZM92.3664 56.6593C96.8302 54.0844 98.3467 48.3625 95.7714 43.9281C93.1962 39.4936 87.4734 37.9487 83.0382 40.5235C78.5744 43.0984 77.0578 48.8203 79.6331 53.2547C82.2084 57.6892 87.9312 59.2341 92.3664 56.6593C96.8302 54.0844 87.9026 59.2341 92.3664 56.6593Z" fill="#007BA6"/>
<path d="M368.121 -17.2104L242.219 57.1741V205.943L373.843 283.188L502.607 208.804" stroke="#2AC5F4" stroke-width="2" stroke-linecap="round" stroke-linejoin="round"/>
<path d="M507.987 218.131C513.137 215.155 514.883 208.575 511.907 203.425C508.931 198.276 502.35 196.531 497.199 199.506C492.049 202.481 490.303 209.061 493.279 214.211C496.255 219.361 502.836 221.106 507.987 218.131Z" fill="white"/>
<path d="M508.703 219.361C502.895 222.708 495.426 220.734 492.05 214.898C488.702 209.09 490.676 201.623 496.514 198.247C502.322 194.9 509.791 196.874 513.167 202.71C516.515 208.518 514.541 215.985 508.703 219.361C514.512 216.013 502.866 222.737 508.703 219.361ZM497.944 200.736C493.481 203.311 491.964 209.033 494.539 213.467C497.115 217.902 502.837 219.447 507.273 216.872C511.736 214.297 513.253 208.575 510.678 204.14C508.102 199.677 502.38 198.161 497.944 200.736C502.408 198.161 493.481 203.311 497.944 200.736Z" fill="#2AC5F4"/>
<path d="M1.85938 137.28L50.5033 108.671L173.544 180.194" stroke="#007BA6" stroke-width="2" stroke-linecap="round" stroke-linejoin="round"/>
<path d="M168.14 189.493C173.262 192.468 179.872 190.723 182.848 185.602C185.824 180.481 184.078 173.872 178.956 170.897C173.835 167.921 167.225 169.666 164.249 174.787C161.273 179.909 163.018 186.517 168.14 189.493Z" fill="white"/>
<path d="M167.423 190.723C161.614 187.347 159.64 179.88 163.016 174.072C166.393 168.265 173.861 166.29 179.67 169.666C185.478 173.042 187.453 180.509 184.076 186.317C180.7 192.125 173.232 194.099 167.423 190.723C173.232 194.099 161.614 187.347 167.423 190.723ZM178.239 172.127C173.804 169.552 168.081 171.068 165.477 175.503C162.873 179.937 164.418 185.659 168.854 188.263C173.289 190.837 179.012 189.321 181.615 184.887C184.219 180.452 182.674 174.73 178.239 172.127C182.674 174.702 173.804 169.552 178.239 172.127Z" fill="#007BA6"/>
<path d="M87.7031 280.328V165.89L193.575 105.81L299.447 165.89V283.188" stroke="#39C6F4" stroke-width="2" stroke-linecap="round" stroke-linejoin="round"/>
<path d="M299.446 293.945C305.388 293.945 310.205 289.129 310.205 283.188C310.205 277.247 305.388 272.431 299.446 272.431C293.504 272.431 288.688 277.247 288.688 283.188C288.688 289.129 293.504 293.945 299.446 293.945Z" fill="white"/>
<path d="M287.258 283.189C287.258 276.465 292.723 271.001 299.447 271.001C306.172 271.001 311.637 276.465 311.637 283.189C311.637 289.912 306.172 295.376 299.447 295.376C292.723 295.376 287.258 289.912 287.258 283.189C287.258 289.912 287.258 276.465 287.258 283.189ZM308.776 283.189C308.776 278.039 304.598 273.862 299.447 273.862C294.297 273.862 290.119 278.039 290.119 283.189C290.119 288.338 294.297 292.515 299.447 292.515C304.598 292.515 308.776 288.338 308.776 283.189C308.776 288.338 308.776 278.039 308.776 283.189Z" fill="#39C6F4"/>
<path d="M90.5625 354.712L348.089 503.481L608.477 351.851" stroke="#007BA6" stroke-width="2" stroke-linecap="round" stroke-linejoin="round"/>
<path d="M613.886 361.149C619.008 358.174 620.754 351.565 617.778 346.444C614.802 341.323 608.192 339.578 603.07 342.553C597.948 345.529 596.203 352.137 599.179 357.259C602.154 362.38 608.764 364.125 613.886 361.149Z" fill="white"/>
<path d="M614.599 362.379C608.791 365.755 601.322 363.781 597.946 357.973C594.57 352.166 596.544 344.699 602.353 341.323C608.161 337.947 615.629 339.921 619.006 345.728C622.382 351.536 620.408 359.003 614.599 362.379C620.408 359.003 608.791 365.755 614.599 362.379ZM603.783 343.783C599.348 346.358 597.831 352.08 600.407 356.543C602.982 360.977 608.705 362.494 613.169 359.919C617.604 357.344 619.12 351.622 616.545 347.159C613.97 342.725 608.247 341.208 603.783 343.783C608.218 341.208 599.348 346.358 603.783 343.783Z" fill="#007BA6"/>
<path d="M290.867 326.103L416.769 394.765V537.812" stroke="#007BA6" stroke-width="2" stroke-linecap="round" stroke-linejoin="round"/>
<path d="M416.767 548.57C422.709 548.57 427.526 543.753 427.526 537.812C427.526 531.871 422.709 527.055 416.767 527.055C410.825 527.055 406.008 531.871 406.008 537.812C406.008 543.753 410.825 548.57 416.767 548.57Z" fill="white"/>
<path d="M404.578 537.813C404.578 531.089 410.043 525.625 416.768 525.625C423.492 525.625 428.957 531.089 428.957 537.813C428.957 544.536 423.492 550 416.768 550C410.043 550 404.578 544.536 404.578 537.813C404.578 544.536 404.578 531.089 404.578 537.813ZM426.096 537.813C426.096 532.663 421.918 528.486 416.768 528.486C411.617 528.486 407.44 532.663 407.44 537.813C407.44 542.962 411.617 547.139 416.768 547.139C421.918 547.139 426.096 542.962 426.096 537.813C426.096 542.962 426.096 532.663 426.096 537.813Z" fill="#007BA6"/>
<path d="M342.367 326.103L402.457 363.295L471.131 323.242V251.718" stroke="#007BA6" stroke-width="2" stroke-linecap="round" stroke-linejoin="round"/>
<path d="M481.893 251.718C481.893 245.767 477.086 240.961 471.134 240.961C465.182 240.961 460.375 245.767 460.375 251.718C460.375 257.669 465.182 262.475 471.134 262.475C477.086 262.475 481.893 257.669 481.893 251.718Z" fill="white"/>
<path d="M483.324 251.718C483.324 258.441 477.859 263.905 471.135 263.905C464.411 263.905 458.945 258.441 458.945 251.718C458.945 244.995 464.411 239.53 471.135 239.53C477.859 239.53 483.324 244.995 483.324 251.718C483.324 258.441 483.324 244.995 483.324 251.718ZM461.807 251.718C461.807 256.868 465.984 261.045 471.135 261.045C476.285 261.045 480.463 256.868 480.463 251.718C480.463 246.568 476.285 242.391 471.135 242.391C465.984 242.391 461.807 246.568 461.807 251.718C461.807 256.868 461.807 246.568 461.807 251.718Z" fill="#007BA6"/>
<path d="M396.734 245.996L505.468 311.798L619.924 248.857V117.254" stroke="#007BA6" stroke-width="2" stroke-linecap="round" stroke-linejoin="round"/>
<path d="M630.682 117.254C630.682 111.303 625.875 106.497 619.923 106.497C613.971 106.497 609.164 111.303 609.164 117.254C609.164 123.204 613.971 128.011 619.923 128.011C625.875 128.011 630.682 123.204 630.682 117.254Z" fill="white"/>
<path d="M632.114 117.254C632.114 123.977 626.648 129.442 619.924 129.442C613.2 129.442 607.734 123.977 607.734 117.254C607.734 110.531 613.2 105.066 619.924 105.066C626.648 105.066 632.114 110.531 632.114 117.254C632.114 123.977 632.114 110.531 632.114 117.254ZM610.596 117.254C610.596 122.404 614.773 126.581 619.924 126.581C625.074 126.581 629.252 122.404 629.252 117.254C629.252 112.104 625.074 107.927 619.924 107.927C614.773 107.927 610.596 112.104 610.596 117.254C610.596 122.404 610.596 112.104 610.596 117.254Z" fill="#007BA6"/>
<path d="M774.442 -31.515C768.72 -37.2369 648.541 -103.039 648.541 -103.039L525.5 -28.6541V114.393" stroke="#007BA6" stroke-width="2" stroke-linecap="round" stroke-linejoin="round"/>
<path d="M525.501 125.15C531.443 125.15 536.26 120.334 536.26 114.393C536.26 108.452 531.443 103.636 525.501 103.636C519.559 103.636 514.742 108.452 514.742 114.393C514.742 120.334 519.559 125.15 525.501 125.15Z" fill="white"/>
<path d="M513.312 114.393C513.312 107.669 518.778 102.205 525.502 102.205C532.226 102.205 537.692 107.669 537.692 114.393C537.692 121.116 532.226 126.58 525.502 126.58C518.778 126.58 513.312 121.116 513.312 114.393C513.312 121.116 513.312 107.669 513.312 114.393ZM534.83 114.393C534.83 109.243 530.653 105.066 525.502 105.066C520.352 105.066 516.174 109.243 516.174 114.393C516.174 119.542 520.352 123.719 525.502 123.719C530.653 123.719 534.83 119.542 534.83 114.393C534.83 119.542 534.83 109.243 534.83 114.393Z" fill="#007BA6"/>
<path d="M267.969 114.393L373.841 171.612L471.129 114.393" stroke="#007BA6" stroke-width="2" stroke-linecap="round" stroke-linejoin="round"/>
<path d="M476.595 123.662C481.717 120.658 483.434 114.05 480.401 108.928C477.396 103.807 470.787 102.091 465.665 105.123C460.543 108.156 458.826 114.736 461.859 119.857C464.863 124.978 471.473 126.695 476.595 123.662Z" fill="white"/>
<path d="M477.313 124.892C471.533 128.297 464.036 126.352 460.631 120.572C457.226 114.793 459.171 107.298 464.951 103.893C470.732 100.489 478.228 102.434 481.633 108.213C485.039 113.992 483.093 121.488 477.313 124.892C483.093 121.488 471.533 128.297 477.313 124.892ZM466.411 106.354C461.976 108.957 460.488 114.679 463.092 119.113C465.695 123.548 471.418 125.036 475.853 122.432C480.289 119.829 481.777 114.107 479.173 109.672C476.569 105.238 470.846 103.75 466.411 106.354C470.846 103.75 461.976 108.957 466.411 106.354Z" fill="#007BA6"/>
<path d="M156.381 203.082V277.467L93.4297 314.659" stroke="#007BA6" stroke-width="2" stroke-linecap="round" stroke-linejoin="round"/>
<path d="M87.9639 305.389C82.842 308.422 81.1537 315.002 84.1868 320.123C87.2199 325.244 93.8012 326.932 98.9231 323.9C104.045 320.867 105.733 314.287 102.7 309.166C99.6671 304.045 93.0858 302.357 87.9639 305.389Z" fill="white"/>
<path d="M87.2194 304.159C92.9994 300.755 100.496 302.672 103.901 308.451C107.306 314.23 105.389 321.726 99.6093 325.13C93.8293 328.535 86.3324 326.618 82.9273 320.839C79.5222 315.06 81.4394 307.564 87.2194 304.159C92.9994 300.755 81.4394 307.564 87.2194 304.159ZM98.1786 322.67C102.614 320.066 104.073 314.316 101.469 309.91C98.8653 305.475 93.1139 304.016 88.7073 306.62C84.2722 309.223 82.8128 314.974 85.4167 319.38C88.0206 323.814 93.772 325.273 98.1786 322.67C102.614 320.066 93.7434 325.273 98.1786 322.67Z" fill="#007BA6"/>
<path d="M416.768 194.499L348.094 231.691" stroke="#007BA6" stroke-width="2" stroke-linecap="round" stroke-linejoin="round"/>
<path d="M342.966 222.222C337.73 225.054 335.812 231.577 338.617 236.813C341.449 242.048 347.973 243.965 353.21 241.161C358.446 238.329 360.363 231.806 357.559 226.571C354.755 221.335 348.202 219.418 342.966 222.222Z" fill="white"/>
<path d="M342.287 220.963C348.181 217.759 355.621 219.962 358.797 225.884C361.973 231.806 359.799 239.216 353.876 242.392C347.952 245.596 340.541 243.393 337.365 237.471C334.189 231.549 336.364 224.139 342.287 220.963C348.181 217.759 336.364 224.167 342.287 220.963ZM352.531 239.874C357.052 237.414 358.74 231.749 356.279 227.229C353.818 222.708 348.153 221.02 343.632 223.481C339.111 225.941 337.422 231.606 339.883 236.126C342.344 240.646 348.01 242.334 352.531 239.874C357.052 237.414 348.01 242.334 352.531 239.874Z" fill="#007BA6"/>
<path d="M828.805 354.712L1117.81 194.499" stroke="#007BA6" stroke-width="2" stroke-linecap="round" stroke-linejoin="round"/>
<path d="M1123.01 203.912C1128.22 201.022 1130.08 194.47 1127.19 189.292C1124.3 184.085 1117.75 182.226 1112.57 185.087C1107.36 187.976 1105.5 194.528 1108.39 199.706C1111.28 204.913 1117.84 206.772 1123.01 203.912Z" fill="white"/>
<path d="M1123.73 205.17C1117.87 208.432 1110.43 206.286 1107.17 200.421C1103.9 194.556 1106.05 187.118 1111.92 183.856C1117.78 180.595 1125.22 182.741 1128.48 188.606C1131.75 194.471 1129.6 201.909 1123.73 205.17C1129.6 201.909 1117.87 208.432 1123.73 205.17ZM1113.29 186.345C1108.8 188.834 1107.17 194.528 1109.66 199.019C1112.15 203.511 1117.84 205.142 1122.33 202.653C1126.82 200.164 1128.46 194.47 1125.97 189.979C1123.48 185.487 1117.78 183.856 1113.29 186.345C1117.78 183.856 1108.8 188.834 1113.29 186.345Z" fill="#007BA6"/>
<path d="M659.984 11.3989L800.193 -68.7075L943.264 14.2598L946.125 180.194L803.055 266.023" stroke="#007BA6" stroke-width="2" stroke-linecap="round" stroke-linejoin="round"/>
<path d="M667.254 24.1016C660.243 28.1069 651.287 25.6751 647.281 18.6658C643.275 11.6565 645.707 2.70171 652.718 -1.30361C659.728 -5.30893 668.685 -2.87712 672.69 4.13218C676.696 11.1415 674.264 20.0963 667.254 24.1016Z" fill="white"/>
<path d="M668.197 25.7896C676.123 21.2694 678.898 11.113 674.377 3.18819C669.856 -4.73662 659.698 -7.51172 651.772 -2.99143C643.846 1.52886 641.07 11.6852 645.591 19.61C650.112 27.5348 660.27 30.3099 668.197 25.7896C676.123 21.2694 660.27 30.3099 668.197 25.7896ZM653.689 0.384483C659.755 -3.07726 667.538 -0.960155 671.001 5.10504C674.463 11.1702 672.346 18.952 666.279 22.4137C660.213 25.8755 652.43 23.7584 648.968 17.6932C645.506 11.628 647.623 3.84622 653.689 0.384483C659.755 -3.07726 647.623 3.84622 653.689 0.384483Z" fill="#007BA6"/>
<path d="M883.172 -60.1247V60.0349L1000.49 128.698L1112.08 65.7568V-68.7075" stroke="#FED61A" stroke-width="2" stroke-linecap="round" stroke-linejoin="round"/>
<path d="M920.376 117.254L803.058 48.5913L688.602 117.254" stroke="#FFCF60" stroke-width="2" stroke-linecap="round" stroke-linejoin="round"/>
<path d="M683.079 108.042C677.986 111.103 676.326 117.712 679.388 122.804C682.449 127.897 689.059 129.556 694.153 126.495C699.246 123.434 700.906 116.825 697.844 111.732C694.782 106.64 688.172 104.981 683.079 108.042Z" fill="white"/>
<path d="M682.334 106.811C688.085 103.349 695.611 105.238 699.044 110.988C702.507 116.739 700.618 124.263 694.867 127.696C689.115 131.129 681.59 129.27 678.156 123.519C674.694 117.769 676.582 110.244 682.334 106.811C688.085 103.349 676.582 110.273 682.334 106.811ZM693.408 125.264C697.814 122.632 699.245 116.882 696.612 112.476C693.951 108.07 688.228 106.64 683.822 109.272C679.415 111.904 677.985 117.654 680.617 122.06C683.25 126.466 689.001 127.896 693.408 125.264C697.814 122.632 689.001 127.896 693.408 125.264Z" fill="#FFCF60"/>
<path d="M1040.55 19.9816V-60.1248L1112.09 -105.9" stroke="#007BA6" stroke-width="2" stroke-linecap="round" stroke-linejoin="round"/>
<path d="M754.414 31.4254L825.949 -11.4888" stroke="#007BA6" stroke-width="2" stroke-linecap="round" stroke-linejoin="round"/>
<path d="M831.473 -2.27659C836.566 -5.3378 838.226 -11.9466 835.164 -17.0391C832.102 -22.1315 825.493 -23.7909 820.399 -20.7297C815.306 -17.6685 813.646 -11.0597 816.708 -5.96721C819.77 -0.874729 826.38 0.78462 831.473 -2.27659Z" fill="white"/>
<path d="M832.211 -1.04608C826.459 2.41566 818.934 0.527437 815.5 -5.22306C812.038 -10.9736 813.926 -18.4978 819.678 -21.931C825.429 -25.3641 832.955 -23.5045 836.388 -17.754C839.851 -12.0035 837.962 -4.47921 832.211 -1.04608C837.962 -4.50782 826.459 2.41566 832.211 -1.04608ZM821.137 -19.4992C816.73 -16.8671 815.3 -11.1166 817.932 -6.71076C820.593 -2.30491 826.316 -0.874428 830.723 -3.50649C835.129 -6.16717 836.56 -11.8891 833.927 -16.2949C831.295 -20.7008 825.544 -22.1312 821.137 -19.4992C825.544 -22.1599 816.73 -16.8671 821.137 -19.4992Z" fill="#007BA6"/>
<path fill-rule="evenodd" clip-rule="evenodd" d="M470.219 160.94L508.562 183.056V227.4L470.219 205.285V160.94Z" fill="#33BFF0" stroke="#007BA6" stroke-width="0.19" stroke-miterlimit="2.61"/>
<path fill-rule="evenodd" clip-rule="evenodd" d="M546.934 160.94L508.562 183.056V227.4L546.934 205.285V160.94Z" fill="#33BFF0" stroke="#007BA6" stroke-width="0.19" stroke-miterlimit="2.61"/>
<path fill-rule="evenodd" clip-rule="evenodd" d="M546.962 161.084L508.676 138.854L470.219 160.969L508.504 183.199L546.962 161.084Z" fill="#33BFF0" stroke="#007BA6" stroke-width="0.19" stroke-miterlimit="2.61"/>
</svg>
