<svg width="1131" height="698" viewBox="0 0 1131 698" fill="none" xmlns="http://www.w3.org/2000/svg">
<path d="M692.5 419.399V221.994L867.046 119L1038.73 219.133V675.885" stroke="#007BA6" stroke-width="2" stroke-linecap="round" stroke-linejoin="round"/>
<path d="M1039.2 697.514C1045.14 697.514 1049.96 692.698 1049.96 686.757C1049.96 680.816 1045.14 676 1039.2 676C1033.25 676 1028.44 680.816 1028.44 686.757C1028.44 692.698 1033.25 697.514 1039.2 697.514Z" fill="white"/>
<g opacity="0.5" clip-path="url(#clip0_2284_6)">
<path d="M158.805 -173.132V21.4123L316.182 110.101L470.698 21.4123V-155.966" stroke="#007BA6" stroke-width="2" stroke-linecap="round" stroke-linejoin="round"/>
<path d="M346.23 -100.178L88.7031 48.5913" stroke="#007BA6" stroke-width="2" stroke-linecap="round" stroke-linejoin="round"/>
<path d="M83.3242 39.2647C78.1737 42.2401 76.4282 48.8202 79.4041 53.9699C82.3799 59.1196 88.9612 60.8648 94.1117 57.8894C99.2622 54.914 101.008 48.3339 98.0318 43.1842C95.056 38.0345 88.4747 36.2893 83.3242 39.2647Z" fill="white"/>
<path d="M82.6075 38.0345C88.4161 34.6872 95.8844 36.6613 99.2609 42.4976C102.637 48.3053 100.634 55.7724 94.7971 59.1483C88.9884 62.4956 81.5201 60.5215 78.1437 54.6852C74.7958 48.8775 76.7702 41.4104 82.6075 38.0345C88.4161 34.6872 76.7988 41.3818 82.6075 38.0345ZM93.3664 56.6593C97.8302 54.0844 99.3467 48.3625 96.7714 43.9281C94.1962 39.4936 88.4734 37.9487 84.0382 40.5235C79.5744 43.0984 78.0578 48.8203 80.6331 53.2547C83.2084 57.6892 88.9312 59.2341 93.3664 56.6593C97.8302 54.0844 88.9026 59.2341 93.3664 56.6593Z" fill="#007BA6"/>
<path d="M369.121 -17.2104L243.219 57.1741V205.943L374.843 283.188L503.607 208.804" stroke="#2AC5F4" stroke-width="2" stroke-linecap="round" stroke-linejoin="round"/>
<path d="M508.987 218.131C514.137 215.155 515.883 208.575 512.907 203.425C509.931 198.276 503.35 196.531 498.199 199.506C493.049 202.481 491.303 209.061 494.279 214.211C497.255 219.361 503.836 221.106 508.987 218.131Z" fill="white"/>
<path d="M509.703 219.361C503.895 222.708 496.426 220.734 493.05 214.898C489.702 209.09 491.676 201.623 497.514 198.247C503.322 194.9 510.791 196.874 514.167 202.71C517.515 208.518 515.541 215.985 509.703 219.361C515.512 216.013 503.866 222.737 509.703 219.361ZM498.944 200.736C494.481 203.311 492.964 209.033 495.539 213.467C498.115 217.902 503.837 219.447 508.273 216.872C512.736 214.297 514.253 208.575 511.678 204.14C509.102 199.677 503.38 198.161 498.944 200.736C503.408 198.161 494.481 203.311 498.944 200.736Z" fill="#2AC5F4"/>
<path d="M2.85938 137.28L51.5033 108.671L174.544 180.194" stroke="#007BA6" stroke-width="2" stroke-linecap="round" stroke-linejoin="round"/>
<path d="M169.14 189.493C174.262 192.468 180.872 190.723 183.848 185.602C186.824 180.481 185.078 173.872 179.956 170.897C174.835 167.921 168.225 169.666 165.249 174.787C162.273 179.909 164.018 186.517 169.14 189.493Z" fill="white"/>
<path d="M168.423 190.723C162.614 187.347 160.64 179.88 164.016 174.072C167.393 168.265 174.861 166.29 180.67 169.666C186.478 173.042 188.453 180.509 185.076 186.317C181.7 192.125 174.232 194.099 168.423 190.723C174.232 194.099 162.614 187.347 168.423 190.723ZM179.239 172.127C174.804 169.552 169.081 171.068 166.477 175.503C163.873 179.937 165.418 185.659 169.854 188.263C174.289 190.837 180.012 189.321 182.615 184.887C185.219 180.452 183.674 174.73 179.239 172.127C183.674 174.702 174.804 169.552 179.239 172.127Z" fill="#007BA6"/>
<path d="M88.7031 280.328V165.89L194.575 105.81L300.447 165.89V283.188" stroke="#39C6F4" stroke-width="2" stroke-linecap="round" stroke-linejoin="round"/>
<path d="M300.446 293.945C306.388 293.945 311.205 289.129 311.205 283.188C311.205 277.247 306.388 272.431 300.446 272.431C294.504 272.431 289.688 277.247 289.688 283.188C289.688 289.129 294.504 293.945 300.446 293.945Z" fill="white"/>
<path d="M288.258 283.189C288.258 276.465 293.723 271.001 300.447 271.001C307.172 271.001 312.637 276.465 312.637 283.189C312.637 289.912 307.172 295.376 300.447 295.376C293.723 295.376 288.258 289.912 288.258 283.189C288.258 289.912 288.258 276.465 288.258 283.189ZM309.776 283.189C309.776 278.039 305.598 273.862 300.447 273.862C295.297 273.862 291.119 278.039 291.119 283.189C291.119 288.338 295.297 292.515 300.447 292.515C305.598 292.515 309.776 288.338 309.776 283.189C309.776 288.338 309.776 278.039 309.776 283.189Z" fill="#39C6F4"/>
<path d="M91.5625 354.712L349.089 503.481L609.477 351.851" stroke="#007BA6" stroke-width="2" stroke-linecap="round" stroke-linejoin="round"/>
<path d="M614.886 361.149C620.008 358.174 621.754 351.565 618.778 346.444C615.802 341.323 609.192 339.578 604.07 342.553C598.948 345.529 597.203 352.137 600.179 357.259C603.154 362.38 609.764 364.125 614.886 361.149Z" fill="white"/>
<path d="M615.599 362.379C609.791 365.755 602.322 363.781 598.946 357.973C595.57 352.166 597.544 344.699 603.353 341.323C609.161 337.947 616.629 339.921 620.006 345.728C623.382 351.536 621.408 359.003 615.599 362.379C621.408 359.003 609.791 365.755 615.599 362.379ZM604.783 343.783C600.348 346.358 598.831 352.08 601.407 356.543C603.982 360.977 609.705 362.494 614.169 359.919C618.604 357.344 620.12 351.622 617.545 347.159C614.97 342.725 609.247 341.208 604.783 343.783C609.218 341.208 600.348 346.358 604.783 343.783Z" fill="#007BA6"/>
<path d="M291.867 326.103L417.769 394.765V537.812" stroke="#007BA6" stroke-width="2" stroke-linecap="round" stroke-linejoin="round"/>
<path d="M417.767 548.57C423.709 548.57 428.526 543.753 428.526 537.812C428.526 531.871 423.709 527.055 417.767 527.055C411.825 527.055 407.008 531.871 407.008 537.812C407.008 543.753 411.825 548.57 417.767 548.57Z" fill="white"/>
<path d="M405.578 537.813C405.578 531.089 411.043 525.625 417.768 525.625C424.492 525.625 429.957 531.089 429.957 537.813C429.957 544.536 424.492 550 417.768 550C411.043 550 405.578 544.536 405.578 537.813C405.578 544.536 405.578 531.089 405.578 537.813ZM427.096 537.813C427.096 532.663 422.918 528.486 417.768 528.486C412.617 528.486 408.44 532.663 408.44 537.813C408.44 542.962 412.617 547.139 417.768 547.139C422.918 547.139 427.096 542.962 427.096 537.813C427.096 542.962 427.096 532.663 427.096 537.813Z" fill="#007BA6"/>
<path d="M343.367 326.103L403.457 363.295L472.131 323.242V251.718" stroke="#007BA6" stroke-width="2" stroke-linecap="round" stroke-linejoin="round"/>
<path d="M482.893 251.718C482.893 245.767 478.086 240.961 472.134 240.961C466.182 240.961 461.375 245.767 461.375 251.718C461.375 257.669 466.182 262.475 472.134 262.475C478.086 262.475 482.893 257.669 482.893 251.718Z" fill="white"/>
<path d="M484.324 251.718C484.324 258.441 478.859 263.905 472.135 263.905C465.411 263.905 459.945 258.441 459.945 251.718C459.945 244.995 465.411 239.53 472.135 239.53C478.859 239.53 484.324 244.995 484.324 251.718C484.324 258.441 484.324 244.995 484.324 251.718ZM462.807 251.718C462.807 256.868 466.984 261.045 472.135 261.045C477.285 261.045 481.463 256.868 481.463 251.718C481.463 246.568 477.285 242.391 472.135 242.391C466.984 242.391 462.807 246.568 462.807 251.718C462.807 256.868 462.807 246.568 462.807 251.718Z" fill="#007BA6"/>
<path d="M397.734 245.996L506.468 311.798L620.924 248.857V117.254" stroke="#007BA6" stroke-width="2" stroke-linecap="round" stroke-linejoin="round"/>
<path d="M631.682 117.254C631.682 111.303 626.875 106.497 620.923 106.497C614.971 106.497 610.164 111.303 610.164 117.254C610.164 123.204 614.971 128.011 620.923 128.011C626.875 128.011 631.682 123.204 631.682 117.254Z" fill="white"/>
<path d="M633.114 117.254C633.114 123.977 627.648 129.442 620.924 129.442C614.2 129.442 608.734 123.977 608.734 117.254C608.734 110.531 614.2 105.066 620.924 105.066C627.648 105.066 633.114 110.531 633.114 117.254C633.114 123.977 633.114 110.531 633.114 117.254ZM611.596 117.254C611.596 122.404 615.773 126.581 620.924 126.581C626.074 126.581 630.252 122.404 630.252 117.254C630.252 112.104 626.074 107.927 620.924 107.927C615.773 107.927 611.596 112.104 611.596 117.254C611.596 122.404 611.596 112.104 611.596 117.254Z" fill="#007BA6"/>
<path d="M775.442 -31.515C769.72 -37.2369 649.541 -103.039 649.541 -103.039L526.5 -28.6541V114.393" stroke="#007BA6" stroke-width="2" stroke-linecap="round" stroke-linejoin="round"/>
<path d="M526.501 125.15C532.443 125.15 537.26 120.334 537.26 114.393C537.26 108.452 532.443 103.636 526.501 103.636C520.559 103.636 515.742 108.452 515.742 114.393C515.742 120.334 520.559 125.15 526.501 125.15Z" fill="white"/>
<path d="M514.312 114.393C514.312 107.669 519.778 102.205 526.502 102.205C533.226 102.205 538.692 107.669 538.692 114.393C538.692 121.116 533.226 126.58 526.502 126.58C519.778 126.58 514.312 121.116 514.312 114.393C514.312 121.116 514.312 107.669 514.312 114.393ZM535.83 114.393C535.83 109.243 531.653 105.066 526.502 105.066C521.352 105.066 517.174 109.243 517.174 114.393C517.174 119.542 521.352 123.719 526.502 123.719C531.653 123.719 535.83 119.542 535.83 114.393C535.83 119.542 535.83 109.243 535.83 114.393Z" fill="#007BA6"/>
<path d="M268.969 114.393L374.841 171.612L472.129 114.393" stroke="#007BA6" stroke-width="2" stroke-linecap="round" stroke-linejoin="round"/>
<path d="M477.595 123.662C482.717 120.658 484.434 114.05 481.401 108.928C478.396 103.807 471.787 102.091 466.665 105.123C461.543 108.156 459.826 114.736 462.859 119.857C465.863 124.978 472.473 126.695 477.595 123.662Z" fill="white"/>
<path d="M478.313 124.892C472.533 128.297 465.036 126.352 461.631 120.572C458.226 114.793 460.171 107.298 465.951 103.893C471.732 100.489 479.228 102.434 482.633 108.213C486.039 113.992 484.093 121.488 478.313 124.892C484.093 121.488 472.533 128.297 478.313 124.892ZM467.411 106.354C462.976 108.957 461.488 114.679 464.092 119.113C466.695 123.548 472.418 125.036 476.853 122.432C481.289 119.829 482.777 114.107 480.173 109.672C477.569 105.238 471.846 103.75 467.411 106.354C471.846 103.75 462.976 108.957 467.411 106.354Z" fill="#007BA6"/>
<path d="M157.381 203.082V277.467L94.4297 314.659" stroke="#007BA6" stroke-width="2" stroke-linecap="round" stroke-linejoin="round"/>
<path d="M88.9639 305.389C83.842 308.422 82.1537 315.002 85.1868 320.123C88.2199 325.244 94.8012 326.932 99.9231 323.9C105.045 320.867 106.733 314.287 103.7 309.166C100.667 304.045 94.0858 302.357 88.9639 305.389Z" fill="white"/>
<path d="M88.2194 304.159C93.9994 300.755 101.496 302.672 104.901 308.451C108.306 314.23 106.389 321.726 100.609 325.13C94.8293 328.535 87.3324 326.618 83.9273 320.839C80.5222 315.06 82.4394 307.564 88.2194 304.159C93.9994 300.755 82.4394 307.564 88.2194 304.159ZM99.1786 322.67C103.614 320.066 105.073 314.316 102.469 309.91C99.8653 305.475 94.1139 304.016 89.7073 306.62C85.2722 309.223 83.8128 314.974 86.4167 319.38C89.0206 323.814 94.772 325.273 99.1786 322.67C103.614 320.066 94.7434 325.273 99.1786 322.67Z" fill="#007BA6"/>
<path d="M417.768 194.499L349.094 231.691" stroke="#007BA6" stroke-width="2" stroke-linecap="round" stroke-linejoin="round"/>
<path d="M343.966 222.222C338.73 225.054 336.812 231.577 339.617 236.813C342.449 242.048 348.973 243.965 354.21 241.161C359.446 238.329 361.363 231.806 358.559 226.571C355.755 221.335 349.202 219.418 343.966 222.222Z" fill="white"/>
<path d="M343.287 220.963C349.181 217.759 356.621 219.962 359.797 225.884C362.973 231.806 360.799 239.216 354.876 242.392C348.952 245.596 341.541 243.393 338.365 237.471C335.189 231.549 337.364 224.139 343.287 220.963C349.181 217.759 337.364 224.167 343.287 220.963ZM353.531 239.874C358.052 237.414 359.74 231.749 357.279 227.229C354.818 222.708 349.153 221.02 344.632 223.481C340.111 225.941 338.422 231.606 340.883 236.126C343.344 240.646 349.01 242.334 353.531 239.874C358.052 237.414 349.01 242.334 353.531 239.874Z" fill="#007BA6"/>
<path d="M692.461 420.514V223.109L867.007 120.115L1038.69 220.248V677" stroke="#007BA6" stroke-width="2" stroke-linecap="round" stroke-linejoin="round"/>
<path d="M692.461 420.514V223.109L867.007 120.115L1038.69 220.248V677" stroke="#007BA6" stroke-width="2" stroke-linecap="round" stroke-linejoin="round"/>
<path d="M829.805 354.712L1118.81 194.499" stroke="#007BA6" stroke-width="2" stroke-linecap="round" stroke-linejoin="round"/>
<path d="M1124.01 203.912C1129.22 201.022 1131.08 194.47 1128.19 189.292C1125.3 184.085 1118.75 182.226 1113.57 185.087C1108.36 187.976 1106.5 194.528 1109.39 199.706C1112.28 204.913 1118.84 206.772 1124.01 203.912Z" fill="white"/>
<path d="M1124.73 205.17C1118.87 208.432 1111.43 206.286 1108.17 200.421C1104.9 194.556 1107.05 187.118 1112.92 183.856C1118.78 180.595 1126.22 182.741 1129.48 188.606C1132.75 194.471 1130.6 201.909 1124.73 205.17C1130.6 201.909 1118.87 208.432 1124.73 205.17ZM1114.29 186.345C1109.8 188.834 1108.17 194.528 1110.66 199.019C1113.15 203.511 1118.84 205.142 1123.33 202.653C1127.82 200.164 1129.46 194.47 1126.97 189.979C1124.48 185.487 1118.78 183.856 1114.29 186.345C1118.78 183.856 1109.8 188.834 1114.29 186.345Z" fill="#007BA6"/>
<path d="M660.984 11.3989L801.193 -68.7075L944.264 14.2598L947.125 180.194L804.055 266.023" stroke="#007BA6" stroke-width="2" stroke-linecap="round" stroke-linejoin="round"/>
<path d="M668.254 24.1016C661.243 28.1069 652.287 25.6751 648.281 18.6658C644.275 11.6565 646.707 2.70171 653.718 -1.30361C660.728 -5.30893 669.685 -2.87712 673.69 4.13218C677.696 11.1415 675.264 20.0963 668.254 24.1016Z" fill="white"/>
<path d="M669.197 25.7896C677.123 21.2694 679.898 11.113 675.377 3.18819C670.856 -4.73662 660.698 -7.51172 652.772 -2.99143C644.846 1.52886 642.07 11.6852 646.591 19.61C651.112 27.5348 661.27 30.3099 669.197 25.7896C677.123 21.2694 661.27 30.3099 669.197 25.7896ZM654.689 0.384483C660.755 -3.07726 668.538 -0.960155 672.001 5.10504C675.463 11.1702 673.346 18.952 667.279 22.4137C661.213 25.8755 653.43 23.7584 649.968 17.6932C646.506 11.628 648.623 3.84622 654.689 0.384483C660.755 -3.07726 648.623 3.84622 654.689 0.384483Z" fill="#007BA6"/>
<path d="M884.172 -60.1247V60.0349L1001.49 128.698L1113.08 65.7568V-68.7075" stroke="#FED61A" stroke-width="2" stroke-linecap="round" stroke-linejoin="round"/>
<path d="M921.376 117.254L804.058 48.5913L689.602 117.254" stroke="#FFCF60" stroke-width="2" stroke-linecap="round" stroke-linejoin="round"/>
<path d="M684.079 108.042C678.986 111.103 677.326 117.712 680.388 122.804C683.449 127.897 690.059 129.556 695.153 126.495C700.246 123.434 701.906 116.825 698.844 111.732C695.782 106.64 689.172 104.981 684.079 108.042Z" fill="white"/>
<path d="M683.334 106.811C689.085 103.349 696.611 105.238 700.044 110.988C703.507 116.739 701.618 124.263 695.867 127.696C690.115 131.129 682.59 129.27 679.156 123.519C675.694 117.769 677.582 110.244 683.334 106.811C689.085 103.349 677.582 110.273 683.334 106.811ZM694.408 125.264C698.814 122.632 700.245 116.882 697.612 112.476C694.951 108.07 689.228 106.64 684.822 109.272C680.415 111.904 678.985 117.654 681.617 122.06C684.25 126.466 690.001 127.896 694.408 125.264C698.814 122.632 690.001 127.896 694.408 125.264Z" fill="#FFCF60"/>
<path d="M1041.55 19.9816V-60.1248L1113.09 -105.9" stroke="#007BA6" stroke-width="2" stroke-linecap="round" stroke-linejoin="round"/>
<path d="M755.414 31.4254L826.949 -11.4888" stroke="#007BA6" stroke-width="2" stroke-linecap="round" stroke-linejoin="round"/>
<path d="M832.473 -2.27659C837.566 -5.3378 839.226 -11.9466 836.164 -17.0391C833.102 -22.1315 826.493 -23.7909 821.399 -20.7297C816.306 -17.6685 814.646 -11.0597 817.708 -5.96721C820.77 -0.874729 827.38 0.78462 832.473 -2.27659Z" fill="white"/>
<path d="M833.211 -1.04608C827.459 2.41566 819.934 0.527437 816.5 -5.22306C813.038 -10.9736 814.926 -18.4978 820.678 -21.931C826.429 -25.3641 833.955 -23.5045 837.388 -17.754C840.851 -12.0035 838.962 -4.47921 833.211 -1.04608C838.962 -4.50782 827.459 2.41566 833.211 -1.04608ZM822.137 -19.4992C817.73 -16.8671 816.3 -11.1166 818.932 -6.71076C821.593 -2.30491 827.316 -0.874428 831.723 -3.50649C836.129 -6.16717 837.56 -11.8891 834.927 -16.2949C832.295 -20.7008 826.544 -22.1312 822.137 -19.4992C826.544 -22.1599 817.73 -16.8671 822.137 -19.4992Z" fill="#007BA6"/>
<path fill-rule="evenodd" clip-rule="evenodd" d="M471.219 160.94L509.562 183.056V227.4L471.219 205.285V160.94Z" fill="#33BFF0" stroke="#007BA6" stroke-width="0.19" stroke-miterlimit="2.61"/>
<path fill-rule="evenodd" clip-rule="evenodd" d="M547.934 160.94L509.562 183.056V227.4L547.934 205.285V160.94Z" fill="#33BFF0" stroke="#007BA6" stroke-width="0.19" stroke-miterlimit="2.61"/>
<path fill-rule="evenodd" clip-rule="evenodd" d="M547.962 161.084L509.676 138.854L471.219 160.969L509.504 183.199L547.962 161.084Z" fill="#33BFF0" stroke="#007BA6" stroke-width="0.19" stroke-miterlimit="2.61"/>
</g>
<defs>
<clipPath id="clip0_2284_6">
<rect width="1131" height="839" fill="white" transform="translate(0 -289)"/>
</clipPath>
</defs>
</svg>
