<svg width="46" height="88" viewBox="0 0 46 88" fill="none" xmlns="http://www.w3.org/2000/svg">
<path d="M6.37067 46.5187C8.77374 46.5187 11.1768 46.5187 13.5878 46.5187C18.3623 46.5187 23.1447 46.5187 27.9193 46.5187C31.516 46.5187 35.1206 46.5187 38.7173 46.5187C39.0019 46.5187 39.2943 46.5187 39.5789 46.5187C40.1876 46.5187 40.8042 46.5975 41.3891 46.7813C42.9464 47.289 44.3613 48.4707 45.1597 50.055C46.2743 52.2871 46.3138 55.1669 45.0095 57.3289C44.8277 57.6265 44.6538 57.9154 44.472 58.2043C42.3298 61.7055 40.1797 65.2068 38.0375 68.7081C35.4921 72.8658 32.9388 77.0236 30.3935 81.1814C29.769 82.1967 29.1524 83.2121 28.5279 84.2187C27.5794 85.768 26.3304 87.0548 24.6309 87.5099C22.9945 87.9388 21.2001 87.7375 19.7536 86.7484C18.8129 86.1007 18.2121 85.3741 17.5876 84.3675C15.9592 81.7591 14.3704 79.1156 12.7657 76.4984C10.0701 72.1043 7.38248 67.7102 4.68694 63.3161C3.73835 61.7756 2.78977 60.2262 1.84909 58.6857C1.60405 58.283 1.35899 57.8891 1.11395 57.4865C0.410416 56.3311 -0.000640869 54.9306 0.0151711 53.5301C0.0388832 51.6831 0.702896 49.9325 1.857 48.602C3.03482 47.254 4.69484 46.5538 6.37067 46.5187C7.37458 46.4925 8.46545 47.0264 9.16898 47.7967C9.8567 48.5582 10.3705 49.8012 10.3231 50.8953C10.2282 53.3025 8.58402 55.2194 6.37067 55.2719C6.2679 55.2719 6.16514 55.2807 6.06237 55.2894C6.41019 55.2369 6.76591 55.1844 7.11372 55.1319C6.88448 55.1669 6.67105 55.2282 6.45761 55.3332C6.77381 55.1844 7.09 55.0356 7.3983 54.8956C7.22439 54.9831 7.06629 55.0881 6.9161 55.2107C7.18486 54.9831 7.44572 54.7555 7.71449 54.5279C7.54058 54.6767 7.39829 54.843 7.26391 55.0268C7.46944 54.7292 7.67496 54.4404 7.88049 54.1428C7.75401 54.3353 7.65125 54.5367 7.56429 54.7555C7.69868 54.4054 7.83306 54.0552 7.95954 53.7139C7.88049 53.9415 7.82516 54.1603 7.79354 54.3966C7.84097 54.0115 7.88839 53.6176 7.93582 53.2324C7.91211 53.4775 7.91211 53.7051 7.94373 53.9502C7.8963 53.5651 7.84887 53.1712 7.80144 52.786C7.83306 52.9961 7.88049 53.1974 7.95163 53.3988C7.81725 53.0486 7.68287 52.6985 7.55639 52.3571C7.71449 52.7598 7.95163 53.1099 8.17297 53.4688C8.56031 54.1078 8.95555 54.738 9.34288 55.377C10.663 57.5303 11.9831 59.6835 13.3032 61.8368C14.9237 64.4715 16.5363 67.115 18.1568 69.7497C19.5638 72.043 20.963 74.3276 22.3701 76.621C23.0499 77.7326 23.7376 78.8355 24.4095 79.9472C24.4411 79.9909 24.4648 80.0435 24.4965 80.0872C24.2909 79.7896 24.0854 79.5008 23.8799 79.2031C24.0301 79.4132 24.1882 79.597 24.3779 79.7546C24.1091 79.527 23.8483 79.2994 23.5795 79.0718C23.7376 79.1944 23.9036 79.2994 24.0854 79.387C23.7692 79.2382 23.453 79.0894 23.1447 78.9493C23.3582 79.0368 23.5637 79.0981 23.785 79.1331C23.4372 79.0806 23.0815 79.0281 22.7337 78.9756C22.9234 78.9931 23.1131 78.9931 23.3028 78.9756C22.955 79.0281 22.5993 79.0806 22.2515 79.1331C22.4728 79.0981 22.6863 79.0368 22.8918 78.9493C22.5756 79.0981 22.2594 79.2469 21.9511 79.387C22.1329 79.2994 22.2989 79.1944 22.457 79.0718C22.1883 79.2994 21.9274 79.527 21.6586 79.7546C21.8483 79.5883 22.0064 79.4132 22.1566 79.2031C21.9511 79.5008 21.7456 79.7896 21.5401 80.0872C22.1329 79.1681 22.6863 78.2228 23.2554 77.2862C24.5992 75.0979 25.9352 72.9096 27.279 70.7301C28.8995 68.0866 30.5121 65.4519 32.1325 62.8084C33.5159 60.5501 34.9071 58.283 36.2905 56.0247C36.9308 54.9743 37.5948 53.9327 38.2193 52.8736C38.3141 52.7073 38.4011 52.5409 38.4722 52.3571C38.3378 52.7073 38.2035 53.0574 38.077 53.3988C38.1481 53.1974 38.1956 52.9961 38.2272 52.786C38.1798 53.1712 38.1323 53.5651 38.0849 53.9502C38.1086 53.7051 38.1165 53.4775 38.0928 53.2324C38.1402 53.6176 38.1877 54.0115 38.2351 54.3966C38.2035 54.1603 38.1481 53.9327 38.0691 53.7139C38.2035 54.064 38.3378 54.4141 38.4643 54.7555C38.3774 54.5367 38.2746 54.3353 38.1481 54.1428C38.3537 54.4404 38.5592 54.7292 38.7647 55.0268C38.6303 54.8343 38.4801 54.6767 38.3141 54.5279C38.5829 54.7555 38.8438 54.9831 39.1125 55.2107C38.9623 55.0881 38.8042 54.9831 38.6303 54.8956C38.9465 55.0444 39.2627 55.1932 39.571 55.3332C39.3576 55.2369 39.1441 55.1756 38.9149 55.1319C39.2627 55.1844 39.6184 55.2369 39.9662 55.2894C39.5947 55.2457 39.2153 55.2719 38.8438 55.2719C38.0533 55.2719 37.2628 55.2719 36.4644 55.2719C33.8242 55.2719 31.1761 55.2719 28.5358 55.2719C25.3186 55.2719 22.0934 55.2719 18.8761 55.2719C16.0857 55.2719 13.2953 55.2719 10.5049 55.2719C9.15317 55.2719 7.79354 55.2894 6.44181 55.2719C6.426 55.2719 6.40229 55.2719 6.38647 55.2719C5.37466 55.2719 4.3075 54.7818 3.58816 53.994C2.90044 53.2324 2.38663 51.9895 2.43406 50.8953C2.48148 49.7662 2.81348 48.5933 3.58816 47.7967C4.35493 47.0177 5.30351 46.5187 6.37067 46.5187Z" fill="white"/>
<path d="M6.37374 32.4784C7.48832 32.4784 8.6029 32.4784 9.71748 32.4784C12.3893 32.4784 15.0533 32.4784 17.7251 32.4784C20.9424 32.4784 24.1675 32.4784 27.3848 32.4784C30.1515 32.4784 32.9182 32.4784 35.6849 32.4784C36.9892 32.4784 38.3014 32.4959 39.6057 32.4784C39.7243 32.4784 39.8349 32.4697 39.9535 32.4609C39.6057 32.5134 39.25 32.5659 38.9022 32.6185C39.1314 32.5835 39.3448 32.5222 39.5583 32.4171C39.2421 32.5659 38.9259 32.7148 38.6176 32.8548C38.7915 32.7673 38.9496 32.6622 39.0998 32.5397C38.831 32.7673 38.5702 32.9949 38.3014 33.2224C38.4753 33.0736 38.6176 32.9073 38.752 32.7235C38.5464 33.0211 38.3409 33.31 38.1354 33.6076C38.2619 33.415 38.3646 33.2137 38.4516 32.9949C38.3172 33.345 38.1828 33.6951 38.0563 34.0365C38.1354 33.8089 38.1907 33.5901 38.2223 33.3537C38.1749 33.7389 38.1275 34.1328 38.0801 34.5179C38.1038 34.2728 38.1038 34.0452 38.0722 33.8001C38.1196 34.1853 38.167 34.5792 38.2144 34.9643C38.1828 34.7542 38.1354 34.5529 38.0643 34.3516C38.1986 34.7017 38.333 35.0519 38.4595 35.3932C38.3014 34.9906 38.0643 34.6405 37.8429 34.2816C37.4556 33.6426 37.0603 33.0124 36.673 32.3734C35.3529 30.2201 34.0328 28.0668 32.7127 25.9135C31.0922 23.2788 29.4796 20.6354 27.8591 18.0006C26.452 15.7073 25.0529 13.4227 23.6458 11.1294C22.966 10.0177 22.2783 8.91484 21.6064 7.80318C21.5748 7.75942 21.551 7.7069 21.5194 7.66313C21.7249 7.96074 21.9305 8.2496 22.136 8.5472C21.9858 8.33713 21.8277 8.15331 21.638 7.99575C21.9068 8.22334 22.1676 8.45092 22.4364 8.6785C22.2783 8.55596 22.1123 8.45092 21.9305 8.36339C22.2467 8.51219 22.5629 8.661 22.8711 8.80105C22.6577 8.71351 22.4522 8.65224 22.2309 8.61723C22.5787 8.66975 22.9344 8.72227 23.2822 8.77479C23.0925 8.75728 22.9028 8.75728 22.713 8.77479C23.0609 8.72227 23.4166 8.66975 23.7644 8.61723C23.5431 8.65224 23.3296 8.71351 23.1241 8.80105C23.4403 8.65224 23.7565 8.50344 24.0648 8.36339C23.883 8.45092 23.717 8.55596 23.5589 8.6785C23.8276 8.45092 24.0885 8.22334 24.3573 7.99575C24.1675 8.16206 24.0094 8.33713 23.8592 8.5472C24.0648 8.2496 24.2703 7.96074 24.4758 7.66313C23.883 8.58222 23.3296 9.52756 22.7605 10.4642C21.4167 12.6524 20.0807 14.8407 18.7369 17.0203C17.1164 19.6637 15.5038 22.2985 13.8833 24.9419C12.5 27.2002 11.1087 29.4673 9.72539 31.7256C9.0851 32.776 8.42109 33.8177 7.79661 34.8768C7.70175 35.0431 7.6148 35.2094 7.54365 35.3932C7.67804 35.0431 7.81242 34.693 7.9389 34.3516C7.86775 34.5529 7.82032 34.7542 7.78871 34.9643C7.83614 34.5792 7.88356 34.1853 7.93099 33.8001C7.90728 34.0452 7.89937 34.2728 7.92308 34.5179C7.87566 34.1328 7.82823 33.7389 7.7808 33.3537C7.81242 33.5901 7.86776 33.8177 7.9468 34.0365C7.81242 33.6864 7.67804 33.3362 7.55156 32.9949C7.63852 33.2137 7.74128 33.415 7.86776 33.6076C7.66223 33.31 7.4567 33.0211 7.25117 32.7235C7.38556 32.9161 7.53575 33.0736 7.70175 33.2224C7.43298 32.9949 7.17213 32.7673 6.90336 32.5397C7.05355 32.6622 7.21165 32.7673 7.38556 32.8548C7.06936 32.706 6.75317 32.5572 6.44488 32.4171C6.65831 32.5134 6.87174 32.5747 7.10098 32.6185C6.75317 32.5659 6.39745 32.5134 6.04964 32.4609C6.17612 32.4697 6.27097 32.4784 6.37374 32.4784C7.40137 32.5047 8.4369 32.9511 9.17205 33.7564C9.85978 34.5179 10.3736 35.7609 10.3262 36.855C10.2787 37.9842 9.94673 39.1571 9.17205 39.9536C8.40528 40.7327 7.44089 41.2579 6.37374 41.2316C4.69001 41.1966 2.93513 40.4876 1.78893 39.0696C0.690151 37.7041 -0.10033 35.8834 0.0103378 34.0102C0.089386 32.6447 0.421387 31.3668 1.11702 30.2288C1.78102 29.1435 2.45293 28.0493 3.11694 26.9639C5.67811 22.7886 8.23928 18.6134 10.8004 14.4293C12.9031 10.9893 15.0137 7.55809 17.1164 4.11809C17.2666 3.86425 17.4247 3.61916 17.5749 3.36532C18.1915 2.37621 18.9108 1.45712 19.8989 0.896918C21.3929 0.0478591 23.1636 -0.293515 24.792 0.292948C26.3493 0.853152 27.4876 1.87728 28.4045 3.34781C28.4441 3.41784 28.4836 3.47911 28.531 3.54913C28.7682 3.92552 28.9974 4.31066 29.2345 4.68705C31.4874 8.36339 33.7403 12.0397 35.9932 15.7161C38.4753 19.7688 40.9574 23.8128 43.4395 27.8655C43.9613 28.7233 44.4909 29.5724 45.0126 30.4302C46.3011 32.5659 46.3406 35.6996 45.06 37.8616C43.819 39.9624 41.8428 41.2141 39.5583 41.2316C36.7916 41.2491 34.0328 41.2316 31.2661 41.2316C26.4283 41.2316 21.5827 41.2316 16.7449 41.2316C13.4565 41.2316 10.1602 41.2316 6.87174 41.2316C6.70574 41.2316 6.53974 41.2316 6.36583 41.2316C5.35402 41.2316 4.28686 40.7414 3.56752 39.9536C2.8798 39.1921 2.36598 37.9492 2.41341 36.855C2.46084 35.7258 2.79284 34.5529 3.56752 33.7564C4.358 32.9773 5.30658 32.4784 6.37374 32.4784Z" fill="white"/>
</svg>
