<svg width="630" height="354" viewBox="0 0 630 354" fill="none" xmlns="http://www.w3.org/2000/svg">
<path d="M447.534 290.815L414.214 271.878L377.15 254.346L340.362 237.133L312.042 215.026L282.062 193.089L242.423 179.366L208.976 194.409L170.528 203.43L139.591 210.728L74.9938 204.302L35.4184 188.43L4.90711 168.77L2.99219 132.939L5.90714 117.939L37.3759 101.321L70.0575 84.2783L100.25 65.8737L138.889 52.001L162.06 29.7664L212.784 23.4897L267.424 2.5105L332.085 5.06374L410.15 31.0856L468.13 68.4056L483.067 96.0658L521.472 110.215L547.324 131.067L582.686 146.833L627.219 170.089L627.113 202.536L602.304 219.537L595.559 240.367L566.58 258.112L540.43 278.73L509.174 294.921L447.534 290.815Z" fill="#97918B"/>
<path d="M332.101 149.748L342.378 81.5551L332.527 2.59581L266.993 0L250.078 81.8317L266.568 147.174L332.101 149.748Z" fill="#79736D"/>
<path d="M211.76 168.237L222.037 94.3846L212.185 21.0637L160.929 27.4256L143.992 110.938L160.503 174.578L211.76 168.237Z" fill="#79736D"/>
<path d="M102.322 209.515L137.131 197.026L147.408 124.918L137.557 49.8521L99.1731 63.6183L82.2578 140.684L98.7476 209.154L102.322 209.515Z" fill="#79736D"/>
<path d="M469.603 213.834L479.922 120.577L470.007 66.6605L411.24 28.8511L394.367 91.7249L410.836 176.003L469.603 213.834Z" fill="#868079"/>
<path d="M522.305 255.197L532.625 168.918L522.71 108.023L484.794 94.0657L475.453 165.365L484.39 241.239L522.305 255.197Z" fill="#79736D"/>
<path d="M567.854 260.22L583.386 250.709L593.62 191.218L583.684 144.579L548.64 128.94L531.789 185.92L548.215 275.731L567.854 260.22Z" fill="#868079"/>
<path d="M36.2322 99.1296L3.72078 116.3L2.125 133.109L3.55056 170.855L34.5087 190.727L35.9555 191.302L68.5733 204.387L86.4035 133.003L68.935 82.0867L36.2322 99.1296Z" fill="#726D67"/>
<path d="M450.449 257.516L398.107 222.493L324.595 197.769L281.977 196.089L310.509 216.983L339.063 239.26L376.106 256.601L412.98 274.027L446.789 293.24L495.364 296.495L463.087 284.367L450.449 257.516Z" fill="#A29D97"/>
<path d="M280.911 195.302L281.975 196.09L324.593 197.77L332.104 149.748L266.57 147.174L272.89 192.536L280.911 195.302Z" fill="#868079"/>
<path d="M242.554 182.025L272.895 192.536L266.575 147.174L211.766 168.238L214.659 194.558L242.554 182.025Z" fill="#726D67"/>
<path d="M209.998 196.663L214.658 194.557L211.764 168.237L160.508 174.578L171.104 205.834L209.998 196.663Z" fill="#868079"/>
<path d="M398.114 222.494L410.838 176.004L332.112 149.748L324.602 197.77L398.114 222.494Z" fill="#918C85"/>
<path d="M171.107 205.834L160.511 174.578L137.148 197.025L143.468 212.366L171.107 205.834Z" fill="#726D67"/>
<path d="M143.465 212.366L137.145 197.026L102.336 209.515L139.741 213.239L143.465 212.366Z" fill="#8C867F"/>
<path d="M450.451 257.518L469.6 213.836L410.833 176.005L398.109 222.496L450.451 257.518Z" fill="#97918B"/>
<path d="M463.092 284.369L484.39 241.24L469.602 213.835L450.453 257.517L463.092 284.369Z" fill="#A7A39E"/>
<path d="M266.575 147.174L267.001 0L212.191 21.0643L211.766 168.238L266.575 147.174Z" fill="#6B6661"/>
<path d="M410.835 176.004L411.239 28.8521L332.535 2.59619L332.109 149.749L410.835 176.004Z" fill="#7F7A73"/>
<path d="M495.363 296.496L509.683 297.432L509.747 297.411L522.3 255.197L484.384 241.239L463.086 284.368L495.363 296.496Z" fill="#97918B"/>
<path d="M160.511 174.578L160.936 27.4258L137.574 49.8518L137.148 197.025L160.511 174.578Z" fill="#5E5A55"/>
<path d="M541.964 280.667L547.985 275.922L522.304 255.198L509.75 297.412L541.964 280.667Z" fill="#A29D97"/>
<path d="M74.4002 206.729L98.7625 209.154L99.188 63.6191L68.932 82.0877L68.5703 204.388L74.4002 206.729Z" fill="#6B6661"/>
<path d="M484.389 241.24L484.793 94.0665L470.006 66.6616L469.602 213.835L484.389 241.24Z" fill="#97918B"/>
<path d="M547.978 275.922L548.212 275.73L548.638 128.94L522.701 108.024L522.297 255.198L547.978 275.922Z" fill="#97918B"/>
<path d="M3.54264 170.855L3.71286 116.3L0.5 132.769L2.47879 170.174L3.54264 170.855Z" fill="#57534F"/>
<path d="M597.625 242.005L604.412 221.111L629.583 203.834L629.69 168.599L583.688 144.577L583.391 250.707L597.625 242.005Z" fill="#97918B"/>
<path opacity="0.4" d="M450.447 257.517L398.105 222.494L376.317 199.685L368.807 161.982L332.189 121.343L266.996 0L266.57 147.174L272.89 192.536L281.975 196.09L310.507 216.984L339.061 239.261L376.105 256.602L412.978 274.028L446.787 293.241L495.363 296.496L463.085 284.368L450.447 257.517Z" fill="#363330"/>
<path d="M366.368 311.411L382.092 302.283L271.068 238.175L253.961 246.728L366.368 311.411Z" fill="#575757"/>
<path d="M255.339 247.325L271.062 238.176L267.19 234.091L250.594 242.793L255.339 247.325Z" fill="#454545"/>
<path d="M251.467 243.239L267.19 234.09L264.233 228.962L247.445 237.154L251.467 243.239Z" fill="#3C3C3C"/>
<path d="M248.511 238.112L264.235 228.963L262.639 223.58L246.234 232.09L248.511 238.112Z" fill="#363636"/>
<path d="M246.911 232.729L262.635 223.579L262.656 218.771L246.57 226.792L246.911 232.729Z" fill="#303030"/>
<path d="M246.93 227.899L262.653 218.771L264.27 215.239L248.696 223.856L246.93 227.899Z" fill="#2D2D2D"/>
<path d="M370.623 312.263L385.963 302.667L382.091 302.284L366.367 311.412L370.623 312.263Z" fill="#686868"/>
<path d="M259.799 243.814L267.671 237.75L264.756 234.687L255.586 238.985L259.799 243.814Z" fill="#454545"/>
<path d="M256.908 239.24L264.76 234.686L262.547 230.835L252.93 234.686L256.908 239.24Z" fill="#3C3C3C"/>
<path d="M254.68 235.41L262.552 230.836L261.361 226.793L252.297 230.325L254.68 235.41Z" fill="#393939"/>
<path d="M253.484 231.367L261.357 226.793V223.176L252.484 226.431L253.484 231.367Z" fill="#363636"/>
<path d="M253.504 227.75L261.355 223.175L262.568 220.537L253.078 224.303L253.504 227.75Z" fill="#303030"/>
<path d="M370.453 306.687L377.645 301.219L267.685 237.75L259.812 242.303L370.453 306.687Z" fill="#4E4E4E"/>
<path d="M373.851 307.114L380.553 301.518L377.638 301.22L369.766 305.795L373.851 307.114Z" fill="#3C3C3C"/>
<path d="M250.875 225.623L252.492 222.091L255.471 220.389L259.428 220.793L261.365 221.666C260.918 222.517 260.684 223.453 260.684 224.41L260.088 224.134L256.982 223.815L254.747 225.091L253.535 227.73V231.347L254.726 235.389L256.939 239.219L259.854 242.283L369.814 305.774L372.729 306.072L374.963 304.795L376.176 302.135V298.518L374.984 294.476L372.771 290.625L370.112 287.816C370.729 287.369 371.261 286.795 371.644 286.135L374.261 288.901L377.218 294.029L378.814 299.412V304.242L377.176 307.774L374.197 309.476L370.325 309.093L259.301 245.006L255.428 240.921L252.471 235.794L250.875 230.41V225.581V225.623Z" fill="#3E3C3F"/>
<path d="M367.979 285.028L365.064 284.73L362.851 286.007L361.638 288.667L361.617 292.284L362.809 296.305L365.022 300.156L367.936 303.22L371.086 305.029L374 305.327L376.235 304.05L377.447 301.412V297.795L376.256 293.752L374.043 289.922L371.128 286.858L367.979 285.028Z" fill="#3E3C3F"/>
<path d="M261.167 223.346L258.252 223.07L256.017 224.346L254.805 226.985V230.602L255.996 234.644L258.209 238.474L261.124 241.538L264.273 243.368L267.167 243.666L269.401 242.389L270.635 239.73V236.112L269.443 232.091L267.23 228.24L264.316 225.176L261.167 223.346Z" fill="#3E3C3F"/>
<path d="M275.557 245.304L274.579 245.198L273.834 245.624L273.43 246.517V247.73L273.834 249.07L274.579 250.347L275.536 251.368L276.579 251.964L277.557 252.07L278.302 251.645L278.706 250.751V249.56L278.302 248.219L277.579 246.921L276.6 245.9L275.557 245.304Z" fill="#3E3C3F"/>
<path d="M286.614 251.707L285.657 251.601L284.912 252.027L284.508 252.899V254.112L284.891 255.452L285.635 256.729L286.614 257.75L287.657 258.367L288.636 258.474L289.38 258.027L289.763 257.154L289.784 255.963L289.38 254.601L288.636 253.325L287.678 252.303L286.614 251.707Z" fill="#3E3C3F"/>
<path d="M297.698 258.091L296.741 257.985L295.975 258.41L295.57 259.304V260.496L295.975 261.857L296.719 263.134L297.677 264.155L298.719 264.751L299.698 264.857L300.443 264.432L300.847 263.559V262.347L300.464 261.006L299.719 259.73L298.741 258.708L297.698 258.091Z" fill="#3E3C3F"/>
<path d="M308.784 264.495L307.805 264.389L307.061 264.814L306.656 265.708V266.9L307.061 268.24L307.784 269.538L308.763 270.559L309.805 271.155L310.784 271.261L311.529 270.836L311.933 269.942V268.729L311.529 267.389L310.784 266.112L309.827 265.091L308.784 264.495Z" fill="#3E3C3F"/>
<path d="M319.849 270.88L318.891 270.794L318.146 271.22L317.742 272.092V273.305L318.125 274.646L318.87 275.922L319.849 276.944L320.891 277.561L321.849 277.646L322.615 277.22L322.998 276.348L323.019 275.135L322.615 273.794L321.87 272.518L320.912 271.497L319.849 270.88Z" fill="#3E3C3F"/>
<path d="M330.932 277.282L329.954 277.176L329.209 277.601L328.805 278.474V279.686L329.209 281.027L329.954 282.325L330.911 283.346L331.954 283.942L332.932 284.048L333.677 283.623L334.081 282.729V281.538L333.698 280.176L332.954 278.899L331.975 277.878L330.932 277.282Z" fill="#3E3C3F"/>
<path d="M341.997 283.689L341.04 283.583L340.295 284.008L339.891 284.88V286.093L340.274 287.434L341.018 288.71L341.997 289.732L343.04 290.349L344.018 290.455L344.763 290.008L345.167 289.136V287.923L344.763 286.583L344.018 285.306L343.061 284.285L341.997 283.689Z" fill="#3E3C3F"/>
<path d="M353.089 290.07L352.131 289.964L351.365 290.389L350.961 291.283V292.475L351.365 293.836L352.11 295.113L353.067 296.134L354.131 296.73L355.089 296.836L355.833 296.411L356.238 295.538V294.326L355.855 292.985L355.11 291.687L354.153 290.687L353.089 290.07Z" fill="#3E3C3F"/>
<path d="M253.164 227.197L271.611 234.814L271.59 246.942L268.973 248.453L253.164 227.197Z" fill="#303030"/>
<path d="M268.992 236.346L268.971 248.453L266.311 249.963L255.758 243.878L253.141 239.325L253.162 227.197L268.992 236.346Z" fill="#3E3C3F"/>
<path d="M253.164 227.195L263.654 221.11L279.484 230.238L268.994 236.344L253.164 227.195Z" fill="#575757"/>
<path d="M271.578 232.26L375.623 287.836L375.581 301.943L371.644 304.22L271.578 232.26Z" fill="#303030"/>
<path d="M271.578 232.26L275.514 229.962L375.623 287.836L371.687 290.112L271.578 232.26Z" fill="#575757"/>
<path d="M371.683 290.113L371.64 304.22L271.531 246.367L271.574 232.26L371.683 290.113Z" fill="#3E3C3F"/>
<path d="M370.336 303.474L371.655 302.708L371.634 304.219L370.336 304.985V303.474Z" fill="#303030"/>
<path d="M270.234 245.601L271.532 244.835L371.662 302.709L370.343 303.475L270.234 245.601Z" fill="#575757"/>
<path d="M370.343 303.476V304.986L270.234 247.134V245.602L370.343 303.476Z" fill="#3E3C3F"/>
<path d="M297.214 239.664L296.235 239.558L295.49 239.984L295.086 240.856V242.069L295.49 243.409L296.214 244.686L297.192 245.707L298.235 246.324L299.214 246.409L299.958 245.984L300.363 245.111V243.899L299.958 242.558L299.235 241.282L298.256 240.26L297.214 239.664Z" fill="#504E50"/>
<path d="M297.409 240.877L296.792 240.813L296.323 241.09L296.047 241.643V242.409L296.302 243.26L296.77 244.069L297.387 244.728L298.047 245.111L298.664 245.154L299.132 244.899L299.387 244.324L299.409 243.58L299.153 242.707L298.685 241.899L298.068 241.26L297.409 240.877Z" fill="#615F62"/>
<path d="M297.537 240.856L296.962 240.792L296.515 241.047L296.281 241.579V242.302L296.515 243.111L296.962 243.877L297.537 244.473L298.154 244.834L298.749 244.898L299.196 244.643L299.43 244.111V243.388L299.196 242.6L298.749 241.834L298.175 241.217L297.537 240.856Z" fill="#3E3C3F"/>
<path d="M302.447 236.601L303.49 237.218L304.469 238.239L305.192 239.516L305.596 240.856V242.069L305.192 242.942L299.958 245.984L300.362 245.112V243.899L299.958 242.559L299.234 241.282L298.256 240.261L297.213 239.665L296.234 239.558L301.469 236.516L302.447 236.601Z" fill="#2A2A2A"/>
<path d="M334.128 260.964L333.149 260.879L332.404 261.304L332 262.177V263.39L332.404 264.73L333.149 266.007L334.106 267.028L335.149 267.645L336.128 267.73L336.872 267.305L337.277 266.432V265.219L336.894 263.879L336.149 262.602L335.17 261.581L334.128 260.964Z" fill="#504E50"/>
<path d="M334.317 262.198L333.7 262.134L333.232 262.411L332.977 262.964V263.73L333.232 264.581L333.7 265.389L334.296 266.028L334.977 266.432L335.594 266.475L336.062 266.219L336.317 265.645V264.9L336.062 264.028L335.594 263.219L334.977 262.581L334.317 262.198Z" fill="#615F62"/>
<path d="M334.425 262.198L333.851 262.134L333.404 262.389L333.17 262.921L333.148 263.645L333.404 264.432L333.851 265.219L334.425 265.815L335.042 266.177L335.638 266.241L336.085 265.985L336.319 265.453V264.751L336.085 263.943L335.638 263.177L335.063 262.56L334.425 262.198Z" fill="#3E3C3F"/>
<path d="M342.106 264.261L336.872 267.304L337.276 266.431V265.218L336.893 263.878L336.149 262.601L335.17 261.58L334.127 260.963L333.148 260.878L338.404 257.835L339.361 257.92L340.425 258.537L341.383 259.559L342.127 260.835L342.532 262.176V263.389L342.106 264.261Z" fill="#2A2A2A"/>
<path d="M250.786 220.962L266.51 211.813L263.148 213.728L247.445 222.877L250.786 220.962Z" fill="#717171"/>
<path d="M255.47 222.366L270.875 212.26L266.513 211.813L250.789 220.962L255.47 222.366Z" fill="#686868"/>
<path d="M292.461 238.984L307.291 228.729L270.864 212.26L255.141 221.409L292.461 238.984Z" fill="#5F5F5F"/>
<path d="M331.571 261.538L346.018 251.112L307.294 228.729L291.57 237.878L331.571 261.538Z" fill="#575757"/>
<path d="M374.344 311.603L390.067 302.475L391.876 298.496L375.748 306.688L374.344 311.603Z" fill="#2D2D2D"/>
<path d="M376.148 307.645L391.872 298.496L391.893 293.07L375.148 301.219L376.148 307.645Z" fill="#303030"/>
<path d="M367.681 287.369L382.426 276.666L346.021 251.113L330.297 260.24L367.681 287.369Z" fill="#4E4E4E"/>
<path d="M376.175 302.219L391.899 293.07L390.111 287.028L373.664 295.262L376.175 302.219Z" fill="#363636"/>
<path d="M374.383 296.156L390.107 287.029L386.766 281.262L369.766 289.518L374.383 296.156Z" fill="#3C3C3C"/>
<path d="M371.044 290.389L386.767 281.262L382.427 276.666L366.703 285.794L371.044 290.389Z" fill="#454545"/>
<path d="M374.38 296.156L371.061 290.39L366.699 285.794L330.316 260.219L291.57 237.856L255.165 221.388L250.803 220.941L247.441 222.856L245.633 226.835V232.261L247.42 238.325L250.739 244.091L255.101 248.686L366.636 313.092L370.997 313.539L374.359 311.624L376.168 307.667V302.241L374.38 296.177V296.156ZM374.849 306.581L373.231 310.113L370.253 311.816L366.359 311.411L255.335 247.325L251.463 243.24L248.505 238.112L246.909 232.729V227.899L248.548 224.367L251.527 222.665L255.484 223.069L291.634 239.431L330.231 261.708L366.359 287.092L370.295 291.241L373.253 296.368L374.849 301.752V306.581Z" fill="#3E3C3F"/>
<path d="M207.367 269.559L297.093 316.815L297.071 330.922L293.135 333.22L207.367 269.559Z" fill="#303030"/>
<path d="M207.367 269.558L211.282 267.282L297.093 316.815L293.178 319.091L207.367 269.558Z" fill="#575757"/>
<path d="M293.173 319.092L293.131 333.22L207.32 283.665L207.363 269.559L293.173 319.092Z" fill="#3E3C3F"/>
<path d="M298.227 351.007L313.951 341.858L202.927 277.771L185.82 286.325L298.227 351.007Z" fill="#575757"/>
<path d="M187.214 286.9L202.937 277.772L199.065 273.687L182.469 282.39L187.214 286.9Z" fill="#454545"/>
<path d="M183.342 282.814L199.065 273.687L196.108 268.559L179.32 276.729L183.342 282.814Z" fill="#3C3C3C"/>
<path d="M180.386 277.709L196.11 268.56L194.514 263.177L178.109 271.688L180.386 277.709Z" fill="#363636"/>
<path d="M178.786 272.325L194.51 263.176L194.531 258.367L178.445 266.388L178.786 272.325Z" fill="#303030"/>
<path d="M178.805 267.495L194.528 258.367L196.146 254.835L180.571 263.452L178.805 267.495Z" fill="#2D2D2D"/>
<path d="M302.49 351.86L317.831 342.264L313.958 341.86L298.234 351.009L302.49 351.86Z" fill="#686868"/>
<path d="M191.674 283.41L199.525 277.325L196.631 274.261L187.461 278.58L191.674 283.41Z" fill="#454545"/>
<path d="M188.789 278.836L196.64 274.261L194.428 270.431L184.789 274.261L188.789 278.836Z" fill="#3C3C3C"/>
<path d="M186.539 274.985L194.412 270.432L193.22 266.389L184.156 269.921L186.539 274.985Z" fill="#393939"/>
<path d="M185.359 270.964L193.232 266.389V262.772L184.359 266.027L185.359 270.964Z" fill="#363636"/>
<path d="M185.379 267.346L193.23 262.771L194.443 260.112L184.953 263.878L185.379 267.346Z" fill="#303030"/>
<path d="M302.313 346.286L309.504 340.817L199.523 277.327L191.672 281.901L302.313 346.286Z" fill="#4E4E4E"/>
<path d="M305.726 346.71L312.428 341.115L309.513 340.817L301.641 345.391L305.726 346.71Z" fill="#3C3C3C"/>
<path d="M182.742 265.218L184.359 261.686L187.338 259.984L191.296 260.388L193.232 261.261C192.785 262.112 192.551 263.048 192.551 264.005L191.955 263.729L188.849 263.41L186.615 264.686L185.402 267.325V270.942L186.593 274.984L188.806 278.814L191.721 281.878L301.681 345.369L304.596 345.667L306.83 344.39L308.043 341.752V338.135L306.873 334.092L304.639 330.262L301.979 327.454C302.596 326.986 303.128 326.432 303.511 325.794L306.128 328.56L309.085 333.688L310.681 339.071V343.901L309.043 347.433L306.064 349.135L302.192 348.752L191.168 284.666L187.295 280.58L184.338 275.453L182.742 270.069V265.24V265.218Z" fill="#3E3C3F"/>
<path d="M201.281 281.986L206.537 278.922L207.75 276.283L202.515 279.326L201.281 281.986Z" fill="#CCA23C"/>
<path d="M193.04 262.943L198.274 259.9L195.359 259.624L190.125 262.645L193.04 262.943Z" fill="#D8AB3F"/>
<path d="M202.508 279.325L207.742 276.282V272.665L202.508 275.707V279.325Z" fill="#D8AB3F"/>
<path d="M196.188 264.771L201.422 261.728L198.273 259.898L193.039 262.941L196.188 264.771Z" fill="#E4B543"/>
<path d="M202.512 275.708L207.746 272.665L206.554 268.623L201.32 271.665L202.512 275.708Z" fill="#D8AB3F"/>
<path d="M199.089 267.837L204.344 264.794L201.429 261.73L196.195 264.773L199.089 267.837Z" fill="#F0BE46"/>
<path d="M201.32 271.665L206.554 268.623L204.341 264.793L199.086 267.836L201.32 271.665Z" fill="#E4B543"/>
<path d="M193.042 262.942L190.127 262.644L187.892 263.921L186.68 266.58V270.197L187.871 274.219L190.084 278.07L192.999 281.134L196.148 282.942L199.063 283.24L201.276 281.985L202.51 279.325V275.708L201.318 271.666L199.084 267.836L196.191 264.772L193.042 262.942Z" fill="#A88531"/>
<path d="M210.172 291.241L215.406 288.177L215.81 287.305L210.576 290.348L210.172 291.241Z" fill="#CCA23C"/>
<path d="M207.403 284.878L212.658 281.857L211.679 281.751L206.445 284.793L207.403 284.878Z" fill="#D8AB3F"/>
<path d="M210.57 290.346L215.804 287.303V286.091L210.57 289.133V290.346Z" fill="#D8AB3F"/>
<path d="M208.47 285.495L213.704 282.453L212.662 281.857L207.406 284.878L208.47 285.495Z" fill="#E4B543"/>
<path d="M210.576 289.134L215.81 286.091L215.406 284.751L210.172 287.794L210.576 289.134Z" fill="#D8AB3F"/>
<path d="M214.673 283.448L209.43 286.495L210.167 287.764L215.41 284.717L214.673 283.448Z" fill="#E4B543"/>
<path d="M209.426 286.517L214.66 283.474L213.703 282.453L208.469 285.495L209.426 286.517Z" fill="#F0BE46"/>
<path d="M207.396 284.88L206.438 284.794L205.693 285.22L205.289 286.092V287.305L205.672 288.646L206.417 289.922L207.396 290.965L208.438 291.561L209.417 291.667L210.162 291.241L210.566 290.348V289.135L210.162 287.794L209.417 286.518L208.459 285.497L207.396 284.88Z" fill="#A88531"/>
<path d="M221.234 297.624L226.49 294.582L226.873 293.709L221.639 296.752L221.234 297.624Z" fill="#CCA23C"/>
<path d="M218.487 291.284L223.721 288.241L222.763 288.135L217.508 291.177L218.487 291.284Z" fill="#D8AB3F"/>
<path d="M221.633 296.752L226.867 293.709L226.888 292.496L221.633 295.539V296.752Z" fill="#D8AB3F"/>
<path d="M219.548 291.902L224.782 288.859L223.719 288.242L218.484 291.285L219.548 291.902Z" fill="#E4B543"/>
<path d="M221.633 295.539L226.888 292.497L226.484 291.156L221.25 294.199L221.633 295.539Z" fill="#D8AB3F"/>
<path d="M218.487 291.284L217.508 291.178L216.764 291.604L216.359 292.497V293.71L216.764 295.05L217.508 296.327L218.466 297.348L219.53 297.965L220.487 298.05L221.232 297.625L221.636 296.753V295.54L221.253 294.199L220.508 292.923L219.551 291.901L218.487 291.284Z" fill="#A88531"/>
<path d="M220.512 292.922L225.746 289.858L224.789 288.858L219.555 291.901L220.512 292.922Z" fill="#F0BE46"/>
<path d="M225.737 289.921L220.492 292.964L221.229 294.234L226.474 291.191L225.737 289.921Z" fill="#E4B543"/>
<path d="M232.32 304.029L237.554 300.986L237.959 300.093L232.725 303.135L232.32 304.029Z" fill="#CCA23C"/>
<path d="M229.551 297.688L234.807 294.645L233.828 294.539L228.594 297.581L229.551 297.688Z" fill="#D8AB3F"/>
<path d="M232.719 303.134L237.953 300.091V298.879L232.719 301.943V303.134Z" fill="#D8AB3F"/>
<path d="M230.611 298.283L235.845 295.241L234.802 294.645L229.547 297.688L230.611 298.283Z" fill="#E4B543"/>
<path d="M232.725 301.942L237.959 298.878L237.554 297.538L232.32 300.58L232.725 301.942Z" fill="#D8AB3F"/>
<path d="M229.552 297.687L228.594 297.581L227.85 298.007L227.445 298.879V300.092L227.828 301.432L228.573 302.73L229.552 303.73L230.594 304.347L231.573 304.454L232.318 304.028L232.722 303.134V301.943L232.318 300.581L231.594 299.304L230.616 298.283L229.552 297.687Z" fill="#A88531"/>
<path d="M232.325 300.58L237.559 297.537L236.836 296.261L231.602 299.303L232.325 300.58Z" fill="#E4B543"/>
<path d="M231.596 299.304L236.83 296.262L235.851 295.24L230.617 298.283L231.596 299.304Z" fill="#F0BE46"/>
<path d="M243.383 310.411L248.638 307.368L249.043 306.496L243.787 309.538L243.383 310.411Z" fill="#CCA23C"/>
<path d="M240.629 304.07L245.885 301.027L244.906 300.942L239.672 303.985L240.629 304.07Z" fill="#D8AB3F"/>
<path d="M243.781 309.54L249.037 306.497V305.284L243.803 308.327L243.781 309.54Z" fill="#D8AB3F"/>
<path d="M241.704 304.688L246.939 301.646L245.896 301.029L240.641 304.071L241.704 304.688Z" fill="#E4B543"/>
<path d="M243.803 308.327L249.037 305.285L248.633 303.944L243.398 306.987L243.803 308.327Z" fill="#D8AB3F"/>
<path d="M242.668 305.71L247.903 302.667L246.945 301.646L241.711 304.689L242.668 305.71Z" fill="#F0BE46"/>
<path d="M240.643 304.07L239.686 303.985L238.941 304.411L238.537 305.283L238.516 306.496L238.92 307.836L239.665 309.113L240.643 310.134L241.686 310.751L242.643 310.837L243.388 310.411L243.792 309.539L243.814 308.326L243.409 306.985L242.665 305.709L241.707 304.687L240.643 304.07Z" fill="#A88531"/>
<path d="M243.401 306.986L248.635 303.943L247.89 302.666L242.656 305.709L243.401 306.986Z" fill="#E4B543"/>
<path d="M254.469 316.816L259.724 313.773L260.107 312.88L254.873 315.944L254.469 316.816Z" fill="#CCA23C"/>
<path d="M251.729 310.475L256.963 307.432L256.005 307.326L250.75 310.368L251.729 310.475Z" fill="#D8AB3F"/>
<path d="M254.867 315.944L260.101 312.88L260.123 311.688L254.867 314.731V315.944Z" fill="#D8AB3F"/>
<path d="M252.761 311.093L258.017 308.029L256.953 307.433L251.719 310.475L252.761 311.093Z" fill="#E4B543"/>
<path d="M254.867 314.73L260.123 311.687L259.719 310.326L254.484 313.39L254.867 314.73Z" fill="#D8AB3F"/>
<path d="M258.994 309.044L253.75 312.09L254.487 313.359L259.731 310.314L258.994 309.044Z" fill="#E4B543"/>
<path d="M251.714 310.476L250.735 310.369L249.99 310.795L249.586 311.688V312.88L249.99 314.242L250.735 315.518L251.692 316.54L252.735 317.135L253.714 317.242L254.458 316.816L254.863 315.944V314.731L254.48 313.39L253.735 312.093L252.756 311.093L251.714 310.476Z" fill="#A88531"/>
<path d="M253.744 312.091L258.979 309.049L258.021 308.027L252.766 311.091L253.744 312.091Z" fill="#F0BE46"/>
<path d="M265.938 322.327L271.193 319.285V318.072L265.959 321.115L265.938 322.327Z" fill="#D8AB3F"/>
<path d="M265.547 323.22L270.781 320.156L271.185 319.284L265.93 322.327L265.547 323.22Z" fill="#CCA23C"/>
<path d="M262.786 316.879L268.041 313.815L267.062 313.73L261.828 316.772L262.786 316.879Z" fill="#D8AB3F"/>
<path d="M263.853 317.476L269.087 314.434L268.045 313.817L262.789 316.881L263.853 317.476Z" fill="#E4B543"/>
<path d="M265.951 321.114L271.185 318.072L270.781 316.731L265.547 319.774L265.951 321.114Z" fill="#D8AB3F"/>
<path d="M264.809 318.497L270.064 315.454L269.086 314.433L263.852 317.476L264.809 318.497Z" fill="#F0BE46"/>
<path d="M262.786 316.88L261.829 316.773L261.084 317.199L260.68 318.071V319.284L261.063 320.625L261.807 321.901L262.786 322.923L263.829 323.54L264.807 323.625L265.552 323.22L265.935 322.327L265.956 321.114L265.552 319.773L264.807 318.497L263.85 317.476L262.786 316.88Z" fill="#A88531"/>
<path d="M270.048 315.493L264.805 318.539L265.542 319.808L270.786 316.763L270.048 315.493Z" fill="#E4B543"/>
<path d="M276.625 329.602L281.88 326.559L282.285 325.687L277.029 328.73L276.625 329.602Z" fill="#CCA23C"/>
<path d="M273.872 323.263L279.106 320.22L278.148 320.114L272.914 323.156L273.872 323.263Z" fill="#D8AB3F"/>
<path d="M277.023 328.731L282.279 325.688V324.475L277.045 327.518L277.023 328.731Z" fill="#D8AB3F"/>
<path d="M274.931 323.879L280.165 320.837L279.101 320.22L273.867 323.262L274.931 323.879Z" fill="#E4B543"/>
<path d="M277.045 327.519L282.279 324.476L281.875 323.135L276.641 326.178L277.045 327.519Z" fill="#D8AB3F"/>
<path d="M275.895 324.901L281.129 321.837L280.172 320.837L274.938 323.88L275.895 324.901Z" fill="#F0BE46"/>
<path d="M281.148 321.777L275.906 324.826L276.655 326.113L281.897 323.065L281.148 321.777Z" fill="#E4B543"/>
<path d="M273.87 323.264L272.912 323.157L272.168 323.583L271.742 324.476V325.689L272.146 327.03L272.891 328.306L273.849 329.328L274.912 329.945L275.87 330.03L276.615 329.604L277.019 328.732L277.04 327.519L276.636 326.179L275.891 324.902L274.934 323.881L273.87 323.264Z" fill="#A88531"/>
<path d="M287.695 336.008L292.929 332.966L293.334 332.072L288.1 335.115L287.695 336.008Z" fill="#CCA23C"/>
<path d="M284.955 329.667L290.189 326.624L289.211 326.518L283.977 329.56L284.955 329.667Z" fill="#D8AB3F"/>
<path d="M288.102 335.114L293.336 332.071V330.879L288.102 333.922V335.114Z" fill="#D8AB3F"/>
<path d="M286.003 330.262L291.238 327.22L290.195 326.624L284.961 329.667L286.003 330.262Z" fill="#E4B543"/>
<path d="M288.1 333.923L293.334 330.881L292.951 329.519L287.695 332.562L288.1 333.923Z" fill="#D8AB3F"/>
<path d="M286.979 331.285L292.213 328.242L291.234 327.221L286 330.263L286.979 331.285Z" fill="#F0BE46"/>
<path d="M292.21 328.251L286.969 331.302L287.707 332.57L292.948 329.52L292.21 328.251Z" fill="#E4B543"/>
<path d="M284.956 329.666L283.977 329.56L283.232 329.986L282.828 330.858V332.071L283.232 333.411L283.956 334.709L284.935 335.709L285.977 336.326L286.956 336.433L287.701 336.007L288.105 335.113V333.922L287.701 332.56L286.977 331.283L285.998 330.262L284.956 329.666Z" fill="#A88531"/>
<path d="M185.062 266.793L203.488 274.411L203.467 286.539L200.85 288.049L185.062 266.793Z" fill="#C09838"/>
<path d="M200.875 275.921L200.854 288.049L198.194 289.56L187.641 283.475L185.023 278.921L185.066 266.793L200.875 275.921Z" fill="#F0BE46"/>
<path d="M185.062 266.794L195.531 260.709L211.361 269.837L200.871 275.922L185.062 266.794Z" fill="#F4D078"/>
<path d="M203.445 271.837L293.192 319.094L293.149 333.222L289.213 335.498L203.445 271.837Z" fill="#C09838"/>
<path d="M203.445 271.835L207.382 269.559L293.192 319.092L289.256 321.39L203.445 271.835Z" fill="#F3CA68"/>
<path d="M289.259 321.392L289.217 335.498L203.406 285.965L203.449 271.837L289.259 321.392Z" fill="#F0BE46"/>
<path d="M287.914 334.732L289.212 333.987V335.497L287.914 336.263V334.732Z" fill="#C09838"/>
<path d="M202.102 285.197L203.399 284.431L289.21 333.986L287.912 334.73L202.102 285.197Z" fill="#F4D078"/>
<path d="M287.912 334.731V336.263L202.102 286.709V285.198L287.912 334.731Z" fill="#F0BE46"/>
<path d="M226.232 291.241L225.445 289.858L222.573 288.219V288.943L215.104 284.645L214.466 283.517L211.594 281.879V284.134L212.381 285.496L215.104 287.07L215.743 288.177L224.36 293.156V292.411L226.232 293.496V291.241Z" fill="#CCA23C"/>
<path d="M281.889 325.624V323.369L281.101 321.986L278.229 320.348V321.071L270.761 316.752L270.101 315.667L267.25 314.007V316.262L268.037 317.624L270.739 319.199L271.378 320.305L279.995 325.284V324.539L281.889 325.624Z" fill="#CCA23C"/>
<path d="M269.303 315.964L270.09 315.517V317.772L269.281 318.219L269.303 315.964Z" fill="#C09838"/>
<path d="M266.422 314.304L267.209 313.858L270.082 315.517L269.294 315.964L266.422 314.304Z" fill="#F5D689"/>
<path d="M269.294 315.965L269.273 318.22L266.422 316.56V314.305L269.294 315.965Z" fill="#F1C457"/>
<path d="M280.273 322.305L281.061 321.858V324.092L280.273 324.561V322.305Z" fill="#C09838"/>
<path d="M277.406 320.645L278.193 320.198L281.066 321.858L280.279 322.304L277.406 320.645Z" fill="#F5D689"/>
<path d="M280.279 322.305V324.56L277.406 322.901V320.645L280.279 322.305Z" fill="#F1C457"/>
<path d="M213.641 283.835L214.428 283.388V285.622L213.641 286.09V283.835Z" fill="#C09838"/>
<path d="M210.758 282.176L211.545 281.729L214.417 283.389L213.63 283.835L210.758 282.176Z" fill="#F5D689"/>
<path d="M213.63 283.836V286.092L210.758 284.432V282.177L213.63 283.836Z" fill="#F1C457"/>
<path d="M224.617 290.177L225.426 289.73L225.404 291.964L224.617 292.432V290.177Z" fill="#C09838"/>
<path d="M221.766 288.516L222.553 288.069L225.425 289.729L224.617 290.176L221.766 288.516Z" fill="#F5D689"/>
<path d="M224.607 290.176V292.432L221.734 290.772L221.756 288.517L224.607 290.176Z" fill="#F1C457"/>
<path d="M222.181 288.773L222.309 288.709L221.841 288.454L221.756 288.518L221.734 290.773L222.862 291.412V289.943L222.181 288.773Z" fill="#CCA23C"/>
<path d="M277.853 320.901L277.959 320.837L277.534 320.582L277.406 320.645V322.901L278.534 323.539L278.513 322.071L277.853 320.901Z" fill="#CCA23C"/>
<path d="M276.906 321.113L277.693 320.645V322.901L276.906 323.369V321.113Z" fill="#C09838"/>
<path d="M268.297 316.136L269.084 315.667L277.701 320.646L276.914 321.114L268.297 316.136Z" fill="#F5D689"/>
<path d="M276.914 321.113V323.368L268.297 318.39V316.134L276.914 321.113Z" fill="#F1C457"/>
<path d="M221.273 288.985L222.061 288.517L222.039 290.772L221.273 291.24V288.985Z" fill="#C09838"/>
<path d="M212.656 284.007L213.443 283.539L222.061 288.518L221.273 288.986L212.656 284.007Z" fill="#F5D689"/>
<path d="M221.279 288.984V291.24L212.641 286.261L212.662 284.006L221.279 288.984Z" fill="#F1C457"/>
<path d="M268.727 306.859L273.961 303.795L274.365 302.923L269.131 305.966L268.727 306.859Z" fill="#CCA23C"/>
<path d="M265.987 300.518L271.221 297.454L270.263 297.369L265.008 300.412L265.987 300.518Z" fill="#D8AB3F"/>
<path d="M269.125 305.964L274.359 302.922V301.709L269.125 304.751V305.964Z" fill="#D8AB3F"/>
<path d="M267.019 301.113L272.275 298.07L271.211 297.453L265.977 300.517L267.019 301.113Z" fill="#E4B543"/>
<path d="M269.117 304.752L274.351 301.71L273.969 300.369L268.734 303.412L269.117 304.752Z" fill="#D8AB3F"/>
<path d="M265.979 300.519L265 300.412L264.256 300.838L263.852 301.71V302.923L264.256 304.264L265 305.561L265.958 306.561L267.001 307.178L267.979 307.264L268.724 306.859L269.128 305.966V304.753L268.745 303.412L268.001 302.136L267.022 301.115L265.979 300.519Z" fill="#A88531"/>
<path d="M268.002 302.135L273.236 299.092L272.279 298.071L267.023 301.113L268.002 302.135Z" fill="#F0BE46"/>
<path d="M273.25 299.064L268.008 302.113L268.757 303.4L273.999 300.352L273.25 299.064Z" fill="#E4B543"/>
<path d="M231.805 285.54L237.039 282.476L237.443 281.604L232.209 284.646L231.805 285.54Z" fill="#CCA23C"/>
<path d="M229.036 279.199L234.291 276.135L233.312 276.05L228.078 279.092L229.036 279.199Z" fill="#D8AB3F"/>
<path d="M232.219 284.645L237.453 281.602V280.389L232.219 283.453V284.645Z" fill="#D8AB3F"/>
<path d="M230.103 279.794L235.337 276.751L234.295 276.134L229.039 279.198L230.103 279.794Z" fill="#E4B543"/>
<path d="M232.209 283.453L237.443 280.389L237.039 279.049L231.805 282.091L232.209 283.453Z" fill="#D8AB3F"/>
<path d="M231.059 280.814L236.314 277.771L235.336 276.75L230.102 279.793L231.059 280.814Z" fill="#F0BE46"/>
<path d="M229.044 279.198L228.086 279.092L227.342 279.517L226.938 280.39V281.603L227.32 282.943L228.065 284.241L229.044 285.241L230.086 285.858L231.065 285.964L231.81 285.539L232.214 284.645V283.454L231.81 282.092L231.065 280.815L230.108 279.794L229.044 279.198Z" fill="#A88531"/>
<path d="M231.807 282.091L237.041 279.048L236.318 277.771L231.062 280.814L231.807 282.091Z" fill="#E4B543"/>
<path d="M308.102 343.646L313.336 340.603L314.549 337.965L309.314 341.007L308.102 343.646Z" fill="#CCA23C"/>
<path d="M299.868 324.625L305.102 321.582L302.187 321.284L296.953 324.327L299.868 324.625Z" fill="#D8AB3F"/>
<path d="M309.32 341.008L314.554 337.966L314.576 334.349L309.32 337.391V341.008Z" fill="#D8AB3F"/>
<path d="M303.003 326.433L308.258 323.391L305.109 321.582L299.875 324.625L303.003 326.433Z" fill="#E4B543"/>
<path d="M309.317 337.391L314.572 334.348L313.359 330.305L308.125 333.348L309.317 337.391Z" fill="#D8AB3F"/>
<path d="M305.915 329.496L311.149 326.454L308.255 323.39L303 326.433L305.915 329.496Z" fill="#F0BE46"/>
<path d="M308.135 333.348L313.369 330.305L311.156 326.454L305.922 329.496L308.135 333.348Z" fill="#E4B543"/>
<path d="M299.883 324.624L296.968 324.326L294.734 325.602L293.521 328.241L293.5 331.858L294.692 335.9L296.904 339.752L299.819 342.815L302.968 344.624L305.883 344.922L308.117 343.645L309.33 341.007V337.39L308.139 333.347L305.926 329.496L303.011 326.432L299.883 324.624Z" fill="#A88531"/>
<path d="M291.554 330.156L297.32 325.177L295.277 326.347L289.852 331.262L291.554 330.156Z" fill="#F1C457"/>
<path d="M298.922 346.285L305.518 344.072L307.56 342.902L300.624 345.178L298.922 346.285Z" fill="#90722A"/>
<path d="M293.81 330.283L299.98 325.454L297.321 325.177L291.555 330.156L293.81 330.283Z" fill="#F4D078"/>
<path d="M300.617 345.178L307.553 342.901L308.66 340.476L301.489 343.008L300.617 345.178Z" fill="#A88531"/>
<path d="M296.281 331.626L302.877 327.115L299.983 325.456L293.812 330.285L296.281 331.626Z" fill="#F3CA68"/>
<path d="M301.483 343.008L308.654 340.476V337.157L301.398 340.114L301.483 343.008Z" fill="#C09838"/>
<path d="M298.6 333.966L305.537 329.945L302.877 327.115L296.281 331.625L298.6 333.966Z" fill="#F1C457"/>
<path d="M300.402 336.943L307.573 333.453L305.53 329.942L298.594 333.964L300.402 336.943Z" fill="#E4B543"/>
<path d="M293.806 330.283L291.551 330.156L289.849 331.262L288.977 333.411L289.04 336.305L290.062 339.496L291.87 342.475L294.168 344.816L296.658 346.156L298.913 346.284L300.615 345.177L301.487 343.007L301.402 340.113L300.402 336.943L298.594 333.964L296.275 331.624L293.806 330.283Z" fill="#F0BE46"/>
<path d="M301.406 340.115L308.662 337.157L307.577 333.455L300.406 336.945L301.406 340.115Z" fill="#D8AB3F"/>
<path d="M294.125 335.816L294.806 335.859L295.551 336.263L296.232 336.944L296.764 337.837L297.062 338.795L297.083 339.646L296.828 340.284L296.317 340.604L295.657 340.561L294.913 340.178L294.232 339.476L293.7 338.603L293.402 337.646L293.359 336.795L293.636 336.157L294.125 335.816Z" fill="#90722A"/>
<path d="M295.613 333.412L295.486 333.475L295.337 333.454L295.166 333.348L294.996 333.177L294.869 332.965L294.805 332.752V332.539L294.869 332.412L294.996 332.326L295.166 332.348L295.337 332.454L295.486 332.624L295.613 332.837L295.677 333.05V333.263L295.613 333.412Z" fill="#90722A"/>
<path d="M293.216 332.837L293.088 332.858L292.896 332.773L292.726 332.624L292.599 332.432L292.513 332.198L292.492 331.986L292.535 331.815L292.641 331.73L292.79 331.709L292.96 331.794L293.13 331.922L293.279 332.135L293.365 332.369L293.386 332.56L293.343 332.73L293.216 332.837Z" fill="#90722A"/>
<path d="M291.569 333.773L291.42 333.815L291.249 333.773L291.079 333.645L290.93 333.454L290.824 333.241L290.781 333.028L290.803 332.837L290.888 332.709L291.037 332.667L291.207 332.709L291.377 332.837L291.526 333.028L291.632 333.241L291.675 333.475L291.654 333.645L291.569 333.773Z" fill="#90722A"/>
<path d="M290.172 335.199L290.236 335.05L290.363 334.987H290.512L290.704 335.093L290.853 335.263L290.98 335.476L291.044 335.71V335.901L290.98 336.05L290.853 336.114L290.704 336.093L290.512 335.987L290.363 335.838L290.236 335.625L290.172 335.391V335.199Z" fill="#90722A"/>
<path d="M290.915 338.008L291.063 337.987L291.234 338.072L291.404 338.221L291.553 338.412L291.638 338.646L291.659 338.859L291.617 339.008L291.51 339.114L291.361 339.136L291.191 339.05L291.021 338.901L290.872 338.71L290.787 338.476L290.766 338.263L290.829 338.093L290.915 338.008Z" fill="#90722A"/>
<path d="M292.575 340.944L292.703 340.901L292.873 340.944L293.043 341.071L293.213 341.263L293.299 341.476L293.341 341.71V341.901L293.235 342.008L293.107 342.05L292.937 342.008L292.767 341.88L292.618 341.688L292.511 341.476L292.469 341.263L292.49 341.071L292.575 340.944Z" fill="#90722A"/>
<path d="M294.851 343.029L294.957 342.966L295.127 342.987L295.298 343.072L295.468 343.242L295.574 343.455L295.659 343.689V343.88L295.574 344.029L295.468 344.093H295.298L295.127 343.987L294.957 343.817L294.851 343.604L294.766 343.37V343.178L294.851 343.029Z" fill="#90722A"/>
<path d="M297.227 343.603L297.376 343.582L297.546 343.667L297.716 343.816L297.865 344.007L297.95 344.22L297.972 344.433L297.908 344.603L297.823 344.709L297.653 344.731L297.504 344.646L297.312 344.497L297.184 344.305L297.099 344.071L297.078 343.858L297.121 343.688L297.227 343.603Z" fill="#90722A"/>
<path d="M298.888 342.646L299.015 342.604L299.186 342.646L299.356 342.774L299.526 342.965L299.632 343.2L299.654 343.412V343.582L299.547 343.71L299.42 343.753L299.249 343.71L299.079 343.582L298.93 343.412L298.824 343.178L298.781 342.965L298.803 342.774L298.888 342.646Z" fill="#90722A"/>
<path d="M299.486 340.964L299.422 340.73V340.539L299.486 340.39L299.613 340.326H299.762L299.933 340.432L300.103 340.603L300.23 340.815L300.294 341.028V341.241L300.23 341.39L300.103 341.454L299.933 341.432L299.762 341.347L299.592 341.177L299.486 340.964Z" fill="#90722A"/>
<path d="M299.526 338.434H299.377L299.207 338.37L299.037 338.222L298.909 338.009L298.824 337.796L298.781 337.583L298.845 337.413L298.952 337.307H299.1L299.271 337.37L299.441 337.519L299.568 337.732L299.654 337.945L299.675 338.158L299.632 338.328L299.526 338.434Z" fill="#90722A"/>
<path d="M297.74 335.518L297.57 335.476L297.399 335.348L297.251 335.156L297.144 334.944L297.102 334.731L297.123 334.539L297.208 334.412L297.357 334.369L297.527 334.412L297.697 334.539L297.846 334.731L297.953 334.944L297.995 335.178L297.974 335.348L297.889 335.476L297.74 335.518Z" fill="#90722A"/>
<path d="M182.661 260.56L198.385 251.41L195.044 253.325L179.32 262.453L182.661 260.56Z" fill="#717171"/>
<path d="M187.337 261.943L202.742 251.857L198.38 251.41L182.656 260.56L187.337 261.943Z" fill="#686868"/>
<path d="M224.314 278.582L239.166 268.326L202.739 251.858L187.016 261.007L224.314 278.582Z" fill="#5F5F5F"/>
<path d="M263.468 301.134L277.915 290.687L239.169 268.325L223.445 277.474L263.468 301.134Z" fill="#575757"/>
<path d="M306.211 351.199L321.935 342.072L323.743 338.093L307.615 346.284L306.211 351.199Z" fill="#2D2D2D"/>
<path d="M308.018 347.241L323.742 338.092L323.763 332.667L307.039 340.816L308.018 347.241Z" fill="#303030"/>
<path d="M299.55 326.965L314.295 316.262L277.911 290.687L262.188 299.836L299.55 326.965Z" fill="#4E4E4E"/>
<path d="M308.05 341.816L323.773 332.667L321.986 326.624L305.539 334.858L308.05 341.816Z" fill="#363636"/>
<path d="M306.258 335.753L321.982 326.625L318.641 320.859L301.641 329.114L306.258 335.753Z" fill="#3C3C3C"/>
<path d="M302.911 329.986L318.635 320.858L314.294 316.262L298.57 325.39L302.911 329.986Z" fill="#454545"/>
<path d="M306.255 335.753L302.915 329.986L298.574 325.391L262.191 299.837L223.445 277.475L187.04 261.006L182.678 260.559L179.338 262.453L177.508 266.432V271.857L179.295 277.921L182.614 283.688L186.976 288.283L298.511 352.689L302.872 353.136L306.234 351.221L308.043 347.263V341.838L306.277 335.774L306.255 335.753ZM306.724 346.178L305.106 349.71L302.128 351.412L298.234 351.008L187.21 286.922L183.338 282.836L180.38 277.709L178.784 272.326V267.496L180.423 263.964L183.402 262.261L187.359 262.666L223.509 279.028L262.106 301.305L298.234 326.688L302.17 330.838L305.128 335.965L306.724 341.348V346.178Z" fill="#3E3C3F"/>
<path opacity="0.5" d="M206.165 286.029H203.527L203.548 287.561L202.102 286.71V285.199L203.399 284.433L203.442 274.433L206.165 278.475V286.029Z" fill="#785F23"/>
<path opacity="0.4" d="M292.424 219.982L214.656 264.962L229.146 274.154L268.104 296.388L308.041 319.751L314.659 322.857L320.105 323.389L318.339 314.304L292.424 219.982Z" fill="#1F1E20"/>
<path d="M206.695 253.645L400.168 274.284L400.147 280.348L321.528 326.03L206.695 253.645Z" fill="#90722A"/>
<path d="M206.695 253.645L285.293 207.963L400.168 274.283L321.549 319.965L206.695 253.645Z" fill="#D8AB3F"/>
<path d="M321.549 319.966L321.528 326.03L207.993 260.475L206.695 253.645L321.549 319.966Z" fill="#F0BE46"/>
<path d="M261.812 192.877L285.388 179.174L400.263 245.495L376.666 259.197L261.812 192.877Z" fill="#F4D078"/>
<path d="M376.665 259.197L376.58 287.985L261.727 221.664L261.812 192.876L376.665 259.197Z" fill="#F0BE46"/>
<path d="M292.211 202.58L293.275 203.197L297.211 200.92L296.147 200.303L292.211 202.58Z" fill="#C09838"/>
<path d="M293.236 196.791L297.172 194.515L296.108 193.898L292.172 196.196L293.236 196.791Z" fill="#C09838"/>
<path d="M287.704 193.599L291.641 191.323L290.577 190.706L286.641 192.982L287.704 193.599Z" fill="#C09838"/>
<path d="M289.556 194.664L293.471 192.388L292.428 191.771L288.492 194.047L289.556 194.664Z" fill="#C09838"/>
<path d="M291.386 195.729L295.323 193.452L294.259 192.835L290.344 195.133L291.386 195.729Z" fill="#C09838"/>
<path d="M281.125 196.196L282.189 196.791L286.125 194.515L285.061 193.898L281.125 196.196Z" fill="#C09838"/>
<path d="M295.087 197.855L299.024 195.578L297.96 194.961L294.023 197.259L295.087 197.855Z" fill="#C09838"/>
<path d="M282.977 197.259L284.04 197.855L287.977 195.578L286.913 194.961L282.977 197.259Z" fill="#C09838"/>
<path d="M298.761 200.004L302.698 197.706L301.634 197.11L297.719 199.387L298.761 200.004Z" fill="#C09838"/>
<path d="M300.611 201.068L304.547 198.771L303.483 198.175L299.547 200.451L300.611 201.068Z" fill="#C09838"/>
<path d="M302.462 202.132L306.399 199.834L305.335 199.238L301.398 201.515L302.462 202.132Z" fill="#C09838"/>
<path d="M304.322 203.197L308.237 200.92L307.194 200.303L303.258 202.58L304.322 203.197Z" fill="#C09838"/>
<path d="M294.062 203.642L295.126 204.259L299.041 201.982L297.999 201.365L294.062 203.642Z" fill="#C09838"/>
<path d="M297.758 205.792L298.8 206.387L302.737 204.111L301.673 203.494L297.758 205.792Z" fill="#C09838"/>
<path d="M285.853 192.536L289.789 190.259L288.725 189.642L284.789 191.919L285.853 192.536Z" fill="#C09838"/>
<path d="M284.828 198.324L285.892 198.92L289.828 196.643L288.764 196.048L284.828 198.324Z" fill="#C09838"/>
<path d="M286.68 199.387L287.722 200.004L291.659 197.706L290.616 197.11L286.68 199.387Z" fill="#C09838"/>
<path d="M290.359 201.515L291.423 202.132L295.36 199.834L294.296 199.238L290.359 201.515Z" fill="#C09838"/>
<path d="M295.906 204.706L296.949 205.323L300.885 203.046L299.843 202.429L295.906 204.706Z" fill="#C09838"/>
<path d="M296.931 198.92L300.846 196.643L299.803 196.048L295.867 198.324L296.931 198.92Z" fill="#C09838"/>
<path d="M288.531 200.451L289.574 201.068L293.51 198.771L292.468 198.175L288.531 200.451Z" fill="#C09838"/>
<path d="M279.297 195.133L280.339 195.729L284.276 193.452L283.233 192.835L279.297 195.133Z" fill="#C09838"/>
<path d="M107.906 173.154L110.523 171.622L101.906 190.516L99.2891 192.048L107.906 173.154Z" fill="#A88531"/>
<path d="M96.3281 178.133L98.9452 176.622L110.52 171.622L107.903 173.154L96.3281 178.133Z" fill="#F7DC9A"/>
<path d="M107.903 173.154L99.286 192.048L98.5413 184.92L96.4774 182.877L95.5625 180.069L96.3285 178.132L107.903 173.154Z" fill="#F0BE46"/>
<path d="M74.4054 206.728L74.6608 206.75L91.8952 182.068L92.4484 180.749L74.3203 206.707L74.4054 206.728Z" fill="#F1C14E"/>
<path d="M81.4609 207.431L82.1844 207.495L97.8018 185.132L96.5251 185.856L81.4609 207.431Z" fill="#B48F35"/>
<path d="M74.6562 206.749L75.9542 206.876L92.1886 183.62L91.8907 182.067L74.6562 206.749Z" fill="#F3CA68"/>
<path d="M79.8906 207.281L81.4651 207.43L96.5293 185.855L94.8909 185.812L79.8906 207.281Z" fill="#CCA23C"/>
<path d="M77.875 207.069L79.8963 207.282L94.8967 185.813L93.3009 185.005L77.875 207.069Z" fill="#D8AB3F"/>
<path d="M75.9453 206.876L77.8602 207.067L93.2861 185.003L92.1797 183.62L75.9453 206.876Z" fill="#F0BE46"/>
<path d="M97.8057 185.132L96.529 185.856L94.8907 185.813L93.2949 185.004L92.1885 183.621L91.8906 182.068L92.4438 180.749L93.7205 180.026L95.3588 180.068L96.9545 180.877L98.0397 182.26L98.3588 183.813L97.8057 185.132Z" fill="#F1C457"/>
<path d="M102.67 176.175L105.287 174.664L96.6483 193.558L94.0312 195.069L102.67 176.175Z" fill="#A88531"/>
<path d="M91.0859 181.175L93.7243 179.664L105.299 174.664L102.682 176.175L91.0859 181.175Z" fill="#F7DC9A"/>
<path d="M102.677 176.174L94.0382 195.068L93.3147 187.962L91.2509 185.919L90.3359 183.11L91.0806 181.174L102.677 176.174Z" fill="#F0BE46"/>
<path d="M91.7136 182.727L92.1391 182.387L92.7774 182.493L93.437 183.004L93.9477 183.812L94.1817 184.663L94.0754 185.365L93.6285 185.706L92.9902 185.621L92.3306 185.089L91.82 184.302L91.5859 183.429L91.7136 182.727Z" fill="#90722A"/>
<path d="M93.1887 182.919L92.827 182.876L92.5716 183.068L92.5078 183.472L92.6355 183.961L92.9333 184.408L93.3164 184.706L93.6781 184.77L93.9334 184.578L93.9972 184.174L93.8695 183.685L93.5717 183.217L93.1887 182.919Z" fill="#C09838"/>
<path d="M92.8215 183.153L92.4598 183.11L92.2045 183.302L92.1406 183.706L92.2683 184.195L92.5662 184.642L92.9492 184.94L93.3109 185.004L93.5662 184.812L93.63 184.408L93.5024 183.919L93.2045 183.451L92.8215 183.153Z" fill="#F0BE46"/>
<path d="M128.31 212.091L131.799 210.07L131.97 208.942L127.523 211.538L127.438 212.006L128.31 212.091Z" fill="#C09838"/>
<path d="M145.621 201.026L146.919 200.281L146.749 201.388L145.43 202.154L145.621 201.026Z" fill="#D8AB3F"/>
<path d="M138.445 186.43L139.743 185.664L146.914 200.281L145.616 201.026L138.445 186.43Z" fill="#C09838"/>
<path d="M142.467 202.856L145.616 201.027L145.446 202.154L142.297 203.984L142.467 202.856Z" fill="#D8AB3F"/>
<path d="M130.469 188.835L134.916 186.239L138.66 184.898L134.192 187.473L130.469 188.835Z" fill="#F4D078"/>
<path d="M127.613 202.664L117.145 208.749L115.336 210.792L120.038 211.281L127.613 202.664Z" fill="#A88531"/>
<path d="M119.332 193.472L129.822 187.365L127.609 202.664L117.141 208.749L119.332 193.472Z" fill="#CCA23C"/>
<path d="M115.594 174.854L126.083 168.769L129.828 187.365L119.339 193.472L115.594 174.854Z" fill="#D8AB3F"/>
<path d="M101.398 176.876L111.867 170.79L126.08 168.769L115.59 174.854L101.398 176.876Z" fill="#F5D689"/>
<path d="M119.337 193.474L115.592 174.856L101.401 176.878L87.1875 208.006L98.7622 209.155L102.337 209.517L115.337 210.793L117.146 208.751L119.337 193.474Z" fill="#F0BE46"/>
<path d="M122.148 171.068L124.787 169.536L129.127 169.664L126.51 171.174L122.148 171.068Z" fill="#F5D689"/>
<path d="M130.529 177.77L133.167 176.238L128.508 188.132L125.891 189.664L130.529 177.77Z" fill="#A88531"/>
<path d="M129.289 173.962L131.906 172.43L133.162 176.239L130.523 177.771L129.289 173.962Z" fill="#D8AB3F"/>
<path d="M126.508 171.174L129.125 169.664L131.912 172.43L129.295 173.962L126.508 171.174Z" fill="#F1C457"/>
<path d="M126.51 171.174L129.298 173.961L130.532 177.77L125.893 189.664L122.148 171.067L126.51 171.174Z" fill="#F0BE46"/>
<path d="M117.953 197.516L134.719 187.771L199.891 164.239L183.125 173.984L117.953 197.516Z" fill="#F7DC9A"/>
<path d="M183.125 173.984L199.891 164.239L209.104 164.26L192.338 174.005L183.125 173.984Z" fill="#F5D689"/>
<path d="M192.344 174.005L209.11 164.26L217.366 166.686L200.599 176.431L192.344 174.005Z" fill="#F4D078"/>
<path d="M200.602 176.429L217.368 166.684L227.666 172.408L210.9 182.153L200.602 176.429Z" fill="#F3CD70"/>
<path d="M282.663 243.282L299.43 233.537L298.983 234.708L282.195 244.453L282.663 243.282Z" fill="#B48F35"/>
<path d="M295.432 227.622L227.665 172.408L210.898 182.153L278.666 237.367L280.347 238.75L297.113 229.005L295.432 227.622Z" fill="#F3CA68"/>
<path d="M282.43 241.645L299.217 231.9L299.43 233.538L282.664 243.283L282.43 241.645Z" fill="#CCA23C"/>
<path d="M280.344 238.75L297.11 229.005L298.365 230.239L281.578 239.984L280.344 238.75Z" fill="#F1C457"/>
<path d="M210.891 182.154L278.659 237.368L280.34 238.751L281.574 239.985L282.425 241.644L282.659 243.283L282.191 244.453L281.17 244.857L279.914 244.389L278.042 243.368L204.168 203.111L198.998 201.133L194.338 200.133L189.614 199.984L124.804 211.495L117.953 197.516L183.125 173.983L192.338 174.004L200.593 176.43L210.891 182.154Z" fill="#F0BE46"/>
<path d="M281.57 239.984L298.358 230.24L299.209 231.899L282.421 241.644L281.57 239.984Z" fill="#E4B543"/>
<path d="M115.523 197.493L119.97 194.919L123.694 193.578L119.247 196.153L115.523 197.493Z" fill="#F7DC9A"/>
<path d="M119.258 196.153L123.705 193.578L124.811 194.344L120.364 196.94L119.258 196.153Z" fill="#F1C457"/>
<path d="M179.633 161.154L182.25 159.622L184.612 158.75L181.995 160.282L179.633 161.154Z" fill="#F7DC9A"/>
<path d="M181.992 160.282L184.609 158.75L205.95 166.09L203.333 167.601L181.992 160.282Z" fill="#F4D078"/>
<path d="M203.336 167.6L194.124 167.579L180.336 172.558L181.272 168.302L179.336 164.473L179.634 161.153L181.996 160.281L203.336 167.6Z" fill="#F0BE46"/>
<path d="M120.359 196.94L121.679 196.174L128.849 210.77L127.53 211.536L120.359 196.94Z" fill="#D8AB3F"/>
<path d="M127.525 211.537L120.354 196.941L119.248 196.154L115.524 197.494L106.929 204.218L106.609 206.537L107.631 209.367L108.269 210.112L127.44 212.005L127.525 211.537Z" fill="#F0BE46"/>
<path d="M134.188 187.473L138.656 184.898L139.741 185.664L135.294 188.26L134.188 187.473Z" fill="#D8AB3F"/>
<path d="M134.185 187.472L135.291 188.259L131.696 189.536L129.312 190.919L129.504 189.578L130.461 188.833L134.185 187.472Z" fill="#D8AB3F"/>
<path d="M143.914 176.429L122.083 180.408L121.211 180.302L143.02 176.344L143.914 176.429Z" fill="#A3A5A9"/>
<path d="M142.315 172.726L120.484 176.705L121.272 176.258L143.102 172.279L142.315 172.726Z" fill="#D2D4DA"/>
<path d="M143.02 176.343L121.211 180.301L120.445 179.663L142.276 175.705L143.02 176.343Z" fill="#BABDC2"/>
<path d="M141.869 173.62L120.039 177.578L120.486 176.705L142.316 172.727L141.869 173.62Z" fill="#EFF1F6"/>
<path d="M141.846 174.705L120.016 178.684L120.037 177.578L141.867 173.62L141.846 174.705Z" fill="#E9ECF2"/>
<path d="M142.271 175.707L120.441 179.664L120.016 178.685L141.846 174.707L142.271 175.707Z" fill="#D2D4DA"/>
<path d="M143.107 172.279L143.979 172.386L144.745 173.024L145.171 174.024L145.15 175.109L144.703 175.982L143.915 176.428L143.022 176.343L142.277 175.705L141.852 174.705L141.873 173.62L142.32 172.726L143.107 172.279Z" fill="#BABDC2"/>
<path d="M182.808 170.664L142.892 177.919L141.445 177.728L181.468 164.451L182.808 170.664Z" fill="#C09838"/>
<path d="M180.596 169.258L140.297 171.854L141.552 171.109L181.468 163.854L180.596 169.258Z" fill="#F4D078"/>
<path d="M181.337 170.472L141.443 177.728L140.188 176.685L180.103 169.43L181.337 170.472Z" fill="#D8AB3F"/>
<path d="M179.447 166.046L139.531 173.301L140.297 171.855L180.192 164.599L179.447 166.046Z" fill="#F5D689"/>
<path d="M179.402 167.811L139.508 175.066L139.529 173.3L179.445 166.045L179.402 167.811Z" fill="#F1C457"/>
<path d="M180.104 169.429L140.189 176.684L139.508 175.067L179.402 167.812L180.104 169.429Z" fill="#F0BE46"/>
<path d="M181.462 163.854L182.909 164.024L184.143 165.067L184.845 166.684L184.824 168.471L184.058 169.918L182.803 170.663L181.335 170.471L180.101 169.429L179.398 167.812L179.441 166.046L180.186 164.599L181.462 163.854Z" fill="#C09838"/>
<path d="M108.387 205.41L109.068 204.856L110.068 205.027L111.11 205.835L111.919 207.091L112.281 208.452L112.089 209.537L111.408 210.091L110.408 209.92L109.366 209.112L108.536 207.857L108.195 206.495L108.387 205.41Z" fill="#90722A"/>
<path d="M110.697 205.707L110.122 205.6L109.739 205.919L109.633 206.537L109.824 207.324L110.292 208.047L110.888 208.515L111.463 208.6L111.867 208.281L111.973 207.664L111.761 206.877L111.292 206.175L110.697 205.707Z" fill="#C09838"/>
<path d="M110.126 206.068L109.552 205.983L109.169 206.281L109.062 206.919L109.275 207.685L109.722 208.408L110.318 208.876L110.892 208.961L111.297 208.664L111.403 208.025L111.19 207.259L110.722 206.536L110.126 206.068Z" fill="#F0BE46"/>
<path d="M208.424 205.452L198.956 194.026L198.637 193.133L198.318 192.601L198.424 192.473V189.218L196.999 185.579L195.935 183.75L193.488 180.707L190.658 179.09L188.232 179.303L186.828 181.303V184.558L188.254 188.196L189.296 190.026L191.743 193.069L194.573 194.686H194.722L195.02 195.218L196.169 196.643L197.488 197.409L198.19 197.346L202.403 202.452L204.169 203.112L208.424 205.452Z" fill="#A88531"/>
<path d="M194.867 193.238L195.931 192.621L197.357 190.621L196.293 191.238L194.867 193.238Z" fill="#A88531"/>
<path d="M189.64 179.686L190.683 179.09L188.236 179.303L187.172 179.898L189.64 179.686Z" fill="#F7DC9A"/>
<path d="M196.297 191.238L197.361 190.621V187.387L196.318 187.983L196.297 191.238Z" fill="#C09838"/>
<path d="M192.463 181.324L193.505 180.707L190.675 179.09L189.633 179.686L192.463 181.324Z" fill="#F4D078"/>
<path d="M194.894 184.365L195.958 183.748L193.511 180.706L192.469 181.323L194.894 184.365Z" fill="#F3CA68"/>
<path d="M196.316 187.983L197.359 187.388L195.954 183.749L194.891 184.366L196.316 187.983Z" fill="#D8AB3F"/>
<path d="M189.644 179.684L187.176 179.897L185.771 181.897L185.75 185.153L187.154 188.77L189.601 191.812L192.431 193.451L194.878 193.238L196.303 191.238L196.325 187.982L194.899 184.365L192.474 181.323L189.644 179.684Z" fill="#F1C457"/>
<path d="M171.758 165.728L174.396 164.196L176.758 163.323L174.141 164.855L171.758 165.728Z" fill="#F7DC9A"/>
<path d="M174.148 164.855L176.766 163.323L198.106 170.643L195.489 172.175L174.148 164.855Z" fill="#F4D078"/>
<path d="M195.483 172.174L186.249 172.153L172.461 177.132L173.397 172.876L171.461 169.046L171.759 165.727L174.142 164.855L195.483 172.174Z" fill="#F0BE46"/>
<path d="M173.332 167.047L174.013 166.515L175.013 166.664L176.056 167.473L176.864 168.728L177.226 170.09L177.034 171.196L176.353 171.728L175.353 171.579L174.311 170.75L173.502 169.494L173.141 168.154L173.332 167.047Z" fill="#90722A"/>
<path d="M175.658 167.344L175.104 167.259L174.7 167.557L174.594 168.195L174.807 168.961L175.253 169.685L175.87 170.153L176.445 170.238L176.828 169.94L176.934 169.302L176.721 168.536L176.253 167.812L175.658 167.344Z" fill="#C09838"/>
<path d="M175.079 167.726L174.526 167.62L174.122 167.939L174.016 168.556L174.228 169.343L174.697 170.045L175.292 170.514L175.867 170.599L176.25 170.301L176.356 169.684L176.165 168.897L175.697 168.173L175.079 167.726Z" fill="#F0BE46"/>
<path d="M116.906 174.112L119.523 172.58L123.885 172.707L121.268 174.218L116.906 174.112Z" fill="#F5D689"/>
<path d="M125.292 180.812L127.91 179.28L123.271 191.174L120.633 192.706L125.292 180.812Z" fill="#A88531"/>
<path d="M124.055 177.004L126.672 175.472L127.906 179.281L125.289 180.813L124.055 177.004Z" fill="#D8AB3F"/>
<path d="M121.273 174.217L123.891 172.706L126.678 175.472L124.061 177.004L121.273 174.217Z" fill="#F1C457"/>
<path d="M121.268 174.217L124.055 177.005L125.289 180.813L120.63 192.707L116.906 174.111L121.268 174.217Z" fill="#F0BE46"/>
<path d="M119.723 176.622L120.404 176.09L121.404 176.26L122.446 177.069L123.255 178.324L123.616 179.664L123.425 180.771L122.744 181.303L121.744 181.154L120.701 180.345L119.893 179.09L119.531 177.728L119.723 176.622Z" fill="#90722A"/>
<path d="M122.04 176.941L121.466 176.835L121.083 177.154L120.977 177.771L121.189 178.558L121.636 179.261L122.232 179.729L122.806 179.835L123.211 179.516L123.317 178.878L123.104 178.112L122.636 177.409L122.04 176.941Z" fill="#C09838"/>
<path d="M121.462 177.302L120.888 177.217L120.505 177.515L120.398 178.153L120.611 178.919L121.058 179.643L121.675 180.09L122.228 180.196L122.633 179.877L122.739 179.26L122.526 178.473L122.058 177.771L121.462 177.302Z" fill="#F0BE46"/>
<path opacity="0.6" d="M131.701 189.538L124.169 193.899L124.807 194.346L121.68 196.176L155.532 180.261L138.446 186.431L135.297 188.261L131.701 189.538Z" fill="#90722A"/>
<path d="M129.829 210.58L128.85 210.771L121.68 196.154L123.701 198.282L129.829 210.58Z" fill="#C09838"/>
<path d="M196.193 191.367L192.831 185.537L191.682 184.111L190.363 183.345L189.214 183.452L188.555 184.388L188.576 185.92L189.236 187.622L192.597 193.431L194.874 193.239L196.193 191.367Z" fill="#C09838"/>
<path d="M189.148 191.813L192.829 189.685L193.51 188.749L189.808 190.898L189.148 191.813Z" fill="#A88531"/>
<path d="M186.694 185.473L190.375 183.345L189.226 183.452L185.523 185.579L186.694 185.473Z" fill="#F7DC9A"/>
<path d="M189.805 190.897L193.507 188.748V187.238L189.805 189.366V190.897Z" fill="#C09838"/>
<path d="M188.022 186.239L191.703 184.111L190.384 183.345L186.703 185.473L188.022 186.239Z" fill="#F4D078"/>
<path d="M189.165 187.663L192.846 185.535L191.697 184.11L188.016 186.238L189.165 187.663Z" fill="#F1C457"/>
<path d="M189.802 189.366L193.505 187.239L192.845 185.536L189.164 187.664L189.802 189.366Z" fill="#D8AB3F"/>
<path d="M186.705 185.471L185.535 185.578L184.875 186.514V188.024L185.535 189.727L186.684 191.152L188.003 191.918L189.152 191.812L189.811 190.897V189.365L189.173 187.663L188.024 186.237L186.705 185.471Z" fill="#F1C457"/>
<path d="M207.416 208.749L190.139 191.494L189.969 191.089L207.224 208.324L207.416 208.749Z" fill="#BABDC2"/>
<path d="M209.912 205.41L192.656 188.175L193.252 188.133L210.508 205.346L209.912 205.41Z" fill="#D2D4DA"/>
<path d="M207.224 208.324L189.969 191.09L190.245 190.345L207.522 207.58L207.224 208.324Z" fill="#D2D4DA"/>
<path d="M209.074 205.897L191.797 188.663L192.648 188.174L209.904 205.408L209.074 205.897Z" fill="#E9ECF2"/>
<path d="M208.185 206.686L190.93 189.452L191.802 188.664L209.079 205.899L208.185 206.686Z" fill="#F1F3F7"/>
<path d="M207.527 207.579L190.25 190.344L190.931 189.45L208.187 206.685L207.527 207.579Z" fill="#E9ECF2"/>
<path d="M209.907 205.409L210.503 205.345L210.673 205.77L210.397 206.515L209.737 207.409L208.844 208.196L208.014 208.685L207.418 208.749L207.227 208.324L207.524 207.579L208.184 206.685L209.078 205.898L209.907 205.409Z" fill="#A3A5A9"/>
<path d="M248.026 252.197L206.132 210.153L205.812 209.408L247.707 251.452L248.026 252.197Z" fill="#C09838"/>
<path d="M252.613 246.091L210.719 204.048L211.804 203.941L253.698 245.985L252.613 246.091Z" fill="#D8AB3F"/>
<path d="M247.707 251.452L205.812 209.408L206.323 208.025L248.218 250.09L247.707 251.452Z" fill="#F0BE46"/>
<path d="M251.051 246.985L209.156 204.941L210.709 204.047L252.604 246.091L251.051 246.985Z" fill="#F3CA68"/>
<path d="M249.449 248.453L207.555 206.409L209.172 204.941L251.066 246.984L249.449 248.453Z" fill="#F5D689"/>
<path d="M248.207 250.091L206.312 208.027L207.547 206.409L249.441 248.453L248.207 250.091Z" fill="#F3CA68"/>
<path d="M252.626 246.091L253.711 245.984L254.03 246.729L253.498 248.112L252.264 249.75L250.668 251.197L249.115 252.112L248.03 252.197L247.711 251.452L248.222 250.091L249.456 248.452L251.073 246.984L252.626 246.091Z" fill="#A88531"/>
<path opacity="0.6" d="M293.781 228.068L280.568 235.749L247.695 214.897L279.483 222.025L293.781 228.068Z" fill="#785F23"/>
<path d="M252.973 280.368L206.695 253.644L234.207 237.665L278.059 261.942L252.973 280.368Z" fill="#393939"/>
<path d="M277.879 211.409L243.58 191.621L240.133 192.515L232.41 215.515L232.367 227.643L234.197 237.643L280.475 264.367L280.56 235.728L277.858 211.409H277.879ZM260.113 233.941L235.58 219.771V217.92L242.836 196.302L244.623 195.834L260.198 204.834L260.113 233.92V233.941ZM270.921 240.175L266.432 237.601L266.517 208.494L275.113 213.451L277.39 233.941L270.921 240.175Z" fill="#504E50"/>
<path opacity="0.8" d="M242.826 196.303L235.592 217.92L235.57 219.771L260.103 233.942L260.188 204.856L244.613 195.856L242.826 196.303Z" fill="#717171"/>
<path opacity="0.8" d="M266.509 208.494L266.445 237.601L270.913 240.176L277.382 233.942L275.105 213.452L266.509 208.494Z" fill="#717171"/>
<path d="M276.617 233.749L274.808 217.494L273.17 218.43L274.787 232.834L255.914 243.813L256.127 245.643L276.617 233.749Z" fill="#DCDCDC"/>
<path d="M232.431 215.536L240.155 192.535L212.643 208.514L204.941 231.515L204.898 243.643L206.707 253.643L234.282 237.643L232.41 227.664L232.452 215.536H232.431ZM232.75 236.791L207.516 251.877L206.005 243.558L206.047 231.706L213.579 209.259L238.176 194.961L231.346 215.344L231.303 227.749L232.771 236.791H232.75Z" fill="#383639"/>
<path opacity="0.8" d="M207.511 251.857L233.043 237.07L231.277 227.75L206 243.538L207.511 251.857Z" fill="#615F62"/>
<path opacity="0.8" d="M238.123 194.961L213.548 209.259L206.016 231.707L231.293 215.345L238.123 194.961Z" fill="#A7A6A8"/>
<path opacity="0.8" d="M231.298 215.345L206.021 231.707L206 243.537L231.277 227.749L231.298 215.345Z" fill="#717171"/>
<path d="M212.609 208.515L240.121 192.515L243.568 191.621L216.056 207.6L212.609 208.515Z" fill="#7B7A7C"/>
<path d="M253.054 251.729L280.565 235.75L280.48 264.389L252.969 280.368L253.054 251.729Z" fill="#3B393C"/>
<path d="M277.871 211.409L250.359 227.409L253.062 251.75L280.573 235.771L277.871 211.43V211.409ZM256.126 245.644L254.317 229.388L274.807 217.494L276.615 233.75L256.126 245.644Z" fill="#3E3C3F"/>
<path opacity="0.8" d="M254.32 229.388L256.129 245.643L276.619 233.749L274.81 217.494L254.32 229.388Z" fill="#5F5F5F"/>
<path d="M216.062 207.6L243.574 191.621L277.872 211.409L250.361 227.409L216.062 207.6Z" fill="#737173"/>
<path d="M210.02 233.176L217.169 211.877L217.084 211.835L215.318 212.303L208.062 233.899V235.771L232.595 249.921V248.07L210.02 235.027V233.176Z" fill="#EDEDEE"/>
<path d="M240.874 252.857L240.959 225.623L239.001 224.495L238.938 253.581L243.406 256.176L244.619 255.006L240.874 252.857Z" fill="#EDEDEE"/>
<path d="M250.358 227.409L216.059 207.621L212.612 208.515L204.91 231.515L204.867 243.643L206.676 253.644L252.975 280.368L253.06 251.729L250.358 227.388V227.409ZM232.591 249.941L208.059 235.771V233.92L215.314 212.302L217.102 211.834L232.698 220.834L232.612 249.92L232.591 249.941ZM243.4 256.197L238.911 253.622L238.996 224.515L247.592 229.473L249.868 249.963L243.4 256.197Z" fill="#615F62"/>
<path opacity="0.8" d="M215.318 212.303L208.062 233.899V235.771L232.595 249.921L232.68 220.835L217.084 211.835L215.318 212.303Z" fill="#838383"/>
<path opacity="0.8" d="M239.001 224.495L238.938 253.581L243.406 256.176L249.874 249.942L247.597 229.452L239.001 224.495Z" fill="#838383"/>
<path opacity="0.64" d="M216.573 209.728L213.956 210.408L206.488 232.707L206.445 244.303L207.935 252.537L234.106 267.665L234.233 219.919L216.552 209.706L216.573 209.728ZM233.595 266.771L208.36 252.197L206.977 244.579L207.02 233.111L214.424 211.025L216.765 210.408L233.744 220.217L233.616 266.75L233.595 266.771Z" fill="#383639"/>
<path d="M400.249 245.495L321.545 319.964L252.969 280.368L253.054 251.729L400.249 245.495Z" fill="#F0BE46"/>
<path d="M253.07 251.73L331.668 206.048L400.265 245.496L321.646 291.177L253.07 251.73Z" fill="#F4D078"/>
<path d="M321.64 291.177L400.259 245.495L400.173 274.283L321.555 319.964L321.64 291.177Z" fill="#A88531"/>
<path d="M322.695 291.773L414.612 253.793L418.378 278.879L418.336 287.815L339.738 333.497L322.695 291.773Z" fill="#C09838"/>
<path d="M335.992 299.475L414.611 253.793L418.377 278.879L339.758 324.561L335.992 299.475Z" fill="#CCA23C"/>
<path d="M322.695 291.772L401.293 246.09L414.612 253.793L335.993 299.475L322.695 291.772Z" fill="#F4D078"/>
<path d="M336.006 299.476L339.772 324.562L339.751 333.498L337.113 335.009L322.602 326.626L322.708 291.774L336.006 299.476Z" fill="#F0BE46"/>
<path opacity="0.5" d="M372.741 229.664L362.336 229.686L293.781 269.006L325.42 287.283H328.335L400.252 245.494L372.741 229.664Z" fill="#785F23"/>
<path opacity="0.5" d="M385.468 258.857H390.659L407.085 249.431L401.298 246.09L330.445 287.283H335.914L385.468 258.857Z" fill="#785F23"/>
<path d="M257.664 262.836L258.728 263.432V258.878L257.685 258.283L257.664 262.836Z" fill="#90722A"/>
<path d="M257.664 269.198L258.707 269.794L258.728 265.262L257.664 264.645V269.198Z" fill="#90722A"/>
<path d="M259.508 263.879L260.572 264.496V259.964L259.508 259.347V263.879Z" fill="#90722A"/>
<path d="M259.492 270.26L260.556 270.856V266.303L259.513 265.707L259.492 270.26Z" fill="#90722A"/>
<path d="M261.359 264.963L262.402 265.559L262.423 261.027L261.359 260.41V264.963Z" fill="#90722A"/>
<path d="M261.336 271.325L262.4 271.921V267.389L261.357 266.772L261.336 271.325Z" fill="#90722A"/>
<path d="M263.219 266.026L264.261 266.622L264.283 262.09L263.219 261.473V266.026Z" fill="#90722A"/>
<path d="M263.188 272.39L264.23 272.985L264.251 268.453L263.188 267.836V272.39Z" fill="#90722A"/>
<path d="M265.047 267.091L266.111 267.687V263.155L265.068 262.538L265.047 267.091Z" fill="#90722A"/>
<path d="M265.016 273.453L266.079 274.07L266.101 269.517L265.037 268.9L265.016 273.453Z" fill="#90722A"/>
<path d="M266.898 268.156L267.962 268.773V264.22L266.92 263.603L266.898 268.156Z" fill="#90722A"/>
<path d="M266.875 274.516L267.939 275.133V270.579L266.896 269.962L266.875 274.516Z" fill="#90722A"/>
<path d="M268.734 269.218L269.777 269.835L269.798 265.282L268.756 264.665L268.734 269.218Z" fill="#90722A"/>
<path d="M268.727 275.58L269.79 276.197V271.644L268.748 271.027L268.727 275.58Z" fill="#90722A"/>
<path d="M270.594 270.283L271.636 270.9L271.658 266.346L270.594 265.75V270.283Z" fill="#90722A"/>
<path d="M270.57 276.645L271.613 277.262L271.634 272.708L270.57 272.113V276.645Z" fill="#90722A"/>
<path d="M272.422 271.347L273.486 271.964V267.411L272.443 266.815L272.422 271.347Z" fill="#90722A"/>
<path d="M274.273 272.409L275.337 273.027V268.473L274.295 267.877L274.273 272.409Z" fill="#90722A"/>
<path d="M274.25 278.793L275.314 279.389V274.835L274.271 274.24L274.25 278.793Z" fill="#90722A"/>
<path d="M276.125 273.473L277.168 274.09L277.189 269.537L276.146 268.941L276.125 273.473Z" fill="#90722A"/>
<path d="M276.102 279.857L277.165 280.453V275.9L276.123 275.304L276.102 279.857Z" fill="#90722A"/>
<path d="M293.273 283.389L294.316 283.985L294.337 279.453L293.273 278.836V283.389Z" fill="#90722A"/>
<path d="M293.25 289.752L294.293 290.347L294.314 285.815L293.271 285.198L293.25 289.752Z" fill="#90722A"/>
<path d="M295.102 284.453L296.165 285.049L296.187 280.517L295.123 279.9L295.102 284.453Z" fill="#90722A"/>
<path d="M295.102 290.816L296.144 291.412L296.165 286.88L295.102 286.263V290.816Z" fill="#90722A"/>
<path d="M296.953 285.518L298.017 286.135V281.582L296.974 280.965L296.953 285.518Z" fill="#90722A"/>
<path d="M296.93 291.88L297.994 292.476L298.015 287.944L296.951 287.327L296.93 291.88Z" fill="#90722A"/>
<path d="M298.805 286.583L299.869 287.2V282.646L298.826 282.029L298.805 286.583Z" fill="#90722A"/>
<path d="M298.781 292.942L299.845 293.559V289.006L298.803 288.389L298.781 292.942Z" fill="#90722A"/>
<path d="M300.656 287.645L301.72 288.262V283.709L300.656 283.092V287.645Z" fill="#90722A"/>
<path d="M300.641 294.007L301.704 294.624V290.071L300.662 289.475L300.641 294.007Z" fill="#90722A"/>
<path d="M302.508 288.709L303.55 289.326L303.572 284.772L302.508 284.155V288.709Z" fill="#90722A"/>
<path d="M302.484 295.071L303.527 295.688L303.548 291.135L302.484 290.539V295.071Z" fill="#90722A"/>
<path d="M304.336 289.774L305.4 290.391V285.837L304.357 285.242L304.336 289.774Z" fill="#90722A"/>
<path d="M304.32 296.133L305.384 296.75L305.405 292.197L304.342 291.601L304.32 296.133Z" fill="#90722A"/>
<path d="M306.188 290.836L307.251 291.453V286.9L306.209 286.304L306.188 290.836Z" fill="#90722A"/>
<path d="M306.164 297.198L307.228 297.815V293.262L306.185 292.666L306.164 297.198Z" fill="#90722A"/>
<path d="M308.047 291.921L309.089 292.517L309.111 287.963L308.068 287.368L308.047 291.921Z" fill="#90722A"/>
<path d="M308.023 298.284L309.066 298.88L309.087 294.348L308.045 293.731L308.023 298.284Z" fill="#90722A"/>
<path d="M309.898 292.986L310.941 293.581L310.962 289.028L309.898 288.432V292.986Z" fill="#90722A"/>
<path d="M309.875 299.348L310.918 299.943L310.939 295.411L309.875 294.794V299.348Z" fill="#90722A"/>
<path d="M311.727 294.05L312.79 294.646V290.114L311.748 289.497L311.727 294.05Z" fill="#90722A"/>
<path d="M313.578 295.113L314.642 295.709L314.663 291.177L313.599 290.56L313.578 295.113Z" fill="#90722A"/>
<path d="M315.451 291.623L315.43 296.176L316.494 296.793V292.24L315.451 291.623Z" fill="#90722A"/>
<path d="M311.727 300.41L312.769 301.006L312.79 296.474L311.727 295.857V300.41Z" fill="#90722A"/>
<path d="M313.562 301.475L314.626 302.071V297.539L313.584 296.922L313.562 301.475Z" fill="#90722A"/>
<path d="M315.406 302.54L316.449 303.135L316.47 298.603L315.428 297.986L315.406 302.54Z" fill="#90722A"/>
<path d="M272.422 277.707L273.464 278.324L273.486 273.771L272.422 273.175V277.707Z" fill="#90722A"/>
<path d="M315.617 236.92L316.681 237.537L320.617 235.26L319.553 234.643L315.617 236.92Z" fill="#C09838"/>
<path d="M316.642 231.133L320.578 228.856L319.514 228.239L315.578 230.537L316.642 231.133Z" fill="#C09838"/>
<path d="M311.111 227.942L315.047 225.665L313.983 225.048L310.047 227.325L311.111 227.942Z" fill="#C09838"/>
<path d="M312.962 229.004L316.899 226.728L315.835 226.111L311.898 228.409L312.962 229.004Z" fill="#C09838"/>
<path d="M314.793 230.069L318.729 227.792L317.686 227.175L313.75 229.473L314.793 230.069Z" fill="#C09838"/>
<path d="M304.555 230.537L305.597 231.133L309.534 228.856L308.491 228.239L304.555 230.537Z" fill="#C09838"/>
<path d="M318.488 232.219L322.424 229.921L321.36 229.325L317.445 231.602L318.488 232.219Z" fill="#C09838"/>
<path d="M306.383 231.602L307.447 232.219L311.383 229.921L310.319 229.325L306.383 231.602Z" fill="#C09838"/>
<path d="M322.175 234.346L326.112 232.048L325.069 231.453L321.133 233.729L322.175 234.346Z" fill="#C09838"/>
<path d="M324.027 235.41L327.963 233.133L326.899 232.516L322.984 234.793L324.027 235.41Z" fill="#C09838"/>
<path d="M325.871 236.474L329.807 234.198L328.743 233.581L324.828 235.857L325.871 236.474Z" fill="#C09838"/>
<path d="M327.728 237.537L331.643 235.26L330.6 234.643L326.664 236.92L327.728 237.537Z" fill="#C09838"/>
<path d="M317.469 237.983L318.533 238.6L322.448 236.324L321.405 235.707L317.469 237.983Z" fill="#C09838"/>
<path d="M321.172 240.134L322.214 240.73L326.151 238.453L325.087 237.836L321.172 240.134Z" fill="#C09838"/>
<path d="M309.259 226.877L313.195 224.6L312.132 223.983L308.195 226.26L309.259 226.877Z" fill="#C09838"/>
<path d="M308.234 232.664L309.298 233.281L313.235 230.983L312.171 230.388L308.234 232.664Z" fill="#C09838"/>
<path d="M310.086 233.729L311.15 234.346L315.065 232.048L314.022 231.453L310.086 233.729Z" fill="#C09838"/>
<path d="M313.789 235.857L314.832 236.474L318.768 234.198L317.704 233.581L313.789 235.857Z" fill="#C09838"/>
<path d="M319.312 239.069L320.355 239.665L324.291 237.389L323.249 236.771L319.312 239.069Z" fill="#C09838"/>
<path d="M320.345 233.281L324.26 230.983L323.218 230.388L319.281 232.664L320.345 233.281Z" fill="#C09838"/>
<path d="M311.938 234.793L312.98 235.41L316.916 233.133L315.874 232.516L311.938 234.793Z" fill="#C09838"/>
<path d="M302.703 229.473L303.767 230.069L307.682 227.792L306.639 227.175L302.703 229.473Z" fill="#C09838"/>
<path d="M301.719 245.217L302.783 245.834L306.719 243.558L305.655 242.941L301.719 245.217Z" fill="#C09838"/>
<path d="M302.746 239.432L306.682 237.155L305.639 236.559L301.703 238.836L302.746 239.432Z" fill="#C09838"/>
<path d="M297.22 236.239L301.156 233.963L300.093 233.346L296.156 235.644L297.22 236.239Z" fill="#C09838"/>
<path d="M299.064 237.304L303 235.027L301.936 234.41L298 236.708L299.064 237.304Z" fill="#C09838"/>
<path d="M300.915 238.367L304.83 236.09L303.788 235.473L299.852 237.771L300.915 238.367Z" fill="#C09838"/>
<path d="M290.656 238.836L291.699 239.432L295.635 237.155L294.571 236.559L290.656 238.836Z" fill="#C09838"/>
<path d="M304.595 240.516L308.531 238.219L307.468 237.623L303.531 239.899L304.595 240.516Z" fill="#C09838"/>
<path d="M292.508 239.899L293.55 240.516L297.487 238.218L296.423 237.601L292.508 239.899Z" fill="#C09838"/>
<path d="M308.29 242.644L312.205 240.346L311.163 239.75L307.227 242.027L308.29 242.644Z" fill="#C09838"/>
<path d="M310.121 243.707L314.057 241.431L313.014 240.813L309.078 243.09L310.121 243.707Z" fill="#C09838"/>
<path d="M311.972 244.772L315.909 242.495L314.845 241.878L310.93 244.155L311.972 244.772Z" fill="#C09838"/>
<path d="M313.822 245.834L317.758 243.558L316.694 242.941L312.758 245.217L313.822 245.834Z" fill="#C09838"/>
<path d="M303.57 246.303L304.634 246.899L308.57 244.622L307.507 244.005L303.57 246.303Z" fill="#C09838"/>
<path d="M307.273 248.432L308.316 249.027L312.252 246.751L311.21 246.134L307.273 248.432Z" fill="#C09838"/>
<path d="M295.363 235.176L299.299 232.899L298.257 232.282L294.32 234.559L295.363 235.176Z" fill="#C09838"/>
<path d="M294.344 240.962L295.408 241.579L299.344 239.281L298.28 238.685L294.344 240.962Z" fill="#C09838"/>
<path d="M296.195 242.027L297.259 242.644L301.174 240.346L300.132 239.75L296.195 242.027Z" fill="#C09838"/>
<path d="M299.875 244.155L300.939 244.772L304.875 242.495L303.811 241.878L299.875 244.155Z" fill="#C09838"/>
<path d="M305.422 247.367L306.486 247.963L310.401 245.686L309.358 245.069L305.422 247.367Z" fill="#C09838"/>
<path d="M306.447 241.579L310.383 239.281L309.319 238.685L305.383 240.962L306.447 241.579Z" fill="#C09838"/>
<path d="M298.039 243.09L299.103 243.707L303.018 241.431L301.975 240.813L298.039 243.09Z" fill="#C09838"/>
<path d="M288.805 237.771L289.869 238.367L293.784 236.09L292.741 235.473L288.805 237.771Z" fill="#C09838"/>
<path opacity="0.5" d="M322.88 237.303L300.305 224.281L253.07 251.622L295.199 253.197L322.902 237.303H322.88Z" fill="#785F23"/>
<path d="M293.781 262.964L393.571 241.644L393.55 247.687L325.42 287.284L293.781 262.964Z" fill="#504E50"/>
<path d="M293.781 262.964L361.911 223.367L393.571 241.644L325.442 281.22L293.781 262.964Z" fill="#737173"/>
<path d="M325.442 281.219L325.42 287.283L293.781 269.006V262.964L295.1 263.708L325.442 281.219Z" fill="#615F62"/>
<path d="M370.256 252.154L393.575 238.601V241.643L370.234 257.176L370.256 252.154Z" fill="#504E50"/>
<path d="M367.617 247.601L390.958 234.048L393.575 238.601L370.256 252.154L367.617 247.601Z" fill="#585759"/>
<path d="M342.578 233.132L365.898 219.579L390.962 234.047L367.621 247.601L342.578 233.132Z" fill="#737173"/>
<path d="M367.625 247.602L370.263 252.155L370.242 255.198L339.922 237.687V234.644L342.582 233.134L367.625 247.602Z" fill="#615F62"/>
<path d="M367.833 235.175H366.258L358.109 239.899L367.344 245.218H368.918L377.067 240.516L367.833 235.175Z" fill="#3E3C3F"/>
<path d="M355.966 228.324L354.391 228.346L346.242 233.048L355.476 238.367H357.051L365.2 233.665L355.966 228.324Z" fill="#3E3C3F"/>
<path d="M355.427 237.473L363.577 232.771L363.555 233.685L355.406 238.388L355.427 237.473Z" fill="#504E50"/>
<path d="M346.195 232.133L354.344 227.431L363.579 232.772L355.43 237.474L346.195 232.133Z" fill="#7B7A7C"/>
<path d="M355.43 237.472L355.408 238.387L346.195 233.046V232.131L355.43 237.472Z" fill="#615F62"/>
<path d="M367.281 244.323V245.238L358.047 239.898V238.983L367.281 244.323Z" fill="#615F62"/>
<path d="M367.281 244.324L375.452 239.622V240.537L367.281 245.239V244.324Z" fill="#504E50"/>
<path d="M358.047 238.985L366.217 234.283L375.452 239.623L367.281 244.326L358.047 238.985Z" fill="#7B7A7C"/>
<path d="M320.234 279.325V279.942L322.256 281.112V280.474L320.234 279.325Z" fill="#3E3C3F"/>
<path d="M320.234 282.134L322.256 283.325V282.687L320.234 281.517V282.134Z" fill="#3E3C3F"/>
<path d="M317.375 279.878V280.516L319.396 281.687V281.048L317.375 279.878Z" fill="#3E3C3F"/>
<path d="M320.234 281.049L322.256 282.22V281.581L320.234 280.411V281.049Z" fill="#3E3C3F"/>
<path d="M320.234 283.241L322.256 284.411V283.794L320.234 282.624V283.241Z" fill="#3E3C3F"/>
<path d="M317.375 278.794V279.411L319.396 280.581V279.943L317.375 278.794Z" fill="#3E3C3F"/>
<path d="M317.375 280.986V281.625L319.396 282.774V282.157L317.375 280.986Z" fill="#3E3C3F"/>
<path d="M317.375 277.687V278.304L319.396 279.474V278.857L317.375 277.687Z" fill="#3E3C3F"/>
<path d="M313.43 275.367V275.984L315.451 277.154V276.537L313.43 275.367Z" fill="#3E3C3F"/>
<path d="M313.43 278.198L315.451 279.368V278.73L313.43 277.559V278.198Z" fill="#3E3C3F"/>
<path d="M310.57 275.92V276.559L312.592 277.729V277.091L310.57 275.92Z" fill="#3E3C3F"/>
<path d="M313.43 277.092L315.451 278.262V277.624L313.43 276.454V277.092Z" fill="#3E3C3F"/>
<path d="M313.43 279.283L315.451 280.454V279.837L313.43 278.666V279.283Z" fill="#3E3C3F"/>
<path d="M310.57 274.836V275.453L312.592 276.624V275.985L310.57 274.836Z" fill="#3E3C3F"/>
<path d="M310.57 277.029V277.667L312.592 278.837V278.199L310.57 277.029Z" fill="#3E3C3F"/>
<path d="M310.57 273.729V274.368L312.592 275.538V274.9L310.57 273.729Z" fill="#3E3C3F"/>
<path d="M306.617 271.412V272.05L308.639 273.199V272.582L306.617 271.412Z" fill="#3E3C3F"/>
<path d="M306.617 274.239L308.639 275.409V274.771L306.617 273.622V274.239Z" fill="#3E3C3F"/>
<path d="M303.766 271.985V272.602L305.787 273.772V273.155L303.766 271.985Z" fill="#3E3C3F"/>
<path d="M306.617 273.133L308.639 274.304V273.687L306.617 272.516V273.133Z" fill="#3E3C3F"/>
<path d="M306.617 275.347L308.639 276.517V275.879L306.617 274.709V275.347Z" fill="#3E3C3F"/>
<path d="M303.766 270.879V271.517L305.787 272.666V272.049L303.766 270.879Z" fill="#3E3C3F"/>
<path d="M303.766 273.071V273.709L305.787 274.88V274.241L303.766 273.071Z" fill="#3E3C3F"/>
<path d="M303.766 269.772V270.41L305.787 271.581V270.942L303.766 269.772Z" fill="#3E3C3F"/>
<path d="M299.812 267.453V268.091L301.834 269.262V268.623L299.812 267.453Z" fill="#3E3C3F"/>
<path d="M299.812 270.282L301.834 271.452V270.813L299.812 269.665V270.282Z" fill="#3E3C3F"/>
<path d="M296.953 268.027V268.644L298.996 269.814V269.197L296.953 268.027Z" fill="#3E3C3F"/>
<path d="M299.812 269.197L301.834 270.346V269.729L299.812 268.559V269.197Z" fill="#3E3C3F"/>
<path d="M299.812 271.389L301.834 272.56V271.921L299.812 270.751V271.389Z" fill="#3E3C3F"/>
<path d="M296.953 266.921V267.56L298.996 268.73V268.092L296.953 266.921Z" fill="#3E3C3F"/>
<path d="M296.953 269.135V269.752L298.996 270.923V270.305L296.953 269.135Z" fill="#3E3C3F"/>
<path d="M296.953 265.835V266.452L298.996 267.622V266.984L296.953 265.835Z" fill="#3E3C3F"/>
<path opacity="0.8" d="M327.556 262.304L320.96 259.282L310.406 265.325L323.598 272.942L330.194 269.9L335.471 266.878L327.556 262.304Z" fill="#3E3C3F"/>
<path d="M328.829 263.049L334.084 266.857L323.595 272.942L315.68 261.517L328.829 263.049Z" fill="#585759"/>
<path d="M328.829 263.049L323.595 266.092L315.68 261.517L320.914 258.474L328.829 263.049Z" fill="#7B7A7C"/>
<path d="M323.598 266.091V272.942L310.406 265.325L315.683 261.517L323.598 266.091Z" fill="#969596"/>
<path d="M382.339 232.027L381.509 231.537L381.19 231.452L380.488 231.239L380.275 231.218L379.317 231.133H375.317L374.168 231.239L373.126 231.537L372.317 232.005L371.785 232.601L371.594 233.282L371.785 233.942L372.317 234.537L373.126 235.005L374.168 235.325L375.317 235.431L379.317 235.41L380.488 235.325L381.509 235.005L382.339 234.537L382.509 234.367H390.424L390.956 234.048L387.722 232.197H382.488L382.339 232.027Z" fill="#504E50"/>
<path d="M378.319 228.622L378.851 229.218L379.043 229.878L378.851 233.942L378.319 234.537L377.511 235.006L376.468 235.325L375.319 235.431L374.17 235.325L373.128 235.006L372.319 234.537L371.787 233.942L371.617 229.878L371.787 229.218L372.298 228.622L373.128 228.133L374.149 227.835L375.298 227.729L376.468 227.835L377.49 228.133L378.319 228.622Z" fill="#615F62"/>
<path d="M379.051 229.878L379.03 233.282L378.859 233.942V230.559L379.051 229.878Z" fill="#323032"/>
<path d="M371.785 230.559V233.942L371.594 233.282L371.615 229.878L371.785 230.559Z" fill="#504E50"/>
<path d="M378.844 230.559V233.942L378.312 234.538L378.334 231.155L378.844 230.559Z" fill="#323032"/>
<path d="M372.313 231.155V234.538L371.781 233.942V230.559L372.313 231.155Z" fill="#585759"/>
<path d="M378.345 231.155L378.324 234.538L377.516 235.006V231.623L378.345 231.155Z" fill="#353336"/>
<path d="M373.15 231.623L373.129 235.006L372.32 234.538V231.155L373.15 231.623Z" fill="#504E50"/>
<path d="M377.519 231.624V235.007L376.477 235.326L376.498 231.943L377.519 231.624Z" fill="#383639"/>
<path d="M374.197 231.943L374.175 235.326L373.133 235.007L373.154 231.624L374.197 231.943Z" fill="#474548"/>
<path d="M376.483 231.941L376.461 235.324L375.312 235.43L375.334 232.026L376.483 231.941Z" fill="#3B393C"/>
<path d="M375.342 232.026L375.321 235.43L374.172 235.324L374.193 231.941L375.342 232.026Z" fill="#3E3C3F"/>
<path d="M374.728 228.858L374.217 229.006L373.791 229.241L373.515 229.56L373.43 229.879L373.515 230.219L373.791 230.517L374.217 230.772L374.728 230.921L375.323 230.985H378.494L378.855 230.56L379.047 229.879L378.855 229.219L378.494 228.794H375.323L374.728 228.858Z" fill="#3B393C"/>
<path d="M376.828 220.154L377.105 220.452L377.19 220.793L377.105 230.218L376.828 230.538L376.424 230.772L375.892 230.921L375.318 230.984L374.743 230.921L374.211 230.772L373.786 230.538L373.53 230.218L373.445 220.793L373.53 220.452L373.786 220.154L374.211 219.92L374.722 219.771L375.318 219.708L375.892 219.75L376.424 219.92L376.828 220.154Z" fill="#615F62"/>
<path d="M377.187 220.793V229.878L377.102 230.219V221.133L377.187 220.793Z" fill="#323032"/>
<path d="M373.536 221.133V230.219L373.43 229.878L373.451 220.793L373.536 221.133Z" fill="#504E50"/>
<path d="M377.105 221.132V230.217L376.828 230.536L376.849 221.43L377.105 221.132Z" fill="#353336"/>
<path d="M373.808 221.43L373.787 230.536L373.531 230.217V221.132L373.808 221.43Z" fill="#585759"/>
<path d="M376.847 221.432L376.826 230.538L376.422 230.773V221.687L376.847 221.432Z" fill="#353336"/>
<path d="M374.215 221.687V230.773L373.789 230.538L373.81 221.432L374.215 221.687Z" fill="#504E50"/>
<path d="M376.423 221.686V230.772L375.891 230.921L375.912 221.835L376.423 221.686Z" fill="#383639"/>
<path d="M374.743 221.835V230.921L374.211 230.772V221.686L374.743 221.835Z" fill="#474548"/>
<path d="M375.908 221.836L375.887 230.921L375.312 230.985V221.879L375.908 221.836Z" fill="#3B393C"/>
<path d="M375.324 221.879V230.985L374.75 230.921V221.836L375.324 221.879Z" fill="#3E3C3F"/>
<path d="M376.217 220.41L376.387 220.602L376.429 220.793L376.387 221.006L376.238 221.176L375.983 221.325L375.663 221.41L375.323 221.432L374.983 221.41L374.663 221.325L374.429 221.176L374.259 221.006L374.195 220.793L374.259 220.602L374.408 220.41L374.663 220.283L374.983 220.176L375.323 220.155L375.663 220.176L375.983 220.283L376.217 220.41Z" fill="#3B393C"/>
</svg>
